M48
; DRILL file {KiCad 8.0.4} date 2024-08-22T11:34:28-0400
; FORMAT={-:-/ absolute / inch / decimal}
; #@! TF.CreationDate,2024-08-22T11:34:28-04:00
; #@! TF.GenerationSoftware,Kicad,Pcbnew,8.0.4
; #@! TF.FileFunction,Plated,1,2,PTH
FMAT,2
INCH
; #@! TA.AperFunction,Plated,PTH,ViaDrill
T1C0.0118
; #@! TA.AperFunction,Plated,PTH,ComponentDrill
T2C0.0118
; #@! TA.AperFunction,Plated,PTH,ComponentDrill
T3C0.0256
; #@! TA.AperFunction,Plated,PTH,ComponentDrill
T4C0.0315
; #@! TA.AperFunction,Plated,PTH,ComponentDrill
T5C0.0394
; #@! TA.AperFunction,Plated,PTH,ComponentDrill
T6C0.0472
; #@! TA.AperFunction,Plated,PTH,ComponentDrill
T7C0.0512
%
G90
G05
T1
X5.7323Y-3.8819
X5.8248Y-3.7972
X5.8504Y-4.1181
X6.0157Y-3.7441
X6.0709Y-3.8386
X6.126Y-4.0433
X6.1448Y-4.3701
X6.1457Y-4.311
X6.1811Y-4.4803
X6.185Y-4.4488
X6.2244Y-4.1575
X6.2739Y-4.5236
X6.3318Y-4.1426
X6.3583Y-4.4803
X6.4096Y-4.478
X6.5Y-3.9409
X6.5039Y-3.9055
X6.5079Y-4.3303
X6.5748Y-4.248
X6.6102Y-3.7047
X6.6339Y-4.1417
X6.654Y-4.1175
X6.755Y-4.3317
X6.9685Y-4.3465
X7.0197Y-3.6142
T2
X5.9665Y-4.3144
X5.9665Y-4.3439
X5.9665Y-4.3734
X5.9961Y-4.3144
X5.9961Y-4.3439
X5.9961Y-4.3734
X6.0256Y-4.3144
X6.0256Y-4.3439
X6.0256Y-4.3734
T3
X6.6874Y-4.4807
X6.7374Y-4.4807
X6.7874Y-4.4807
X6.8374Y-4.4807
X6.8874Y-4.4807
X6.9374Y-4.4807
T4
X6.1087Y-3.674
X6.1087Y-3.974
X6.2165Y-3.6732
X6.2165Y-3.9732
X6.3213Y-3.6709
X6.3213Y-3.9709
X6.4252Y-3.6724
X6.4252Y-3.9724
T5
X6.7516Y-3.4154
X6.7516Y-3.5154
X6.8953Y-3.4154
X6.8953Y-3.5154
X7.0402Y-3.4154
X7.0402Y-3.5154
T6
X5.1228Y-3.699
X5.1228Y-3.9037
X5.4102Y-3.6636
X5.4102Y-3.9037
X5.4102Y-4.1439
X5.6701Y-3.5415
T7
X5.8819Y-3.4449
X6.0787Y-3.4449
X6.3228Y-3.4449
X6.5197Y-3.4449
X6.9646Y-3.8819
X6.9646Y-4.0787
M30
