%TF.GenerationSoftware,KiCad,Pcbnew,8.0.4*%
%TF.CreationDate,2024-08-22T11:34:41-04:00*%
%TF.ProjectId,proj2,70726f6a-322e-46b6-9963-61645f706362,rev?*%
%TF.SameCoordinates,Original*%
%TF.FileFunction,Copper,L1,Top*%
%TF.FilePolarity,Positive*%
%FSLAX46Y46*%
G04 Gerber Fmt 4.6, Leading zero omitted, Abs format (unit mm)*
G04 Created by KiCad (PCBNEW 8.0.4) date 2024-08-22 11:34:41*
%MOMM*%
%LPD*%
G01*
G04 APERTURE LIST*
G04 Aperture macros list*
%AMRoundRect*
0 Rectangle with rounded corners*
0 $1 Rounding radius*
0 $2 $3 $4 $5 $6 $7 $8 $9 X,Y pos of 4 corners*
0 Add a 4 corners polygon primitive as box body*
4,1,4,$2,$3,$4,$5,$6,$7,$8,$9,$2,$3,0*
0 Add four circle primitives for the rounded corners*
1,1,$1+$1,$2,$3*
1,1,$1+$1,$4,$5*
1,1,$1+$1,$6,$7*
1,1,$1+$1,$8,$9*
0 Add four rect primitives between the rounded corners*
20,1,$1+$1,$2,$3,$4,$5,0*
20,1,$1+$1,$4,$5,$6,$7,0*
20,1,$1+$1,$6,$7,$8,$9,0*
20,1,$1+$1,$8,$9,$2,$3,0*%
G04 Aperture macros list end*
%ADD10C,0.100000*%
%ADD11C,0.150000*%
%ADD12C,0.300000*%
%ADD13C,0.400000*%
%TA.AperFunction,SMDPad,CuDef*%
%ADD14RoundRect,0.160000X-0.160000X0.197500X-0.160000X-0.197500X0.160000X-0.197500X0.160000X0.197500X0*%
%TD*%
%TA.AperFunction,SMDPad,CuDef*%
%ADD15RoundRect,0.160000X-0.197500X-0.160000X0.197500X-0.160000X0.197500X0.160000X-0.197500X0.160000X0*%
%TD*%
%TA.AperFunction,SMDPad,CuDef*%
%ADD16RoundRect,0.100000X-0.100000X0.217500X-0.100000X-0.217500X0.100000X-0.217500X0.100000X0.217500X0*%
%TD*%
%TA.AperFunction,SMDPad,CuDef*%
%ADD17RoundRect,0.160000X0.160000X-0.197500X0.160000X0.197500X-0.160000X0.197500X-0.160000X-0.197500X0*%
%TD*%
%TA.AperFunction,SMDPad,CuDef*%
%ADD18RoundRect,0.100000X-0.217500X-0.100000X0.217500X-0.100000X0.217500X0.100000X-0.217500X0.100000X0*%
%TD*%
%TA.AperFunction,ComponentPad*%
%ADD19R,2.500000X2.500000*%
%TD*%
%TA.AperFunction,ComponentPad*%
%ADD20C,2.500000*%
%TD*%
%TA.AperFunction,ComponentPad*%
%ADD21R,1.600000X1.600000*%
%TD*%
%TA.AperFunction,ComponentPad*%
%ADD22O,1.600000X1.600000*%
%TD*%
%TA.AperFunction,ComponentPad*%
%ADD23C,2.900000*%
%TD*%
%TA.AperFunction,ComponentPad*%
%ADD24R,1.700000X1.700000*%
%TD*%
%TA.AperFunction,ComponentPad*%
%ADD25O,1.700000X1.700000*%
%TD*%
%TA.AperFunction,SMDPad,CuDef*%
%ADD26RoundRect,0.100000X0.217500X0.100000X-0.217500X0.100000X-0.217500X-0.100000X0.217500X-0.100000X0*%
%TD*%
%TA.AperFunction,ComponentPad*%
%ADD27R,1.000000X1.000000*%
%TD*%
%TA.AperFunction,ComponentPad*%
%ADD28O,1.000000X1.000000*%
%TD*%
%TA.AperFunction,SMDPad,CuDef*%
%ADD29RoundRect,0.100000X0.100000X-0.217500X0.100000X0.217500X-0.100000X0.217500X-0.100000X-0.217500X0*%
%TD*%
%TA.AperFunction,SMDPad,CuDef*%
%ADD30RoundRect,0.062500X-0.362500X-0.062500X0.362500X-0.062500X0.362500X0.062500X-0.362500X0.062500X0*%
%TD*%
%TA.AperFunction,SMDPad,CuDef*%
%ADD31RoundRect,0.062500X-0.062500X-0.362500X0.062500X-0.362500X0.062500X0.362500X-0.062500X0.362500X0*%
%TD*%
%TA.AperFunction,HeatsinkPad*%
%ADD32R,5.400000X5.400000*%
%TD*%
%TA.AperFunction,SMDPad,CuDef*%
%ADD33RoundRect,0.075000X0.350000X0.075000X-0.350000X0.075000X-0.350000X-0.075000X0.350000X-0.075000X0*%
%TD*%
%TA.AperFunction,SMDPad,CuDef*%
%ADD34RoundRect,0.075000X0.075000X0.350000X-0.075000X0.350000X-0.075000X-0.350000X0.075000X-0.350000X0*%
%TD*%
%TA.AperFunction,HeatsinkPad*%
%ADD35C,0.600000*%
%TD*%
%TA.AperFunction,HeatsinkPad*%
%ADD36R,2.100000X2.100000*%
%TD*%
%TA.AperFunction,ViaPad*%
%ADD37C,0.600000*%
%TD*%
%TA.AperFunction,Conductor*%
%ADD38C,0.200000*%
%TD*%
G04 APERTURE END LIST*
D10*
D11*
X177002200Y-166007200D02*
X285002200Y-166007200D01*
X285002200Y-198007200D01*
X177002200Y-198007200D01*
X177002200Y-166007200D01*
D10*
D11*
X10000000Y-10000000D02*
X287002200Y-10000000D01*
X287002200Y-200007200D01*
X10000000Y-200007200D01*
X10000000Y-10000000D01*
D10*
D11*
X12000000Y-12000000D02*
X285002200Y-12000000D01*
X285002200Y-198007200D01*
X12000000Y-198007200D01*
X12000000Y-12000000D01*
D10*
D11*
X60000000Y-12000000D02*
X60000000Y-10000000D01*
D10*
D11*
X110000000Y-12000000D02*
X110000000Y-10000000D01*
D10*
D11*
X160000000Y-12000000D02*
X160000000Y-10000000D01*
D10*
D11*
X210000000Y-12000000D02*
X210000000Y-10000000D01*
D10*
D11*
X260000000Y-12000000D02*
X260000000Y-10000000D01*
D10*
D11*
X36089160Y-11593604D02*
X35346303Y-11593604D01*
X35717731Y-11593604D02*
X35717731Y-10293604D01*
X35717731Y-10293604D02*
X35593922Y-10479319D01*
X35593922Y-10479319D02*
X35470112Y-10603128D01*
X35470112Y-10603128D02*
X35346303Y-10665033D01*
D10*
D11*
X85346303Y-10417414D02*
X85408207Y-10355509D01*
X85408207Y-10355509D02*
X85532017Y-10293604D01*
X85532017Y-10293604D02*
X85841541Y-10293604D01*
X85841541Y-10293604D02*
X85965350Y-10355509D01*
X85965350Y-10355509D02*
X86027255Y-10417414D01*
X86027255Y-10417414D02*
X86089160Y-10541223D01*
X86089160Y-10541223D02*
X86089160Y-10665033D01*
X86089160Y-10665033D02*
X86027255Y-10850747D01*
X86027255Y-10850747D02*
X85284398Y-11593604D01*
X85284398Y-11593604D02*
X86089160Y-11593604D01*
D10*
D11*
X135284398Y-10293604D02*
X136089160Y-10293604D01*
X136089160Y-10293604D02*
X135655826Y-10788842D01*
X135655826Y-10788842D02*
X135841541Y-10788842D01*
X135841541Y-10788842D02*
X135965350Y-10850747D01*
X135965350Y-10850747D02*
X136027255Y-10912652D01*
X136027255Y-10912652D02*
X136089160Y-11036461D01*
X136089160Y-11036461D02*
X136089160Y-11345985D01*
X136089160Y-11345985D02*
X136027255Y-11469795D01*
X136027255Y-11469795D02*
X135965350Y-11531700D01*
X135965350Y-11531700D02*
X135841541Y-11593604D01*
X135841541Y-11593604D02*
X135470112Y-11593604D01*
X135470112Y-11593604D02*
X135346303Y-11531700D01*
X135346303Y-11531700D02*
X135284398Y-11469795D01*
D10*
D11*
X185965350Y-10726938D02*
X185965350Y-11593604D01*
X185655826Y-10231700D02*
X185346303Y-11160271D01*
X185346303Y-11160271D02*
X186151064Y-11160271D01*
D10*
D11*
X236027255Y-10293604D02*
X235408207Y-10293604D01*
X235408207Y-10293604D02*
X235346303Y-10912652D01*
X235346303Y-10912652D02*
X235408207Y-10850747D01*
X235408207Y-10850747D02*
X235532017Y-10788842D01*
X235532017Y-10788842D02*
X235841541Y-10788842D01*
X235841541Y-10788842D02*
X235965350Y-10850747D01*
X235965350Y-10850747D02*
X236027255Y-10912652D01*
X236027255Y-10912652D02*
X236089160Y-11036461D01*
X236089160Y-11036461D02*
X236089160Y-11345985D01*
X236089160Y-11345985D02*
X236027255Y-11469795D01*
X236027255Y-11469795D02*
X235965350Y-11531700D01*
X235965350Y-11531700D02*
X235841541Y-11593604D01*
X235841541Y-11593604D02*
X235532017Y-11593604D01*
X235532017Y-11593604D02*
X235408207Y-11531700D01*
X235408207Y-11531700D02*
X235346303Y-11469795D01*
D10*
D11*
X285965350Y-10293604D02*
X285717731Y-10293604D01*
X285717731Y-10293604D02*
X285593922Y-10355509D01*
X285593922Y-10355509D02*
X285532017Y-10417414D01*
X285532017Y-10417414D02*
X285408207Y-10603128D01*
X285408207Y-10603128D02*
X285346303Y-10850747D01*
X285346303Y-10850747D02*
X285346303Y-11345985D01*
X285346303Y-11345985D02*
X285408207Y-11469795D01*
X285408207Y-11469795D02*
X285470112Y-11531700D01*
X285470112Y-11531700D02*
X285593922Y-11593604D01*
X285593922Y-11593604D02*
X285841541Y-11593604D01*
X285841541Y-11593604D02*
X285965350Y-11531700D01*
X285965350Y-11531700D02*
X286027255Y-11469795D01*
X286027255Y-11469795D02*
X286089160Y-11345985D01*
X286089160Y-11345985D02*
X286089160Y-11036461D01*
X286089160Y-11036461D02*
X286027255Y-10912652D01*
X286027255Y-10912652D02*
X285965350Y-10850747D01*
X285965350Y-10850747D02*
X285841541Y-10788842D01*
X285841541Y-10788842D02*
X285593922Y-10788842D01*
X285593922Y-10788842D02*
X285470112Y-10850747D01*
X285470112Y-10850747D02*
X285408207Y-10912652D01*
X285408207Y-10912652D02*
X285346303Y-11036461D01*
D10*
D11*
X60000000Y-198007200D02*
X60000000Y-200007200D01*
D10*
D11*
X110000000Y-198007200D02*
X110000000Y-200007200D01*
D10*
D11*
X160000000Y-198007200D02*
X160000000Y-200007200D01*
D10*
D11*
X210000000Y-198007200D02*
X210000000Y-200007200D01*
D10*
D11*
X260000000Y-198007200D02*
X260000000Y-200007200D01*
D10*
D11*
X36089160Y-199600804D02*
X35346303Y-199600804D01*
X35717731Y-199600804D02*
X35717731Y-198300804D01*
X35717731Y-198300804D02*
X35593922Y-198486519D01*
X35593922Y-198486519D02*
X35470112Y-198610328D01*
X35470112Y-198610328D02*
X35346303Y-198672233D01*
D10*
D11*
X85346303Y-198424614D02*
X85408207Y-198362709D01*
X85408207Y-198362709D02*
X85532017Y-198300804D01*
X85532017Y-198300804D02*
X85841541Y-198300804D01*
X85841541Y-198300804D02*
X85965350Y-198362709D01*
X85965350Y-198362709D02*
X86027255Y-198424614D01*
X86027255Y-198424614D02*
X86089160Y-198548423D01*
X86089160Y-198548423D02*
X86089160Y-198672233D01*
X86089160Y-198672233D02*
X86027255Y-198857947D01*
X86027255Y-198857947D02*
X85284398Y-199600804D01*
X85284398Y-199600804D02*
X86089160Y-199600804D01*
D10*
D11*
X135284398Y-198300804D02*
X136089160Y-198300804D01*
X136089160Y-198300804D02*
X135655826Y-198796042D01*
X135655826Y-198796042D02*
X135841541Y-198796042D01*
X135841541Y-198796042D02*
X135965350Y-198857947D01*
X135965350Y-198857947D02*
X136027255Y-198919852D01*
X136027255Y-198919852D02*
X136089160Y-199043661D01*
X136089160Y-199043661D02*
X136089160Y-199353185D01*
X136089160Y-199353185D02*
X136027255Y-199476995D01*
X136027255Y-199476995D02*
X135965350Y-199538900D01*
X135965350Y-199538900D02*
X135841541Y-199600804D01*
X135841541Y-199600804D02*
X135470112Y-199600804D01*
X135470112Y-199600804D02*
X135346303Y-199538900D01*
X135346303Y-199538900D02*
X135284398Y-199476995D01*
D10*
D11*
X185965350Y-198734138D02*
X185965350Y-199600804D01*
X185655826Y-198238900D02*
X185346303Y-199167471D01*
X185346303Y-199167471D02*
X186151064Y-199167471D01*
D10*
D11*
X236027255Y-198300804D02*
X235408207Y-198300804D01*
X235408207Y-198300804D02*
X235346303Y-198919852D01*
X235346303Y-198919852D02*
X235408207Y-198857947D01*
X235408207Y-198857947D02*
X235532017Y-198796042D01*
X235532017Y-198796042D02*
X235841541Y-198796042D01*
X235841541Y-198796042D02*
X235965350Y-198857947D01*
X235965350Y-198857947D02*
X236027255Y-198919852D01*
X236027255Y-198919852D02*
X236089160Y-199043661D01*
X236089160Y-199043661D02*
X236089160Y-199353185D01*
X236089160Y-199353185D02*
X236027255Y-199476995D01*
X236027255Y-199476995D02*
X235965350Y-199538900D01*
X235965350Y-199538900D02*
X235841541Y-199600804D01*
X235841541Y-199600804D02*
X235532017Y-199600804D01*
X235532017Y-199600804D02*
X235408207Y-199538900D01*
X235408207Y-199538900D02*
X235346303Y-199476995D01*
D10*
D11*
X285965350Y-198300804D02*
X285717731Y-198300804D01*
X285717731Y-198300804D02*
X285593922Y-198362709D01*
X285593922Y-198362709D02*
X285532017Y-198424614D01*
X285532017Y-198424614D02*
X285408207Y-198610328D01*
X285408207Y-198610328D02*
X285346303Y-198857947D01*
X285346303Y-198857947D02*
X285346303Y-199353185D01*
X285346303Y-199353185D02*
X285408207Y-199476995D01*
X285408207Y-199476995D02*
X285470112Y-199538900D01*
X285470112Y-199538900D02*
X285593922Y-199600804D01*
X285593922Y-199600804D02*
X285841541Y-199600804D01*
X285841541Y-199600804D02*
X285965350Y-199538900D01*
X285965350Y-199538900D02*
X286027255Y-199476995D01*
X286027255Y-199476995D02*
X286089160Y-199353185D01*
X286089160Y-199353185D02*
X286089160Y-199043661D01*
X286089160Y-199043661D02*
X286027255Y-198919852D01*
X286027255Y-198919852D02*
X285965350Y-198857947D01*
X285965350Y-198857947D02*
X285841541Y-198796042D01*
X285841541Y-198796042D02*
X285593922Y-198796042D01*
X285593922Y-198796042D02*
X285470112Y-198857947D01*
X285470112Y-198857947D02*
X285408207Y-198919852D01*
X285408207Y-198919852D02*
X285346303Y-199043661D01*
D10*
D11*
X10000000Y-60000000D02*
X12000000Y-60000000D01*
D10*
D11*
X10000000Y-110000000D02*
X12000000Y-110000000D01*
D10*
D11*
X10000000Y-160000000D02*
X12000000Y-160000000D01*
D10*
D11*
X10690476Y-35222176D02*
X11309523Y-35222176D01*
X10566666Y-35593604D02*
X10999999Y-34293604D01*
X10999999Y-34293604D02*
X11433333Y-35593604D01*
D10*
D11*
X11092857Y-84912652D02*
X11278571Y-84974557D01*
X11278571Y-84974557D02*
X11340476Y-85036461D01*
X11340476Y-85036461D02*
X11402380Y-85160271D01*
X11402380Y-85160271D02*
X11402380Y-85345985D01*
X11402380Y-85345985D02*
X11340476Y-85469795D01*
X11340476Y-85469795D02*
X11278571Y-85531700D01*
X11278571Y-85531700D02*
X11154761Y-85593604D01*
X11154761Y-85593604D02*
X10659523Y-85593604D01*
X10659523Y-85593604D02*
X10659523Y-84293604D01*
X10659523Y-84293604D02*
X11092857Y-84293604D01*
X11092857Y-84293604D02*
X11216666Y-84355509D01*
X11216666Y-84355509D02*
X11278571Y-84417414D01*
X11278571Y-84417414D02*
X11340476Y-84541223D01*
X11340476Y-84541223D02*
X11340476Y-84665033D01*
X11340476Y-84665033D02*
X11278571Y-84788842D01*
X11278571Y-84788842D02*
X11216666Y-84850747D01*
X11216666Y-84850747D02*
X11092857Y-84912652D01*
X11092857Y-84912652D02*
X10659523Y-84912652D01*
D10*
D11*
X11402380Y-135469795D02*
X11340476Y-135531700D01*
X11340476Y-135531700D02*
X11154761Y-135593604D01*
X11154761Y-135593604D02*
X11030952Y-135593604D01*
X11030952Y-135593604D02*
X10845238Y-135531700D01*
X10845238Y-135531700D02*
X10721428Y-135407890D01*
X10721428Y-135407890D02*
X10659523Y-135284080D01*
X10659523Y-135284080D02*
X10597619Y-135036461D01*
X10597619Y-135036461D02*
X10597619Y-134850747D01*
X10597619Y-134850747D02*
X10659523Y-134603128D01*
X10659523Y-134603128D02*
X10721428Y-134479319D01*
X10721428Y-134479319D02*
X10845238Y-134355509D01*
X10845238Y-134355509D02*
X11030952Y-134293604D01*
X11030952Y-134293604D02*
X11154761Y-134293604D01*
X11154761Y-134293604D02*
X11340476Y-134355509D01*
X11340476Y-134355509D02*
X11402380Y-134417414D01*
D10*
D11*
X10659523Y-185593604D02*
X10659523Y-184293604D01*
X10659523Y-184293604D02*
X10969047Y-184293604D01*
X10969047Y-184293604D02*
X11154761Y-184355509D01*
X11154761Y-184355509D02*
X11278571Y-184479319D01*
X11278571Y-184479319D02*
X11340476Y-184603128D01*
X11340476Y-184603128D02*
X11402380Y-184850747D01*
X11402380Y-184850747D02*
X11402380Y-185036461D01*
X11402380Y-185036461D02*
X11340476Y-185284080D01*
X11340476Y-185284080D02*
X11278571Y-185407890D01*
X11278571Y-185407890D02*
X11154761Y-185531700D01*
X11154761Y-185531700D02*
X10969047Y-185593604D01*
X10969047Y-185593604D02*
X10659523Y-185593604D01*
D10*
D11*
X287002200Y-60000000D02*
X285002200Y-60000000D01*
D10*
D11*
X287002200Y-110000000D02*
X285002200Y-110000000D01*
D10*
D11*
X287002200Y-160000000D02*
X285002200Y-160000000D01*
D10*
D11*
X285692676Y-35222176D02*
X286311723Y-35222176D01*
X285568866Y-35593604D02*
X286002199Y-34293604D01*
X286002199Y-34293604D02*
X286435533Y-35593604D01*
D10*
D11*
X286095057Y-84912652D02*
X286280771Y-84974557D01*
X286280771Y-84974557D02*
X286342676Y-85036461D01*
X286342676Y-85036461D02*
X286404580Y-85160271D01*
X286404580Y-85160271D02*
X286404580Y-85345985D01*
X286404580Y-85345985D02*
X286342676Y-85469795D01*
X286342676Y-85469795D02*
X286280771Y-85531700D01*
X286280771Y-85531700D02*
X286156961Y-85593604D01*
X286156961Y-85593604D02*
X285661723Y-85593604D01*
X285661723Y-85593604D02*
X285661723Y-84293604D01*
X285661723Y-84293604D02*
X286095057Y-84293604D01*
X286095057Y-84293604D02*
X286218866Y-84355509D01*
X286218866Y-84355509D02*
X286280771Y-84417414D01*
X286280771Y-84417414D02*
X286342676Y-84541223D01*
X286342676Y-84541223D02*
X286342676Y-84665033D01*
X286342676Y-84665033D02*
X286280771Y-84788842D01*
X286280771Y-84788842D02*
X286218866Y-84850747D01*
X286218866Y-84850747D02*
X286095057Y-84912652D01*
X286095057Y-84912652D02*
X285661723Y-84912652D01*
D10*
D11*
X286404580Y-135469795D02*
X286342676Y-135531700D01*
X286342676Y-135531700D02*
X286156961Y-135593604D01*
X286156961Y-135593604D02*
X286033152Y-135593604D01*
X286033152Y-135593604D02*
X285847438Y-135531700D01*
X285847438Y-135531700D02*
X285723628Y-135407890D01*
X285723628Y-135407890D02*
X285661723Y-135284080D01*
X285661723Y-135284080D02*
X285599819Y-135036461D01*
X285599819Y-135036461D02*
X285599819Y-134850747D01*
X285599819Y-134850747D02*
X285661723Y-134603128D01*
X285661723Y-134603128D02*
X285723628Y-134479319D01*
X285723628Y-134479319D02*
X285847438Y-134355509D01*
X285847438Y-134355509D02*
X286033152Y-134293604D01*
X286033152Y-134293604D02*
X286156961Y-134293604D01*
X286156961Y-134293604D02*
X286342676Y-134355509D01*
X286342676Y-134355509D02*
X286404580Y-134417414D01*
D10*
D11*
X285661723Y-185593604D02*
X285661723Y-184293604D01*
X285661723Y-184293604D02*
X285971247Y-184293604D01*
X285971247Y-184293604D02*
X286156961Y-184355509D01*
X286156961Y-184355509D02*
X286280771Y-184479319D01*
X286280771Y-184479319D02*
X286342676Y-184603128D01*
X286342676Y-184603128D02*
X286404580Y-184850747D01*
X286404580Y-184850747D02*
X286404580Y-185036461D01*
X286404580Y-185036461D02*
X286342676Y-185284080D01*
X286342676Y-185284080D02*
X286280771Y-185407890D01*
X286280771Y-185407890D02*
X286156961Y-185531700D01*
X286156961Y-185531700D02*
X285971247Y-185593604D01*
X285971247Y-185593604D02*
X285661723Y-185593604D01*
D10*
D11*
X200458026Y-193793328D02*
X200458026Y-192293328D01*
X200458026Y-192293328D02*
X200815169Y-192293328D01*
X200815169Y-192293328D02*
X201029455Y-192364757D01*
X201029455Y-192364757D02*
X201172312Y-192507614D01*
X201172312Y-192507614D02*
X201243741Y-192650471D01*
X201243741Y-192650471D02*
X201315169Y-192936185D01*
X201315169Y-192936185D02*
X201315169Y-193150471D01*
X201315169Y-193150471D02*
X201243741Y-193436185D01*
X201243741Y-193436185D02*
X201172312Y-193579042D01*
X201172312Y-193579042D02*
X201029455Y-193721900D01*
X201029455Y-193721900D02*
X200815169Y-193793328D01*
X200815169Y-193793328D02*
X200458026Y-193793328D01*
X202600884Y-193793328D02*
X202600884Y-193007614D01*
X202600884Y-193007614D02*
X202529455Y-192864757D01*
X202529455Y-192864757D02*
X202386598Y-192793328D01*
X202386598Y-192793328D02*
X202100884Y-192793328D01*
X202100884Y-192793328D02*
X201958026Y-192864757D01*
X202600884Y-193721900D02*
X202458026Y-193793328D01*
X202458026Y-193793328D02*
X202100884Y-193793328D01*
X202100884Y-193793328D02*
X201958026Y-193721900D01*
X201958026Y-193721900D02*
X201886598Y-193579042D01*
X201886598Y-193579042D02*
X201886598Y-193436185D01*
X201886598Y-193436185D02*
X201958026Y-193293328D01*
X201958026Y-193293328D02*
X202100884Y-193221900D01*
X202100884Y-193221900D02*
X202458026Y-193221900D01*
X202458026Y-193221900D02*
X202600884Y-193150471D01*
X203100884Y-192793328D02*
X203672312Y-192793328D01*
X203315169Y-192293328D02*
X203315169Y-193579042D01*
X203315169Y-193579042D02*
X203386598Y-193721900D01*
X203386598Y-193721900D02*
X203529455Y-193793328D01*
X203529455Y-193793328D02*
X203672312Y-193793328D01*
X204743741Y-193721900D02*
X204600884Y-193793328D01*
X204600884Y-193793328D02*
X204315170Y-193793328D01*
X204315170Y-193793328D02*
X204172312Y-193721900D01*
X204172312Y-193721900D02*
X204100884Y-193579042D01*
X204100884Y-193579042D02*
X204100884Y-193007614D01*
X204100884Y-193007614D02*
X204172312Y-192864757D01*
X204172312Y-192864757D02*
X204315170Y-192793328D01*
X204315170Y-192793328D02*
X204600884Y-192793328D01*
X204600884Y-192793328D02*
X204743741Y-192864757D01*
X204743741Y-192864757D02*
X204815170Y-193007614D01*
X204815170Y-193007614D02*
X204815170Y-193150471D01*
X204815170Y-193150471D02*
X204100884Y-193293328D01*
X205458026Y-193650471D02*
X205529455Y-193721900D01*
X205529455Y-193721900D02*
X205458026Y-193793328D01*
X205458026Y-193793328D02*
X205386598Y-193721900D01*
X205386598Y-193721900D02*
X205458026Y-193650471D01*
X205458026Y-193650471D02*
X205458026Y-193793328D01*
X205458026Y-192864757D02*
X205529455Y-192936185D01*
X205529455Y-192936185D02*
X205458026Y-193007614D01*
X205458026Y-193007614D02*
X205386598Y-192936185D01*
X205386598Y-192936185D02*
X205458026Y-192864757D01*
X205458026Y-192864757D02*
X205458026Y-193007614D01*
D10*
D11*
X177002200Y-194507200D02*
X285002200Y-194507200D01*
D10*
D11*
X178458026Y-196593328D02*
X178458026Y-195093328D01*
X179315169Y-196593328D02*
X178672312Y-195736185D01*
X179315169Y-195093328D02*
X178458026Y-195950471D01*
X179958026Y-196593328D02*
X179958026Y-195593328D01*
X179958026Y-195093328D02*
X179886598Y-195164757D01*
X179886598Y-195164757D02*
X179958026Y-195236185D01*
X179958026Y-195236185D02*
X180029455Y-195164757D01*
X180029455Y-195164757D02*
X179958026Y-195093328D01*
X179958026Y-195093328D02*
X179958026Y-195236185D01*
X181529455Y-196450471D02*
X181458027Y-196521900D01*
X181458027Y-196521900D02*
X181243741Y-196593328D01*
X181243741Y-196593328D02*
X181100884Y-196593328D01*
X181100884Y-196593328D02*
X180886598Y-196521900D01*
X180886598Y-196521900D02*
X180743741Y-196379042D01*
X180743741Y-196379042D02*
X180672312Y-196236185D01*
X180672312Y-196236185D02*
X180600884Y-195950471D01*
X180600884Y-195950471D02*
X180600884Y-195736185D01*
X180600884Y-195736185D02*
X180672312Y-195450471D01*
X180672312Y-195450471D02*
X180743741Y-195307614D01*
X180743741Y-195307614D02*
X180886598Y-195164757D01*
X180886598Y-195164757D02*
X181100884Y-195093328D01*
X181100884Y-195093328D02*
X181243741Y-195093328D01*
X181243741Y-195093328D02*
X181458027Y-195164757D01*
X181458027Y-195164757D02*
X181529455Y-195236185D01*
X182815170Y-196593328D02*
X182815170Y-195807614D01*
X182815170Y-195807614D02*
X182743741Y-195664757D01*
X182743741Y-195664757D02*
X182600884Y-195593328D01*
X182600884Y-195593328D02*
X182315170Y-195593328D01*
X182315170Y-195593328D02*
X182172312Y-195664757D01*
X182815170Y-196521900D02*
X182672312Y-196593328D01*
X182672312Y-196593328D02*
X182315170Y-196593328D01*
X182315170Y-196593328D02*
X182172312Y-196521900D01*
X182172312Y-196521900D02*
X182100884Y-196379042D01*
X182100884Y-196379042D02*
X182100884Y-196236185D01*
X182100884Y-196236185D02*
X182172312Y-196093328D01*
X182172312Y-196093328D02*
X182315170Y-196021900D01*
X182315170Y-196021900D02*
X182672312Y-196021900D01*
X182672312Y-196021900D02*
X182815170Y-195950471D01*
X184172313Y-196593328D02*
X184172313Y-195093328D01*
X184172313Y-196521900D02*
X184029455Y-196593328D01*
X184029455Y-196593328D02*
X183743741Y-196593328D01*
X183743741Y-196593328D02*
X183600884Y-196521900D01*
X183600884Y-196521900D02*
X183529455Y-196450471D01*
X183529455Y-196450471D02*
X183458027Y-196307614D01*
X183458027Y-196307614D02*
X183458027Y-195879042D01*
X183458027Y-195879042D02*
X183529455Y-195736185D01*
X183529455Y-195736185D02*
X183600884Y-195664757D01*
X183600884Y-195664757D02*
X183743741Y-195593328D01*
X183743741Y-195593328D02*
X184029455Y-195593328D01*
X184029455Y-195593328D02*
X184172313Y-195664757D01*
X186029455Y-195807614D02*
X186529455Y-195807614D01*
X186743741Y-196593328D02*
X186029455Y-196593328D01*
X186029455Y-196593328D02*
X186029455Y-195093328D01*
X186029455Y-195093328D02*
X186743741Y-195093328D01*
X187386598Y-196450471D02*
X187458027Y-196521900D01*
X187458027Y-196521900D02*
X187386598Y-196593328D01*
X187386598Y-196593328D02*
X187315170Y-196521900D01*
X187315170Y-196521900D02*
X187386598Y-196450471D01*
X187386598Y-196450471D02*
X187386598Y-196593328D01*
X188100884Y-196593328D02*
X188100884Y-195093328D01*
X188100884Y-195093328D02*
X188458027Y-195093328D01*
X188458027Y-195093328D02*
X188672313Y-195164757D01*
X188672313Y-195164757D02*
X188815170Y-195307614D01*
X188815170Y-195307614D02*
X188886599Y-195450471D01*
X188886599Y-195450471D02*
X188958027Y-195736185D01*
X188958027Y-195736185D02*
X188958027Y-195950471D01*
X188958027Y-195950471D02*
X188886599Y-196236185D01*
X188886599Y-196236185D02*
X188815170Y-196379042D01*
X188815170Y-196379042D02*
X188672313Y-196521900D01*
X188672313Y-196521900D02*
X188458027Y-196593328D01*
X188458027Y-196593328D02*
X188100884Y-196593328D01*
X189600884Y-196450471D02*
X189672313Y-196521900D01*
X189672313Y-196521900D02*
X189600884Y-196593328D01*
X189600884Y-196593328D02*
X189529456Y-196521900D01*
X189529456Y-196521900D02*
X189600884Y-196450471D01*
X189600884Y-196450471D02*
X189600884Y-196593328D01*
X190243742Y-196164757D02*
X190958028Y-196164757D01*
X190100885Y-196593328D02*
X190600885Y-195093328D01*
X190600885Y-195093328D02*
X191100885Y-196593328D01*
X191600884Y-196450471D02*
X191672313Y-196521900D01*
X191672313Y-196521900D02*
X191600884Y-196593328D01*
X191600884Y-196593328D02*
X191529456Y-196521900D01*
X191529456Y-196521900D02*
X191600884Y-196450471D01*
X191600884Y-196450471D02*
X191600884Y-196593328D01*
X193672313Y-195736185D02*
X193529456Y-195664757D01*
X193529456Y-195664757D02*
X193458027Y-195593328D01*
X193458027Y-195593328D02*
X193386599Y-195450471D01*
X193386599Y-195450471D02*
X193386599Y-195379042D01*
X193386599Y-195379042D02*
X193458027Y-195236185D01*
X193458027Y-195236185D02*
X193529456Y-195164757D01*
X193529456Y-195164757D02*
X193672313Y-195093328D01*
X193672313Y-195093328D02*
X193958027Y-195093328D01*
X193958027Y-195093328D02*
X194100885Y-195164757D01*
X194100885Y-195164757D02*
X194172313Y-195236185D01*
X194172313Y-195236185D02*
X194243742Y-195379042D01*
X194243742Y-195379042D02*
X194243742Y-195450471D01*
X194243742Y-195450471D02*
X194172313Y-195593328D01*
X194172313Y-195593328D02*
X194100885Y-195664757D01*
X194100885Y-195664757D02*
X193958027Y-195736185D01*
X193958027Y-195736185D02*
X193672313Y-195736185D01*
X193672313Y-195736185D02*
X193529456Y-195807614D01*
X193529456Y-195807614D02*
X193458027Y-195879042D01*
X193458027Y-195879042D02*
X193386599Y-196021900D01*
X193386599Y-196021900D02*
X193386599Y-196307614D01*
X193386599Y-196307614D02*
X193458027Y-196450471D01*
X193458027Y-196450471D02*
X193529456Y-196521900D01*
X193529456Y-196521900D02*
X193672313Y-196593328D01*
X193672313Y-196593328D02*
X193958027Y-196593328D01*
X193958027Y-196593328D02*
X194100885Y-196521900D01*
X194100885Y-196521900D02*
X194172313Y-196450471D01*
X194172313Y-196450471D02*
X194243742Y-196307614D01*
X194243742Y-196307614D02*
X194243742Y-196021900D01*
X194243742Y-196021900D02*
X194172313Y-195879042D01*
X194172313Y-195879042D02*
X194100885Y-195807614D01*
X194100885Y-195807614D02*
X193958027Y-195736185D01*
X194886598Y-196450471D02*
X194958027Y-196521900D01*
X194958027Y-196521900D02*
X194886598Y-196593328D01*
X194886598Y-196593328D02*
X194815170Y-196521900D01*
X194815170Y-196521900D02*
X194886598Y-196450471D01*
X194886598Y-196450471D02*
X194886598Y-196593328D01*
X195886599Y-195093328D02*
X196029456Y-195093328D01*
X196029456Y-195093328D02*
X196172313Y-195164757D01*
X196172313Y-195164757D02*
X196243742Y-195236185D01*
X196243742Y-195236185D02*
X196315170Y-195379042D01*
X196315170Y-195379042D02*
X196386599Y-195664757D01*
X196386599Y-195664757D02*
X196386599Y-196021900D01*
X196386599Y-196021900D02*
X196315170Y-196307614D01*
X196315170Y-196307614D02*
X196243742Y-196450471D01*
X196243742Y-196450471D02*
X196172313Y-196521900D01*
X196172313Y-196521900D02*
X196029456Y-196593328D01*
X196029456Y-196593328D02*
X195886599Y-196593328D01*
X195886599Y-196593328D02*
X195743742Y-196521900D01*
X195743742Y-196521900D02*
X195672313Y-196450471D01*
X195672313Y-196450471D02*
X195600884Y-196307614D01*
X195600884Y-196307614D02*
X195529456Y-196021900D01*
X195529456Y-196021900D02*
X195529456Y-195664757D01*
X195529456Y-195664757D02*
X195600884Y-195379042D01*
X195600884Y-195379042D02*
X195672313Y-195236185D01*
X195672313Y-195236185D02*
X195743742Y-195164757D01*
X195743742Y-195164757D02*
X195886599Y-195093328D01*
X197029455Y-196450471D02*
X197100884Y-196521900D01*
X197100884Y-196521900D02*
X197029455Y-196593328D01*
X197029455Y-196593328D02*
X196958027Y-196521900D01*
X196958027Y-196521900D02*
X197029455Y-196450471D01*
X197029455Y-196450471D02*
X197029455Y-196593328D01*
X198386599Y-195593328D02*
X198386599Y-196593328D01*
X198029456Y-195021900D02*
X197672313Y-196093328D01*
X197672313Y-196093328D02*
X198600884Y-196093328D01*
D10*
D11*
X177002200Y-191507200D02*
X285002200Y-191507200D01*
D10*
D12*
X264413853Y-193785528D02*
X263913853Y-193071242D01*
X263556710Y-193785528D02*
X263556710Y-192285528D01*
X263556710Y-192285528D02*
X264128139Y-192285528D01*
X264128139Y-192285528D02*
X264270996Y-192356957D01*
X264270996Y-192356957D02*
X264342425Y-192428385D01*
X264342425Y-192428385D02*
X264413853Y-192571242D01*
X264413853Y-192571242D02*
X264413853Y-192785528D01*
X264413853Y-192785528D02*
X264342425Y-192928385D01*
X264342425Y-192928385D02*
X264270996Y-192999814D01*
X264270996Y-192999814D02*
X264128139Y-193071242D01*
X264128139Y-193071242D02*
X263556710Y-193071242D01*
X265628139Y-193714100D02*
X265485282Y-193785528D01*
X265485282Y-193785528D02*
X265199568Y-193785528D01*
X265199568Y-193785528D02*
X265056710Y-193714100D01*
X265056710Y-193714100D02*
X264985282Y-193571242D01*
X264985282Y-193571242D02*
X264985282Y-192999814D01*
X264985282Y-192999814D02*
X265056710Y-192856957D01*
X265056710Y-192856957D02*
X265199568Y-192785528D01*
X265199568Y-192785528D02*
X265485282Y-192785528D01*
X265485282Y-192785528D02*
X265628139Y-192856957D01*
X265628139Y-192856957D02*
X265699568Y-192999814D01*
X265699568Y-192999814D02*
X265699568Y-193142671D01*
X265699568Y-193142671D02*
X264985282Y-193285528D01*
X266199567Y-192785528D02*
X266556710Y-193785528D01*
X266556710Y-193785528D02*
X266913853Y-192785528D01*
X267485281Y-193642671D02*
X267556710Y-193714100D01*
X267556710Y-193714100D02*
X267485281Y-193785528D01*
X267485281Y-193785528D02*
X267413853Y-193714100D01*
X267413853Y-193714100D02*
X267485281Y-193642671D01*
X267485281Y-193642671D02*
X267485281Y-193785528D01*
X267485281Y-192856957D02*
X267556710Y-192928385D01*
X267556710Y-192928385D02*
X267485281Y-192999814D01*
X267485281Y-192999814D02*
X267413853Y-192928385D01*
X267413853Y-192928385D02*
X267485281Y-192856957D01*
X267485281Y-192856957D02*
X267485281Y-192999814D01*
D10*
D11*
X178386598Y-193721900D02*
X178600884Y-193793328D01*
X178600884Y-193793328D02*
X178958026Y-193793328D01*
X178958026Y-193793328D02*
X179100884Y-193721900D01*
X179100884Y-193721900D02*
X179172312Y-193650471D01*
X179172312Y-193650471D02*
X179243741Y-193507614D01*
X179243741Y-193507614D02*
X179243741Y-193364757D01*
X179243741Y-193364757D02*
X179172312Y-193221900D01*
X179172312Y-193221900D02*
X179100884Y-193150471D01*
X179100884Y-193150471D02*
X178958026Y-193079042D01*
X178958026Y-193079042D02*
X178672312Y-193007614D01*
X178672312Y-193007614D02*
X178529455Y-192936185D01*
X178529455Y-192936185D02*
X178458026Y-192864757D01*
X178458026Y-192864757D02*
X178386598Y-192721900D01*
X178386598Y-192721900D02*
X178386598Y-192579042D01*
X178386598Y-192579042D02*
X178458026Y-192436185D01*
X178458026Y-192436185D02*
X178529455Y-192364757D01*
X178529455Y-192364757D02*
X178672312Y-192293328D01*
X178672312Y-192293328D02*
X179029455Y-192293328D01*
X179029455Y-192293328D02*
X179243741Y-192364757D01*
X179886597Y-193793328D02*
X179886597Y-192793328D01*
X179886597Y-192293328D02*
X179815169Y-192364757D01*
X179815169Y-192364757D02*
X179886597Y-192436185D01*
X179886597Y-192436185D02*
X179958026Y-192364757D01*
X179958026Y-192364757D02*
X179886597Y-192293328D01*
X179886597Y-192293328D02*
X179886597Y-192436185D01*
X180458026Y-192793328D02*
X181243741Y-192793328D01*
X181243741Y-192793328D02*
X180458026Y-193793328D01*
X180458026Y-193793328D02*
X181243741Y-193793328D01*
X182386598Y-193721900D02*
X182243741Y-193793328D01*
X182243741Y-193793328D02*
X181958027Y-193793328D01*
X181958027Y-193793328D02*
X181815169Y-193721900D01*
X181815169Y-193721900D02*
X181743741Y-193579042D01*
X181743741Y-193579042D02*
X181743741Y-193007614D01*
X181743741Y-193007614D02*
X181815169Y-192864757D01*
X181815169Y-192864757D02*
X181958027Y-192793328D01*
X181958027Y-192793328D02*
X182243741Y-192793328D01*
X182243741Y-192793328D02*
X182386598Y-192864757D01*
X182386598Y-192864757D02*
X182458027Y-193007614D01*
X182458027Y-193007614D02*
X182458027Y-193150471D01*
X182458027Y-193150471D02*
X181743741Y-193293328D01*
X183100883Y-193650471D02*
X183172312Y-193721900D01*
X183172312Y-193721900D02*
X183100883Y-193793328D01*
X183100883Y-193793328D02*
X183029455Y-193721900D01*
X183029455Y-193721900D02*
X183100883Y-193650471D01*
X183100883Y-193650471D02*
X183100883Y-193793328D01*
X183100883Y-192864757D02*
X183172312Y-192936185D01*
X183172312Y-192936185D02*
X183100883Y-193007614D01*
X183100883Y-193007614D02*
X183029455Y-192936185D01*
X183029455Y-192936185D02*
X183100883Y-192864757D01*
X183100883Y-192864757D02*
X183100883Y-193007614D01*
X184886598Y-193364757D02*
X185600884Y-193364757D01*
X184743741Y-193793328D02*
X185243741Y-192293328D01*
X185243741Y-192293328D02*
X185743741Y-193793328D01*
X186886598Y-192793328D02*
X186886598Y-193793328D01*
X186529455Y-192221900D02*
X186172312Y-193293328D01*
X186172312Y-193293328D02*
X187100883Y-193293328D01*
D10*
D11*
X263458026Y-196593328D02*
X263458026Y-195093328D01*
X264815170Y-196593328D02*
X264815170Y-195093328D01*
X264815170Y-196521900D02*
X264672312Y-196593328D01*
X264672312Y-196593328D02*
X264386598Y-196593328D01*
X264386598Y-196593328D02*
X264243741Y-196521900D01*
X264243741Y-196521900D02*
X264172312Y-196450471D01*
X264172312Y-196450471D02*
X264100884Y-196307614D01*
X264100884Y-196307614D02*
X264100884Y-195879042D01*
X264100884Y-195879042D02*
X264172312Y-195736185D01*
X264172312Y-195736185D02*
X264243741Y-195664757D01*
X264243741Y-195664757D02*
X264386598Y-195593328D01*
X264386598Y-195593328D02*
X264672312Y-195593328D01*
X264672312Y-195593328D02*
X264815170Y-195664757D01*
X265529455Y-196450471D02*
X265600884Y-196521900D01*
X265600884Y-196521900D02*
X265529455Y-196593328D01*
X265529455Y-196593328D02*
X265458027Y-196521900D01*
X265458027Y-196521900D02*
X265529455Y-196450471D01*
X265529455Y-196450471D02*
X265529455Y-196593328D01*
X265529455Y-195664757D02*
X265600884Y-195736185D01*
X265600884Y-195736185D02*
X265529455Y-195807614D01*
X265529455Y-195807614D02*
X265458027Y-195736185D01*
X265458027Y-195736185D02*
X265529455Y-195664757D01*
X265529455Y-195664757D02*
X265529455Y-195807614D01*
X268172313Y-196593328D02*
X267315170Y-196593328D01*
X267743741Y-196593328D02*
X267743741Y-195093328D01*
X267743741Y-195093328D02*
X267600884Y-195307614D01*
X267600884Y-195307614D02*
X267458027Y-195450471D01*
X267458027Y-195450471D02*
X267315170Y-195521900D01*
X269886598Y-195021900D02*
X268600884Y-196950471D01*
X271172313Y-196593328D02*
X270315170Y-196593328D01*
X270743741Y-196593328D02*
X270743741Y-195093328D01*
X270743741Y-195093328D02*
X270600884Y-195307614D01*
X270600884Y-195307614D02*
X270458027Y-195450471D01*
X270458027Y-195450471D02*
X270315170Y-195521900D01*
D10*
D11*
X177002200Y-187507200D02*
X285002200Y-187507200D01*
D10*
D13*
X178693928Y-188211638D02*
X179836785Y-188211638D01*
X179015357Y-190211638D02*
X179265357Y-188211638D01*
X180253452Y-190211638D02*
X180420119Y-188878304D01*
X180503452Y-188211638D02*
X180396309Y-188306876D01*
X180396309Y-188306876D02*
X180479643Y-188402114D01*
X180479643Y-188402114D02*
X180586786Y-188306876D01*
X180586786Y-188306876D02*
X180503452Y-188211638D01*
X180503452Y-188211638D02*
X180479643Y-188402114D01*
X181086786Y-188878304D02*
X181848690Y-188878304D01*
X181455833Y-188211638D02*
X181241548Y-189925923D01*
X181241548Y-189925923D02*
X181312976Y-190116400D01*
X181312976Y-190116400D02*
X181491548Y-190211638D01*
X181491548Y-190211638D02*
X181682024Y-190211638D01*
X182634405Y-190211638D02*
X182455833Y-190116400D01*
X182455833Y-190116400D02*
X182384405Y-189925923D01*
X182384405Y-189925923D02*
X182598690Y-188211638D01*
X184170119Y-190116400D02*
X183967738Y-190211638D01*
X183967738Y-190211638D02*
X183586785Y-190211638D01*
X183586785Y-190211638D02*
X183408214Y-190116400D01*
X183408214Y-190116400D02*
X183336785Y-189925923D01*
X183336785Y-189925923D02*
X183432024Y-189164019D01*
X183432024Y-189164019D02*
X183551071Y-188973542D01*
X183551071Y-188973542D02*
X183753452Y-188878304D01*
X183753452Y-188878304D02*
X184134404Y-188878304D01*
X184134404Y-188878304D02*
X184312976Y-188973542D01*
X184312976Y-188973542D02*
X184384404Y-189164019D01*
X184384404Y-189164019D02*
X184360595Y-189354495D01*
X184360595Y-189354495D02*
X183384404Y-189544971D01*
X185134405Y-190021161D02*
X185217738Y-190116400D01*
X185217738Y-190116400D02*
X185110595Y-190211638D01*
X185110595Y-190211638D02*
X185027262Y-190116400D01*
X185027262Y-190116400D02*
X185134405Y-190021161D01*
X185134405Y-190021161D02*
X185110595Y-190211638D01*
X185265357Y-188973542D02*
X185348690Y-189068780D01*
X185348690Y-189068780D02*
X185241548Y-189164019D01*
X185241548Y-189164019D02*
X185158214Y-189068780D01*
X185158214Y-189068780D02*
X185265357Y-188973542D01*
X185265357Y-188973542D02*
X185241548Y-189164019D01*
D10*
D11*
X178958026Y-185607614D02*
X178458026Y-185607614D01*
X178458026Y-186393328D02*
X178458026Y-184893328D01*
X178458026Y-184893328D02*
X179172312Y-184893328D01*
X179743740Y-186393328D02*
X179743740Y-185393328D01*
X179743740Y-184893328D02*
X179672312Y-184964757D01*
X179672312Y-184964757D02*
X179743740Y-185036185D01*
X179743740Y-185036185D02*
X179815169Y-184964757D01*
X179815169Y-184964757D02*
X179743740Y-184893328D01*
X179743740Y-184893328D02*
X179743740Y-185036185D01*
X180672312Y-186393328D02*
X180529455Y-186321900D01*
X180529455Y-186321900D02*
X180458026Y-186179042D01*
X180458026Y-186179042D02*
X180458026Y-184893328D01*
X181815169Y-186321900D02*
X181672312Y-186393328D01*
X181672312Y-186393328D02*
X181386598Y-186393328D01*
X181386598Y-186393328D02*
X181243740Y-186321900D01*
X181243740Y-186321900D02*
X181172312Y-186179042D01*
X181172312Y-186179042D02*
X181172312Y-185607614D01*
X181172312Y-185607614D02*
X181243740Y-185464757D01*
X181243740Y-185464757D02*
X181386598Y-185393328D01*
X181386598Y-185393328D02*
X181672312Y-185393328D01*
X181672312Y-185393328D02*
X181815169Y-185464757D01*
X181815169Y-185464757D02*
X181886598Y-185607614D01*
X181886598Y-185607614D02*
X181886598Y-185750471D01*
X181886598Y-185750471D02*
X181172312Y-185893328D01*
X182529454Y-186250471D02*
X182600883Y-186321900D01*
X182600883Y-186321900D02*
X182529454Y-186393328D01*
X182529454Y-186393328D02*
X182458026Y-186321900D01*
X182458026Y-186321900D02*
X182529454Y-186250471D01*
X182529454Y-186250471D02*
X182529454Y-186393328D01*
X182529454Y-185464757D02*
X182600883Y-185536185D01*
X182600883Y-185536185D02*
X182529454Y-185607614D01*
X182529454Y-185607614D02*
X182458026Y-185536185D01*
X182458026Y-185536185D02*
X182529454Y-185464757D01*
X182529454Y-185464757D02*
X182529454Y-185607614D01*
X184386597Y-185393328D02*
X184386597Y-186893328D01*
X184386597Y-185464757D02*
X184529455Y-185393328D01*
X184529455Y-185393328D02*
X184815169Y-185393328D01*
X184815169Y-185393328D02*
X184958026Y-185464757D01*
X184958026Y-185464757D02*
X185029455Y-185536185D01*
X185029455Y-185536185D02*
X185100883Y-185679042D01*
X185100883Y-185679042D02*
X185100883Y-186107614D01*
X185100883Y-186107614D02*
X185029455Y-186250471D01*
X185029455Y-186250471D02*
X184958026Y-186321900D01*
X184958026Y-186321900D02*
X184815169Y-186393328D01*
X184815169Y-186393328D02*
X184529455Y-186393328D01*
X184529455Y-186393328D02*
X184386597Y-186321900D01*
X185743740Y-186393328D02*
X185743740Y-185393328D01*
X185743740Y-185679042D02*
X185815169Y-185536185D01*
X185815169Y-185536185D02*
X185886598Y-185464757D01*
X185886598Y-185464757D02*
X186029455Y-185393328D01*
X186029455Y-185393328D02*
X186172312Y-185393328D01*
X186886597Y-186393328D02*
X186743740Y-186321900D01*
X186743740Y-186321900D02*
X186672311Y-186250471D01*
X186672311Y-186250471D02*
X186600883Y-186107614D01*
X186600883Y-186107614D02*
X186600883Y-185679042D01*
X186600883Y-185679042D02*
X186672311Y-185536185D01*
X186672311Y-185536185D02*
X186743740Y-185464757D01*
X186743740Y-185464757D02*
X186886597Y-185393328D01*
X186886597Y-185393328D02*
X187100883Y-185393328D01*
X187100883Y-185393328D02*
X187243740Y-185464757D01*
X187243740Y-185464757D02*
X187315169Y-185536185D01*
X187315169Y-185536185D02*
X187386597Y-185679042D01*
X187386597Y-185679042D02*
X187386597Y-186107614D01*
X187386597Y-186107614D02*
X187315169Y-186250471D01*
X187315169Y-186250471D02*
X187243740Y-186321900D01*
X187243740Y-186321900D02*
X187100883Y-186393328D01*
X187100883Y-186393328D02*
X186886597Y-186393328D01*
X188029454Y-185393328D02*
X188029454Y-186679042D01*
X188029454Y-186679042D02*
X187958026Y-186821900D01*
X187958026Y-186821900D02*
X187815169Y-186893328D01*
X187815169Y-186893328D02*
X187743740Y-186893328D01*
X188029454Y-184893328D02*
X187958026Y-184964757D01*
X187958026Y-184964757D02*
X188029454Y-185036185D01*
X188029454Y-185036185D02*
X188100883Y-184964757D01*
X188100883Y-184964757D02*
X188029454Y-184893328D01*
X188029454Y-184893328D02*
X188029454Y-185036185D01*
X188672312Y-185036185D02*
X188743740Y-184964757D01*
X188743740Y-184964757D02*
X188886598Y-184893328D01*
X188886598Y-184893328D02*
X189243740Y-184893328D01*
X189243740Y-184893328D02*
X189386598Y-184964757D01*
X189386598Y-184964757D02*
X189458026Y-185036185D01*
X189458026Y-185036185D02*
X189529455Y-185179042D01*
X189529455Y-185179042D02*
X189529455Y-185321900D01*
X189529455Y-185321900D02*
X189458026Y-185536185D01*
X189458026Y-185536185D02*
X188600883Y-186393328D01*
X188600883Y-186393328D02*
X189529455Y-186393328D01*
X190172311Y-186250471D02*
X190243740Y-186321900D01*
X190243740Y-186321900D02*
X190172311Y-186393328D01*
X190172311Y-186393328D02*
X190100883Y-186321900D01*
X190100883Y-186321900D02*
X190172311Y-186250471D01*
X190172311Y-186250471D02*
X190172311Y-186393328D01*
X190886597Y-186393328D02*
X190886597Y-184893328D01*
X191029455Y-185821900D02*
X191458026Y-186393328D01*
X191458026Y-185393328D02*
X190886597Y-185964757D01*
X192100883Y-186393328D02*
X192100883Y-185393328D01*
X192100883Y-184893328D02*
X192029455Y-184964757D01*
X192029455Y-184964757D02*
X192100883Y-185036185D01*
X192100883Y-185036185D02*
X192172312Y-184964757D01*
X192172312Y-184964757D02*
X192100883Y-184893328D01*
X192100883Y-184893328D02*
X192100883Y-185036185D01*
X193458027Y-186321900D02*
X193315169Y-186393328D01*
X193315169Y-186393328D02*
X193029455Y-186393328D01*
X193029455Y-186393328D02*
X192886598Y-186321900D01*
X192886598Y-186321900D02*
X192815169Y-186250471D01*
X192815169Y-186250471D02*
X192743741Y-186107614D01*
X192743741Y-186107614D02*
X192743741Y-185679042D01*
X192743741Y-185679042D02*
X192815169Y-185536185D01*
X192815169Y-185536185D02*
X192886598Y-185464757D01*
X192886598Y-185464757D02*
X193029455Y-185393328D01*
X193029455Y-185393328D02*
X193315169Y-185393328D01*
X193315169Y-185393328D02*
X193458027Y-185464757D01*
X194743741Y-186393328D02*
X194743741Y-185607614D01*
X194743741Y-185607614D02*
X194672312Y-185464757D01*
X194672312Y-185464757D02*
X194529455Y-185393328D01*
X194529455Y-185393328D02*
X194243741Y-185393328D01*
X194243741Y-185393328D02*
X194100883Y-185464757D01*
X194743741Y-186321900D02*
X194600883Y-186393328D01*
X194600883Y-186393328D02*
X194243741Y-186393328D01*
X194243741Y-186393328D02*
X194100883Y-186321900D01*
X194100883Y-186321900D02*
X194029455Y-186179042D01*
X194029455Y-186179042D02*
X194029455Y-186036185D01*
X194029455Y-186036185D02*
X194100883Y-185893328D01*
X194100883Y-185893328D02*
X194243741Y-185821900D01*
X194243741Y-185821900D02*
X194600883Y-185821900D01*
X194600883Y-185821900D02*
X194743741Y-185750471D01*
X196100884Y-186393328D02*
X196100884Y-184893328D01*
X196100884Y-186321900D02*
X195958026Y-186393328D01*
X195958026Y-186393328D02*
X195672312Y-186393328D01*
X195672312Y-186393328D02*
X195529455Y-186321900D01*
X195529455Y-186321900D02*
X195458026Y-186250471D01*
X195458026Y-186250471D02*
X195386598Y-186107614D01*
X195386598Y-186107614D02*
X195386598Y-185679042D01*
X195386598Y-185679042D02*
X195458026Y-185536185D01*
X195458026Y-185536185D02*
X195529455Y-185464757D01*
X195529455Y-185464757D02*
X195672312Y-185393328D01*
X195672312Y-185393328D02*
X195958026Y-185393328D01*
X195958026Y-185393328D02*
X196100884Y-185464757D01*
X196458027Y-186536185D02*
X197600884Y-186536185D01*
X197958026Y-185393328D02*
X197958026Y-186893328D01*
X197958026Y-185464757D02*
X198100884Y-185393328D01*
X198100884Y-185393328D02*
X198386598Y-185393328D01*
X198386598Y-185393328D02*
X198529455Y-185464757D01*
X198529455Y-185464757D02*
X198600884Y-185536185D01*
X198600884Y-185536185D02*
X198672312Y-185679042D01*
X198672312Y-185679042D02*
X198672312Y-186107614D01*
X198672312Y-186107614D02*
X198600884Y-186250471D01*
X198600884Y-186250471D02*
X198529455Y-186321900D01*
X198529455Y-186321900D02*
X198386598Y-186393328D01*
X198386598Y-186393328D02*
X198100884Y-186393328D01*
X198100884Y-186393328D02*
X197958026Y-186321900D01*
X199958027Y-186321900D02*
X199815169Y-186393328D01*
X199815169Y-186393328D02*
X199529455Y-186393328D01*
X199529455Y-186393328D02*
X199386598Y-186321900D01*
X199386598Y-186321900D02*
X199315169Y-186250471D01*
X199315169Y-186250471D02*
X199243741Y-186107614D01*
X199243741Y-186107614D02*
X199243741Y-185679042D01*
X199243741Y-185679042D02*
X199315169Y-185536185D01*
X199315169Y-185536185D02*
X199386598Y-185464757D01*
X199386598Y-185464757D02*
X199529455Y-185393328D01*
X199529455Y-185393328D02*
X199815169Y-185393328D01*
X199815169Y-185393328D02*
X199958027Y-185464757D01*
X200600883Y-186393328D02*
X200600883Y-184893328D01*
X200600883Y-185464757D02*
X200743741Y-185393328D01*
X200743741Y-185393328D02*
X201029455Y-185393328D01*
X201029455Y-185393328D02*
X201172312Y-185464757D01*
X201172312Y-185464757D02*
X201243741Y-185536185D01*
X201243741Y-185536185D02*
X201315169Y-185679042D01*
X201315169Y-185679042D02*
X201315169Y-186107614D01*
X201315169Y-186107614D02*
X201243741Y-186250471D01*
X201243741Y-186250471D02*
X201172312Y-186321900D01*
X201172312Y-186321900D02*
X201029455Y-186393328D01*
X201029455Y-186393328D02*
X200743741Y-186393328D01*
X200743741Y-186393328D02*
X200600883Y-186321900D01*
D10*
D11*
X177002200Y-181507200D02*
X285002200Y-181507200D01*
D10*
D11*
X178386598Y-183621900D02*
X178600884Y-183693328D01*
X178600884Y-183693328D02*
X178958026Y-183693328D01*
X178958026Y-183693328D02*
X179100884Y-183621900D01*
X179100884Y-183621900D02*
X179172312Y-183550471D01*
X179172312Y-183550471D02*
X179243741Y-183407614D01*
X179243741Y-183407614D02*
X179243741Y-183264757D01*
X179243741Y-183264757D02*
X179172312Y-183121900D01*
X179172312Y-183121900D02*
X179100884Y-183050471D01*
X179100884Y-183050471D02*
X178958026Y-182979042D01*
X178958026Y-182979042D02*
X178672312Y-182907614D01*
X178672312Y-182907614D02*
X178529455Y-182836185D01*
X178529455Y-182836185D02*
X178458026Y-182764757D01*
X178458026Y-182764757D02*
X178386598Y-182621900D01*
X178386598Y-182621900D02*
X178386598Y-182479042D01*
X178386598Y-182479042D02*
X178458026Y-182336185D01*
X178458026Y-182336185D02*
X178529455Y-182264757D01*
X178529455Y-182264757D02*
X178672312Y-182193328D01*
X178672312Y-182193328D02*
X179029455Y-182193328D01*
X179029455Y-182193328D02*
X179243741Y-182264757D01*
X179886597Y-183693328D02*
X179886597Y-182193328D01*
X180529455Y-183693328D02*
X180529455Y-182907614D01*
X180529455Y-182907614D02*
X180458026Y-182764757D01*
X180458026Y-182764757D02*
X180315169Y-182693328D01*
X180315169Y-182693328D02*
X180100883Y-182693328D01*
X180100883Y-182693328D02*
X179958026Y-182764757D01*
X179958026Y-182764757D02*
X179886597Y-182836185D01*
X181815169Y-183621900D02*
X181672312Y-183693328D01*
X181672312Y-183693328D02*
X181386598Y-183693328D01*
X181386598Y-183693328D02*
X181243740Y-183621900D01*
X181243740Y-183621900D02*
X181172312Y-183479042D01*
X181172312Y-183479042D02*
X181172312Y-182907614D01*
X181172312Y-182907614D02*
X181243740Y-182764757D01*
X181243740Y-182764757D02*
X181386598Y-182693328D01*
X181386598Y-182693328D02*
X181672312Y-182693328D01*
X181672312Y-182693328D02*
X181815169Y-182764757D01*
X181815169Y-182764757D02*
X181886598Y-182907614D01*
X181886598Y-182907614D02*
X181886598Y-183050471D01*
X181886598Y-183050471D02*
X181172312Y-183193328D01*
X183100883Y-183621900D02*
X182958026Y-183693328D01*
X182958026Y-183693328D02*
X182672312Y-183693328D01*
X182672312Y-183693328D02*
X182529454Y-183621900D01*
X182529454Y-183621900D02*
X182458026Y-183479042D01*
X182458026Y-183479042D02*
X182458026Y-182907614D01*
X182458026Y-182907614D02*
X182529454Y-182764757D01*
X182529454Y-182764757D02*
X182672312Y-182693328D01*
X182672312Y-182693328D02*
X182958026Y-182693328D01*
X182958026Y-182693328D02*
X183100883Y-182764757D01*
X183100883Y-182764757D02*
X183172312Y-182907614D01*
X183172312Y-182907614D02*
X183172312Y-183050471D01*
X183172312Y-183050471D02*
X182458026Y-183193328D01*
X183600883Y-182693328D02*
X184172311Y-182693328D01*
X183815168Y-182193328D02*
X183815168Y-183479042D01*
X183815168Y-183479042D02*
X183886597Y-183621900D01*
X183886597Y-183621900D02*
X184029454Y-183693328D01*
X184029454Y-183693328D02*
X184172311Y-183693328D01*
X184672311Y-183550471D02*
X184743740Y-183621900D01*
X184743740Y-183621900D02*
X184672311Y-183693328D01*
X184672311Y-183693328D02*
X184600883Y-183621900D01*
X184600883Y-183621900D02*
X184672311Y-183550471D01*
X184672311Y-183550471D02*
X184672311Y-183693328D01*
X184672311Y-182764757D02*
X184743740Y-182836185D01*
X184743740Y-182836185D02*
X184672311Y-182907614D01*
X184672311Y-182907614D02*
X184600883Y-182836185D01*
X184600883Y-182836185D02*
X184672311Y-182764757D01*
X184672311Y-182764757D02*
X184672311Y-182907614D01*
D10*
D11*
X197002200Y-191507200D02*
X197002200Y-194507200D01*
D10*
D11*
X261002200Y-191507200D02*
X261002200Y-198007200D01*
D14*
%TO.P,R6,1*%
%TO.N,+3V3*%
X177371250Y-83008750D03*
%TO.P,R6,2*%
%TO.N,Net-(J5-Pin_1)*%
X177371250Y-84203750D03*
%TD*%
%TO.P,R9,1*%
%TO.N,+48V*%
X147100000Y-93805000D03*
%TO.P,R9,2*%
%TO.N,Net-(C1-Pad1)*%
X147100000Y-95000000D03*
%TD*%
D15*
%TO.P,R17,1*%
%TO.N,Net-(C19-Pad2)*%
X168005000Y-103600000D03*
%TO.P,R17,2*%
%TO.N,Net-(J6-Pin_2)*%
X169200000Y-103600000D03*
%TD*%
D16*
%TO.P,C10,1*%
%TO.N,Net-(U2A-SOUT1)*%
X163400000Y-103400000D03*
%TO.P,C10,2*%
%TO.N,Net-(U2A-SCAP1)*%
X163400000Y-104215000D03*
%TD*%
D17*
%TO.P,R13,1*%
%TO.N,Net-(U2A-SOUT1)*%
X160900000Y-104297500D03*
%TO.P,R13,2*%
%TO.N,Net-(D1-A)*%
X160900000Y-103102500D03*
%TD*%
D16*
%TO.P,C4,1*%
%TO.N,+3V3*%
X166000000Y-115192500D03*
%TO.P,C4,2*%
%TO.N,GND*%
X166000000Y-116007500D03*
%TD*%
D18*
%TO.P,C1,1*%
%TO.N,Net-(C1-Pad1)*%
X146660000Y-97500000D03*
%TO.P,C1,2*%
%TO.N,GND*%
X147475000Y-97500000D03*
%TD*%
%TO.P,C16,1*%
%TO.N,-15V*%
X157400000Y-115000000D03*
%TO.P,C16,2*%
%TO.N,GND*%
X158215000Y-115000000D03*
%TD*%
D19*
%TO.P,J7,1,Pin_1*%
%TO.N,-15V*%
X160600000Y-87500000D03*
D20*
%TO.P,J7,2,Pin_2*%
%TO.N,+15V*%
X165600000Y-87500000D03*
%TD*%
D21*
%TO.P,D3,1,K*%
%TO.N,+15V*%
X157900000Y-93300000D03*
D22*
%TO.P,D3,2,A*%
%TO.N,Net-(D3-A)*%
X157900000Y-100920000D03*
%TD*%
D14*
%TO.P,R10,1*%
%TO.N,Net-(U2A-SCAP2)*%
X152900000Y-98500000D03*
%TO.P,R10,2*%
%TO.N,Net-(D1-A)*%
X152900000Y-99695000D03*
%TD*%
D16*
%TO.P,C12,1*%
%TO.N,Net-(D3-A)*%
X148800000Y-103160000D03*
%TO.P,C12,2*%
%TO.N,GND*%
X148800000Y-103975000D03*
%TD*%
D14*
%TO.P,R14,1*%
%TO.N,Net-(D3-A)*%
X147500000Y-105602500D03*
%TO.P,R14,2*%
%TO.N,GND*%
X147500000Y-106797500D03*
%TD*%
%TO.P,R5,1*%
%TO.N,Net-(J5-Pin_2)*%
X176091250Y-91708750D03*
%TO.P,R5,2*%
%TO.N,GND*%
X176091250Y-92903750D03*
%TD*%
D23*
%TO.P,J2,1*%
%TO.N,Net-(C2-Pad1)*%
X137420000Y-105255000D03*
%TO.P,J2,2*%
%TO.N,Net-(C1-Pad1)*%
X137420000Y-93055000D03*
%TO.P,J2,3*%
%TO.N,GND*%
X137420000Y-99155000D03*
%TO.P,J2,G*%
X130120000Y-99155000D03*
%TO.P,J2,S*%
%TO.N,Net-(C2-Pad1)*%
X130120000Y-93955000D03*
%TO.P,J2,T*%
%TO.N,Net-(C1-Pad1)*%
X144020000Y-89955000D03*
%TD*%
D16*
%TO.P,C11,1*%
%TO.N,Net-(D1-A)*%
X151000000Y-103085000D03*
%TO.P,C11,2*%
%TO.N,GND*%
X151000000Y-103900000D03*
%TD*%
D18*
%TO.P,C2,1*%
%TO.N,Net-(C2-Pad1)*%
X146492500Y-100800000D03*
%TO.P,C2,2*%
%TO.N,GND*%
X147307500Y-100800000D03*
%TD*%
D14*
%TO.P,R7,1*%
%TO.N,Net-(U2B-GPO3)*%
X177100000Y-91702500D03*
%TO.P,R7,2*%
%TO.N,GND*%
X177100000Y-92897500D03*
%TD*%
%TO.P,R15,1*%
%TO.N,Net-(D1-A)*%
X149800000Y-105600000D03*
%TO.P,R15,2*%
%TO.N,GND*%
X149800000Y-106795000D03*
%TD*%
D17*
%TO.P,R18,1*%
%TO.N,Net-(J6-Pin_2)*%
X170700000Y-101597500D03*
%TO.P,R18,2*%
%TO.N,Net-(J6-Pin_1)*%
X170700000Y-100402500D03*
%TD*%
D14*
%TO.P,R3,1*%
%TO.N,Net-(J4-Pin_2)*%
X175091250Y-91706250D03*
%TO.P,R3,2*%
%TO.N,GND*%
X175091250Y-92901250D03*
%TD*%
%TO.P,R4,1*%
%TO.N,+3V3*%
X174921250Y-82988750D03*
%TO.P,R4,2*%
%TO.N,Net-(J4-Pin_1)*%
X174921250Y-84183750D03*
%TD*%
D18*
%TO.P,C19,1*%
%TO.N,out-*%
X164960000Y-103500000D03*
%TO.P,C19,2*%
%TO.N,Net-(C19-Pad2)*%
X165775000Y-103500000D03*
%TD*%
D24*
%TO.P,J3,1,Pin_1*%
%TO.N,Net-(J3-Pin_1)*%
X171491250Y-86751250D03*
D25*
%TO.P,J3,2,Pin_2*%
%TO.N,Net-(J3-Pin_2)*%
X171491250Y-89291250D03*
%TD*%
D26*
%TO.P,C17,1*%
%TO.N,+15V*%
X153600000Y-114900000D03*
%TO.P,C17,2*%
%TO.N,-15V*%
X152785000Y-114900000D03*
%TD*%
D21*
%TO.P,D1,1,K*%
%TO.N,+15V*%
X160560000Y-93240000D03*
D22*
%TO.P,D1,2,A*%
%TO.N,Net-(D1-A)*%
X160560000Y-100860000D03*
%TD*%
D14*
%TO.P,R11,1*%
%TO.N,Net-(C7-Pad1)*%
X150500000Y-98710000D03*
%TO.P,R11,2*%
%TO.N,Net-(D3-A)*%
X150500000Y-99905000D03*
%TD*%
D17*
%TO.P,R8,1*%
%TO.N,Net-(C2-Pad1)*%
X149400000Y-95000000D03*
%TO.P,R8,2*%
%TO.N,+48V*%
X149400000Y-93805000D03*
%TD*%
D19*
%TO.P,J6,1,Pin_1*%
%TO.N,Net-(J6-Pin_1)*%
X176900000Y-98600000D03*
D20*
%TO.P,J6,2,Pin_2*%
%TO.N,Net-(J6-Pin_2)*%
X176900000Y-103600000D03*
%TD*%
D26*
%TO.P,C13,1*%
%TO.N,-15V*%
X162000000Y-115000000D03*
%TO.P,C13,2*%
%TO.N,GND*%
X161185000Y-115000000D03*
%TD*%
D27*
%TO.P,J1,1,Pin_1*%
%TO.N,CS*%
X169860000Y-113810000D03*
D28*
%TO.P,J1,2,Pin_2*%
%TO.N,SCLK*%
X171130000Y-113810000D03*
%TO.P,J1,3,Pin_3*%
%TO.N,DIN*%
X172400000Y-113810000D03*
%TO.P,J1,4,Pin_4*%
%TO.N,DOUT*%
X173670000Y-113810000D03*
%TO.P,J1,5,Pin_5*%
%TO.N,RST*%
X174940000Y-113810000D03*
%TO.P,J1,6,Pin_6*%
%TO.N,BSY*%
X176210000Y-113810000D03*
%TD*%
D14*
%TO.P,R1,1*%
%TO.N,Net-(J3-Pin_2)*%
X174091250Y-91708750D03*
%TO.P,R1,2*%
%TO.N,GND*%
X174091250Y-92903750D03*
%TD*%
D29*
%TO.P,C7,1*%
%TO.N,Net-(C7-Pad1)*%
X150500000Y-97307500D03*
%TO.P,C7,2*%
%TO.N,Net-(C2-Pad1)*%
X150500000Y-96492500D03*
%TD*%
D15*
%TO.P,R16,1*%
%TO.N,Net-(C18-Pad2)*%
X169005000Y-94900000D03*
%TO.P,R16,2*%
%TO.N,Net-(J6-Pin_1)*%
X170200000Y-94900000D03*
%TD*%
D18*
%TO.P,C8,1*%
%TO.N,+15V*%
X159360000Y-115000000D03*
%TO.P,C8,2*%
%TO.N,GND*%
X160175000Y-115000000D03*
%TD*%
D21*
%TO.P,D4,1,K*%
%TO.N,Net-(D3-A)*%
X155160000Y-100940000D03*
D22*
%TO.P,D4,2,A*%
%TO.N,-15V*%
X155160000Y-93320000D03*
%TD*%
D24*
%TO.P,J4,1,Pin_1*%
%TO.N,Net-(J4-Pin_1)*%
X175141250Y-86751250D03*
D25*
%TO.P,J4,2,Pin_2*%
%TO.N,Net-(J4-Pin_2)*%
X175141250Y-89291250D03*
%TD*%
D19*
%TO.P,J8,1,Pin_1*%
%TO.N,+48V*%
X149400000Y-87500000D03*
D20*
%TO.P,J8,2,Pin_2*%
%TO.N,GND*%
X154400000Y-87500000D03*
%TD*%
D30*
%TO.P,U2,1,NC*%
%TO.N,unconnected-(U2A-NC-Pad1)*%
X158380000Y-108015000D03*
%TO.P,U2,2,NC*%
%TO.N,unconnected-(U2A-NC-Pad2)*%
X158380000Y-108665000D03*
%TO.P,U2,3,Rg1*%
%TO.N,Net-(U2A-Rg1)*%
X158380000Y-109315000D03*
%TO.P,U2,4,IN1*%
%TO.N,out+*%
X158380000Y-109965000D03*
%TO.P,U2,5,IN2*%
%TO.N,out-*%
X158380000Y-110615000D03*
%TO.P,U2,6,Rg2*%
%TO.N,Net-(U2A-Rg2)*%
X158380000Y-111265000D03*
%TO.P,U2,7,NC*%
%TO.N,unconnected-(U2A-NC-Pad7)*%
X158380000Y-111915000D03*
%TO.P,U2,8,NC*%
%TO.N,unconnected-(U2A-NC-Pad8)*%
X158380000Y-112565000D03*
D31*
%TO.P,U2,9,VCC*%
%TO.N,+15V*%
X159555000Y-113740000D03*
%TO.P,U2,10,AGND*%
%TO.N,GND*%
X160205000Y-113740000D03*
%TO.P,U2,11,VEE*%
%TO.N,-15V*%
X160855000Y-113740000D03*
%TO.P,U2,12,DGND*%
%TO.N,GND*%
X161505000Y-113740000D03*
%TO.P,U2,13,VDD*%
%TO.N,+3V3*%
X162155000Y-113740000D03*
%TO.P,U2,14,TRC*%
X162805000Y-113740000D03*
%TO.P,U2,15,~{RST}*%
%TO.N,RST*%
X163455000Y-113740000D03*
%TO.P,U2,16,~{CS}*%
%TO.N,CS*%
X164105000Y-113740000D03*
D30*
%TO.P,U2,17,SCLK*%
%TO.N,SCLK*%
X165280000Y-112565000D03*
%TO.P,U2,18,DIN*%
%TO.N,DIN*%
X165280000Y-111915000D03*
%TO.P,U2,19,DOUT*%
%TO.N,DOUT*%
X165280000Y-111265000D03*
%TO.P,U2,20,DGND*%
%TO.N,GND*%
X165280000Y-110615000D03*
%TO.P,U2,21,VDD*%
%TO.N,+3V3*%
X165280000Y-109965000D03*
%TO.P,U2,22,BSY*%
%TO.N,BSY*%
X165280000Y-109315000D03*
%TO.P,U2,23,GPO0*%
%TO.N,Net-(J3-Pin_2)*%
X165280000Y-108665000D03*
%TO.P,U2,24,GPO1*%
%TO.N,Net-(J4-Pin_2)*%
X165280000Y-108015000D03*
D31*
%TO.P,U2,25,GPO2*%
%TO.N,Net-(J5-Pin_2)*%
X164105000Y-106840000D03*
%TO.P,U2,26,GPO3*%
%TO.N,Net-(U2B-GPO3)*%
X163455000Y-106840000D03*
%TO.P,U2,27,NC*%
%TO.N,unconnected-(U2A-NC-Pad27)*%
X162805000Y-106840000D03*
%TO.P,U2,28,AGND*%
%TO.N,GND*%
X162155000Y-106840000D03*
%TO.P,U2,29,SCAP1*%
%TO.N,Net-(U2A-SCAP1)*%
X161505000Y-106840000D03*
%TO.P,U2,30,SCAP2*%
%TO.N,Net-(U2A-SCAP2)*%
X160855000Y-106840000D03*
%TO.P,U2,31,SOUT1*%
%TO.N,Net-(U2A-SOUT1)*%
X160205000Y-106840000D03*
%TO.P,U2,32,SOUT2*%
%TO.N,Net-(U2A-SOUT2)*%
X159555000Y-106840000D03*
D32*
%TO.P,U2,33,PAD*%
%TO.N,-15V*%
X161830000Y-110290000D03*
%TD*%
D16*
%TO.P,C9,1*%
%TO.N,Net-(U2A-SCAP2)*%
X155600000Y-103725000D03*
%TO.P,C9,2*%
%TO.N,Net-(U2A-SOUT2)*%
X155600000Y-104540000D03*
%TD*%
D33*
%TO.P,U3,1*%
%TO.N,N/C*%
X154250000Y-111310000D03*
%TO.P,U3,2,2*%
%TO.N,out-*%
X154250000Y-110660000D03*
%TO.P,U3,3,1*%
%TO.N,out+*%
X154250000Y-110010000D03*
%TO.P,U3,4*%
%TO.N,N/C*%
X154250000Y-109360000D03*
D34*
%TO.P,U3,5*%
X153275000Y-108385000D03*
%TO.P,U3,6,Rg1*%
%TO.N,Net-(U2A-Rg1)*%
X152625000Y-108385000D03*
%TO.P,U3,7,IN1*%
%TO.N,Net-(D1-A)*%
X151975000Y-108385000D03*
%TO.P,U3,8*%
%TO.N,N/C*%
X151325000Y-108385000D03*
D33*
%TO.P,U3,9*%
X150350000Y-109360000D03*
%TO.P,U3,10,IN2*%
%TO.N,Net-(D3-A)*%
X150350000Y-110010000D03*
%TO.P,U3,11*%
%TO.N,N/C*%
X150350000Y-110660000D03*
%TO.P,U3,12,V-*%
%TO.N,-15V*%
X150350000Y-111310000D03*
D34*
%TO.P,U3,13,V+*%
%TO.N,+15V*%
X151325000Y-112285000D03*
%TO.P,U3,14*%
%TO.N,N/C*%
X151975000Y-112285000D03*
%TO.P,U3,15,Rg2*%
%TO.N,Net-(U2A-Rg2)*%
X152625000Y-112285000D03*
%TO.P,U3,16*%
%TO.N,N/C*%
X153275000Y-112285000D03*
D35*
%TO.P,U3,17,V-*%
%TO.N,-15V*%
X153050000Y-111085000D03*
X153050000Y-110335000D03*
X153050000Y-109585000D03*
X152300000Y-111085000D03*
X152300000Y-110335000D03*
D36*
X152300000Y-110335000D03*
D35*
X152300000Y-109585000D03*
X151550000Y-111085000D03*
X151550000Y-110335000D03*
X151550000Y-109585000D03*
%TD*%
D16*
%TO.P,C3,1*%
%TO.N,Net-(C1-Pad1)*%
X146500000Y-98692500D03*
%TO.P,C3,2*%
%TO.N,Net-(C2-Pad1)*%
X146500000Y-99507500D03*
%TD*%
D26*
%TO.P,C14,1*%
%TO.N,Net-(D1-A)*%
X151975000Y-101500000D03*
%TO.P,C14,2*%
%TO.N,Net-(D3-A)*%
X151160000Y-101500000D03*
%TD*%
D18*
%TO.P,C18,1*%
%TO.N,out+*%
X166360000Y-94900000D03*
%TO.P,C18,2*%
%TO.N,Net-(C18-Pad2)*%
X167175000Y-94900000D03*
%TD*%
%TO.P,C15,1*%
%TO.N,+15V*%
X155160000Y-114900000D03*
%TO.P,C15,2*%
%TO.N,GND*%
X155975000Y-114900000D03*
%TD*%
D17*
%TO.P,R12,1*%
%TO.N,Net-(U2A-SCAP2)*%
X158000000Y-104497500D03*
%TO.P,R12,2*%
%TO.N,Net-(D3-A)*%
X158000000Y-103302500D03*
%TD*%
D29*
%TO.P,C6,1*%
%TO.N,Net-(U2A-SCAP2)*%
X152830000Y-97097500D03*
%TO.P,C6,2*%
%TO.N,Net-(C1-Pad1)*%
X152830000Y-96282500D03*
%TD*%
D21*
%TO.P,D2,1,K*%
%TO.N,Net-(D1-A)*%
X163200000Y-100900000D03*
D22*
%TO.P,D2,2,A*%
%TO.N,-15V*%
X163200000Y-93280000D03*
%TD*%
D24*
%TO.P,J5,1,Pin_1*%
%TO.N,Net-(J5-Pin_1)*%
X178821250Y-86751250D03*
D25*
%TO.P,J5,2,Pin_2*%
%TO.N,Net-(J5-Pin_2)*%
X178821250Y-89291250D03*
%TD*%
D16*
%TO.P,C5,1*%
%TO.N,+3V3*%
X163900000Y-115200000D03*
%TO.P,C5,2*%
%TO.N,GND*%
X163900000Y-116015000D03*
%TD*%
D14*
%TO.P,R2,1*%
%TO.N,+3V3*%
X172401250Y-83078750D03*
%TO.P,R2,2*%
%TO.N,Net-(J3-Pin_1)*%
X172401250Y-84273750D03*
%TD*%
D16*
%TO.P,C20,1*%
%TO.N,Net-(J6-Pin_1)*%
X172000000Y-100592500D03*
%TO.P,C20,2*%
%TO.N,Net-(J6-Pin_2)*%
X172000000Y-101407500D03*
%TD*%
D37*
%TO.N,Net-(U2A-SCAP2)*%
X154200000Y-97500000D03*
%TO.N,-15V*%
X157100000Y-113000000D03*
%TO.N,+15V*%
X159357500Y-114900000D03*
X157000000Y-113800000D03*
%TO.N,Net-(D3-A)*%
X155600000Y-102700000D03*
%TO.N,GND*%
X171575735Y-110024265D03*
X148600000Y-104600000D03*
X161500000Y-113800000D03*
X177000000Y-110400000D03*
%TO.N,Net-(J4-Pin_2)*%
X167000000Y-107900000D03*
%TO.N,Net-(J5-Pin_2)*%
X168500000Y-105200000D03*
%TO.N,out+*%
X156100000Y-109500000D03*
X165200000Y-99200000D03*
%TO.N,out-*%
X165100000Y-100100000D03*
X156078542Y-111000000D03*
%TO.N,Net-(U2B-GPO3)*%
X169012149Y-104585421D03*
X178300000Y-91800000D03*
%TO.N,+3V3*%
X162805000Y-113740000D03*
X165300000Y-109990000D03*
X167900000Y-94100000D03*
%TO.N,Net-(C1-Pad1)*%
X152800000Y-95100000D03*
X145600000Y-98600000D03*
X147950000Y-96450000D03*
%TO.N,Net-(U2A-SCAP2)*%
X160826765Y-105221765D03*
X158100000Y-105600000D03*
%TD*%
D38*
%TO.N,Net-(D1-A)*%
X152800000Y-103100000D02*
X152800000Y-105600000D01*
X151000000Y-103085000D02*
X152785000Y-103085000D01*
X152800000Y-102375000D02*
X152800000Y-103100000D01*
X152785000Y-103085000D02*
X152800000Y-103100000D01*
%TO.N,Net-(J5-Pin_2)*%
X176091250Y-91508750D02*
X176091250Y-91708750D01*
X176600000Y-91000000D02*
X176091250Y-91508750D01*
X177112500Y-91000000D02*
X176600000Y-91000000D01*
X178821250Y-89291250D02*
X177112500Y-91000000D01*
%TO.N,Net-(U2A-SCAP2)*%
X154200000Y-97500000D02*
X153232500Y-97500000D01*
X153232500Y-97500000D02*
X152830000Y-97097500D01*
%TO.N,-15V*%
X158250000Y-113950000D02*
X161830000Y-110370001D01*
X161830000Y-110370001D02*
X161830000Y-110290000D01*
X158250000Y-113950000D02*
X157300000Y-113000000D01*
X157300000Y-113000000D02*
X157100000Y-113000000D01*
X151325000Y-111310000D02*
X150350000Y-111310000D01*
X157400000Y-114800001D02*
X158250000Y-113950000D01*
X160855000Y-113740000D02*
X160855000Y-111265000D01*
X151550000Y-111085000D02*
X151325000Y-111310000D01*
X162000000Y-115000000D02*
X162000000Y-114800001D01*
X160855000Y-114029386D02*
X160855000Y-113740000D01*
X152785000Y-114900000D02*
X150350000Y-112465000D01*
X161664999Y-114465000D02*
X161290614Y-114465000D01*
X157400000Y-115000000D02*
X157400000Y-114800001D01*
X161290614Y-114465000D02*
X160855000Y-114029386D01*
X162000000Y-114800001D02*
X161664999Y-114465000D01*
X160855000Y-111265000D02*
X161830000Y-110290000D01*
X150350000Y-112465000D02*
X150350000Y-111310000D01*
%TO.N,+15V*%
X157000000Y-113800000D02*
X156060001Y-113800000D01*
X153600000Y-114700001D02*
X153600000Y-114900000D01*
X165600000Y-88200000D02*
X160560000Y-93240000D01*
X151325000Y-112285000D02*
X151325000Y-112709999D01*
X159360000Y-115000000D02*
X159360000Y-114902500D01*
X160500000Y-93300000D02*
X160560000Y-93240000D01*
X151325000Y-112709999D02*
X153015001Y-114400000D01*
X159555000Y-113740000D02*
X159555000Y-114805000D01*
X156060001Y-113800000D02*
X155160000Y-114700001D01*
X159360000Y-114902500D02*
X159357500Y-114900000D01*
X153015001Y-114400000D02*
X153299999Y-114400000D01*
X155160000Y-114700001D02*
X155160000Y-114900000D01*
X153299999Y-114400000D02*
X153600000Y-114700001D01*
X159555000Y-114805000D02*
X159360000Y-115000000D01*
X157900000Y-93300000D02*
X160500000Y-93300000D01*
X155160000Y-114900000D02*
X153600000Y-114900000D01*
X165600000Y-87500000D02*
X165600000Y-88200000D01*
%TO.N,Net-(D3-A)*%
X147497500Y-105600000D02*
X146500000Y-105600000D01*
X150500000Y-99905000D02*
X149654142Y-99905000D01*
X149654142Y-99905000D02*
X147859142Y-101700000D01*
X147500000Y-105602500D02*
X147497500Y-105600000D01*
X152600000Y-94400000D02*
X152200000Y-94800000D01*
X146710000Y-110010000D02*
X150350000Y-110010000D01*
X156202500Y-103302500D02*
X155600000Y-102700000D01*
X148800000Y-102640858D02*
X147859142Y-101700000D01*
X146500000Y-103200000D02*
X146500000Y-109800000D01*
X146500000Y-101700000D02*
X146500000Y-103200000D01*
X155160000Y-100940000D02*
X155160000Y-96611471D01*
X155180000Y-100920000D02*
X155160000Y-100940000D01*
X152200000Y-94800000D02*
X152200000Y-98205000D01*
X152948529Y-94400000D02*
X152600000Y-94400000D01*
X150460000Y-101500000D02*
X148800000Y-103160000D01*
X152200000Y-98205000D02*
X150500000Y-99905000D01*
X157900000Y-100920000D02*
X155180000Y-100920000D01*
X158000000Y-103302500D02*
X156202500Y-103302500D01*
X155160000Y-96611471D02*
X152948529Y-94400000D01*
X148800000Y-103160000D02*
X148800000Y-102640858D01*
X146500000Y-109800000D02*
X146710000Y-110010000D01*
X151160000Y-101500000D02*
X150460000Y-101500000D01*
X147859142Y-101700000D02*
X146500000Y-101700000D01*
%TO.N,GND*%
X137395000Y-88205000D02*
X134500000Y-91100000D01*
X150000000Y-103975000D02*
X150925000Y-103975000D01*
X162000001Y-116015000D02*
X163900000Y-116015000D01*
X149600000Y-104600000D02*
X148600000Y-104600000D01*
X178900000Y-110500000D02*
X178900000Y-112251371D01*
X150925000Y-103975000D02*
X151000000Y-103900000D01*
X160175000Y-115225000D02*
X160175000Y-115000000D01*
X156575000Y-115500000D02*
X158715000Y-115500000D01*
X174093750Y-92901250D02*
X174091250Y-92903750D01*
X155975000Y-114900000D02*
X156575000Y-115500000D01*
X158215000Y-115000000D02*
X158715000Y-115500000D01*
X176091250Y-92903750D02*
X175093750Y-92903750D01*
X161185000Y-115199999D02*
X162000001Y-116015000D01*
X178800000Y-110400000D02*
X178900000Y-110500000D01*
X149700000Y-104700000D02*
X149600000Y-104600000D01*
X130120000Y-99155000D02*
X137420000Y-99155000D01*
X147307500Y-97667500D02*
X147475000Y-97500000D01*
X162155000Y-106415001D02*
X164300000Y-104270001D01*
X160175000Y-115000000D02*
X160205000Y-114970000D01*
X149900000Y-104700000D02*
X149700000Y-104700000D01*
X149305000Y-106300000D02*
X149800000Y-106795000D01*
X176097500Y-92897500D02*
X176091250Y-92903750D01*
X156800000Y-94400000D02*
X156800000Y-89900000D01*
X145800000Y-95754044D02*
X145800000Y-89260126D01*
X177100000Y-92897500D02*
X178900000Y-94697500D01*
X159000000Y-94400000D02*
X156800000Y-94400000D01*
X166000000Y-116007500D02*
X163907500Y-116007500D01*
X150000000Y-104600000D02*
X149900000Y-104700000D01*
X170985000Y-110615000D02*
X171575735Y-110024265D01*
X147475000Y-97429044D02*
X145800000Y-95754044D01*
X134500000Y-96235000D02*
X137420000Y-99155000D01*
X147997500Y-106300000D02*
X148600000Y-106300000D01*
X144744874Y-88205000D02*
X137395000Y-88205000D01*
X150000000Y-103975000D02*
X150000000Y-104600000D01*
X175143871Y-116007500D02*
X166000000Y-116007500D01*
X161505000Y-113795000D02*
X161500000Y-113800000D01*
X156800000Y-89900000D02*
X154400000Y-87500000D01*
X165280000Y-110615000D02*
X170985000Y-110615000D01*
X159900000Y-115500000D02*
X160175000Y-115225000D01*
X148600000Y-104600000D02*
X148600000Y-106300000D01*
X163907500Y-116007500D02*
X163900000Y-116015000D01*
X175091250Y-92901250D02*
X174093750Y-92901250D01*
X161185000Y-115000000D02*
X161185000Y-115199999D01*
X148600000Y-106300000D02*
X149305000Y-106300000D01*
X148800000Y-103975000D02*
X150000000Y-103975000D01*
X162155000Y-106840000D02*
X162155000Y-106415001D01*
X158715000Y-115500000D02*
X159900000Y-115500000D01*
X147500000Y-106797500D02*
X147997500Y-106300000D01*
X164300000Y-104270001D02*
X164300000Y-99700000D01*
X161185000Y-115000000D02*
X160175000Y-115000000D01*
X177000000Y-110400000D02*
X178800000Y-110400000D01*
X178900000Y-94697500D02*
X178900000Y-110500000D01*
X178900000Y-112251371D02*
X175143871Y-116007500D01*
X175093750Y-92903750D02*
X175091250Y-92901250D01*
X145800000Y-89260126D02*
X144744874Y-88205000D01*
X164300000Y-99700000D02*
X159000000Y-94400000D01*
X161505000Y-113740000D02*
X161505000Y-113795000D01*
X177100000Y-92897500D02*
X176097500Y-92897500D01*
X160205000Y-114970000D02*
X160205000Y-113740000D01*
X147307500Y-100800000D02*
X147307500Y-97667500D01*
X134500000Y-91100000D02*
X134500000Y-96235000D01*
%TO.N,Net-(J4-Pin_2)*%
X175141250Y-91656250D02*
X175091250Y-91706250D01*
X175141250Y-89291250D02*
X175141250Y-91656250D01*
X175091250Y-89341250D02*
X175141250Y-89291250D01*
X167000000Y-107900000D02*
X165395000Y-107900000D01*
X175091250Y-91706250D02*
X175091250Y-89341250D01*
X165395000Y-107900000D02*
X165280000Y-108015000D01*
%TO.N,Net-(J4-Pin_1)*%
X174921250Y-84183750D02*
X174921250Y-86531250D01*
X174921250Y-86531250D02*
X175141250Y-86751250D01*
%TO.N,Net-(J5-Pin_1)*%
X177371250Y-84203750D02*
X177371250Y-85301250D01*
X177371250Y-85301250D02*
X178821250Y-86751250D01*
%TO.N,Net-(J5-Pin_2)*%
X168200000Y-105500000D02*
X165445000Y-105500000D01*
X165445000Y-105500000D02*
X164105000Y-106840000D01*
X168500000Y-105200000D02*
X168200000Y-105500000D01*
%TO.N,out+*%
X165200000Y-96060000D02*
X165200000Y-99200000D01*
X156100000Y-109500000D02*
X156100000Y-110010000D01*
X158335000Y-110010000D02*
X158380000Y-109965000D01*
X166360000Y-94900000D02*
X165200000Y-96060000D01*
X154250000Y-110010000D02*
X156100000Y-110010000D01*
X156100000Y-110010000D02*
X158335000Y-110010000D01*
%TO.N,out-*%
X158380000Y-110615000D02*
X155900000Y-110615000D01*
X156078542Y-111000000D02*
X156078542Y-110793542D01*
X164960000Y-100240000D02*
X165100000Y-100100000D01*
X155900000Y-110615000D02*
X154295000Y-110615000D01*
X156078542Y-110793542D02*
X155900000Y-110615000D01*
X154295000Y-110615000D02*
X154250000Y-110660000D01*
X164960000Y-103500000D02*
X164960000Y-100240000D01*
%TO.N,CS*%
X164175000Y-113810000D02*
X164105000Y-113740000D01*
X169860000Y-113810000D02*
X164175000Y-113810000D01*
%TO.N,Net-(U2B-GPO3)*%
X163455000Y-106415001D02*
X163455000Y-106840000D01*
X165284580Y-104585421D02*
X163455000Y-106415001D01*
X178202500Y-91702500D02*
X178300000Y-91800000D01*
X177100000Y-91702500D02*
X178202500Y-91702500D01*
X169012149Y-104585421D02*
X165284580Y-104585421D01*
%TO.N,Net-(U2A-SCAP1)*%
X163400000Y-104215000D02*
X161505000Y-106110000D01*
X161505000Y-106110000D02*
X161505000Y-106840000D01*
%TO.N,Net-(U2A-SOUT2)*%
X157900000Y-106840000D02*
X159555000Y-106840000D01*
X155600000Y-104540000D02*
X157900000Y-106840000D01*
%TO.N,RST*%
X174940000Y-113810000D02*
X174140000Y-114610000D01*
X174140000Y-114610000D02*
X168600000Y-114610000D01*
X168490000Y-114500000D02*
X163790001Y-114500000D01*
X163455000Y-114164999D02*
X163455000Y-113740000D01*
X168600000Y-114610000D02*
X168490000Y-114500000D01*
X163790001Y-114500000D02*
X163455000Y-114164999D01*
%TO.N,+3V3*%
X175208750Y-82988750D02*
X175228750Y-83008750D01*
X172401250Y-83078750D02*
X167900000Y-87580000D01*
X162155000Y-113740000D02*
X162805000Y-113740000D01*
X165280000Y-109970000D02*
X165300000Y-109990000D01*
X164100000Y-115200000D02*
X164107500Y-115192500D01*
X167900000Y-87580000D02*
X167900000Y-94100000D01*
X163900000Y-115200000D02*
X164100000Y-115200000D01*
X174831250Y-83078750D02*
X174921250Y-82988750D01*
X172401250Y-83078750D02*
X174831250Y-83078750D01*
X164107500Y-115192500D02*
X166000000Y-115192500D01*
X175228750Y-83008750D02*
X177371250Y-83008750D01*
X174921250Y-82988750D02*
X175208750Y-82988750D01*
X162805000Y-114105000D02*
X163900000Y-115200000D01*
X162805000Y-113740000D02*
X162805000Y-114105000D01*
X165280000Y-109965000D02*
X165280000Y-109970000D01*
%TO.N,Net-(U2A-SOUT1)*%
X160900000Y-104297500D02*
X160900000Y-104300000D01*
X160900000Y-104297500D02*
X161797500Y-103400000D01*
X160900000Y-104300000D02*
X160205000Y-104995000D01*
X160205000Y-104995000D02*
X160205000Y-106840000D01*
X161797500Y-103400000D02*
X163400000Y-103400000D01*
%TO.N,SCLK*%
X171130000Y-113480000D02*
X170215000Y-112565000D01*
X171130000Y-113810000D02*
X171130000Y-113480000D01*
X170215000Y-112565000D02*
X165280000Y-112565000D01*
%TO.N,DOUT*%
X171125000Y-111265000D02*
X165280000Y-111265000D01*
X173670000Y-113810000D02*
X171125000Y-111265000D01*
%TO.N,DIN*%
X172400000Y-113810000D02*
X170505000Y-111915000D01*
X170505000Y-111915000D02*
X165280000Y-111915000D01*
%TO.N,BSY*%
X171715000Y-109315000D02*
X165280000Y-109315000D01*
X176210000Y-113810000D02*
X171715000Y-109315000D01*
%TO.N,Net-(C1-Pad1)*%
X144020000Y-94860000D02*
X146660000Y-97500000D01*
X145600000Y-98600000D02*
X146407500Y-98600000D01*
X147950000Y-96450000D02*
X147950000Y-95850000D01*
X144020000Y-89955000D02*
X140520000Y-89955000D01*
X147950000Y-95850000D02*
X147100000Y-95000000D01*
X144020000Y-89955000D02*
X144020000Y-94860000D01*
X152830000Y-96282500D02*
X152830000Y-95130000D01*
X146660000Y-98532500D02*
X146500000Y-98692500D01*
X146660000Y-97500000D02*
X146660000Y-98532500D01*
X152830000Y-95130000D02*
X152800000Y-95100000D01*
X146407500Y-98600000D02*
X146500000Y-98692500D01*
X140520000Y-89955000D02*
X137420000Y-93055000D01*
%TO.N,Net-(J3-Pin_2)*%
X173000000Y-92480001D02*
X173000000Y-94300000D01*
X173908750Y-91708750D02*
X174091250Y-91708750D01*
X173771251Y-91708750D02*
X173000000Y-92480001D01*
X176022501Y-94622501D02*
X178500000Y-97100000D01*
X173322501Y-94622501D02*
X176022501Y-94622501D01*
X174091250Y-91708750D02*
X173771251Y-91708750D01*
X171491250Y-89291250D02*
X173908750Y-91708750D01*
X178500000Y-97100000D02*
X178500000Y-104300000D01*
X174135000Y-108665000D02*
X165280000Y-108665000D01*
X173000000Y-94300000D02*
X173322501Y-94622501D01*
X178500000Y-104300000D02*
X174135000Y-108665000D01*
%TO.N,Net-(J3-Pin_1)*%
X172401250Y-84273750D02*
X172401250Y-85841250D01*
X172401250Y-85841250D02*
X171491250Y-86751250D01*
%TO.N,Net-(C7-Pad1)*%
X150500000Y-97307500D02*
X150500000Y-98710000D01*
%TO.N,+48V*%
X149400000Y-87600000D02*
X147100000Y-89900000D01*
X149400000Y-93805000D02*
X147100000Y-93805000D01*
X147100000Y-89900000D02*
X147100000Y-93805000D01*
X149400000Y-87500000D02*
X149400000Y-87600000D01*
%TO.N,Net-(D1-A)*%
X160900000Y-101200000D02*
X160560000Y-100860000D01*
X160900000Y-103102500D02*
X160900000Y-101200000D01*
X151975000Y-108044315D02*
X151975000Y-108385000D01*
X152800000Y-105600000D02*
X152800000Y-107219315D01*
X152800000Y-107219315D02*
X151975000Y-108044315D01*
X160600000Y-100900000D02*
X160560000Y-100860000D01*
X154060000Y-102040000D02*
X152900000Y-100880000D01*
X159380000Y-102040000D02*
X154060000Y-102040000D01*
X151000000Y-103085000D02*
X151975000Y-102110000D01*
X152900000Y-100880000D02*
X152900000Y-99695000D01*
X152900000Y-102275000D02*
X152800000Y-102375000D01*
X152900000Y-99695000D02*
X152900000Y-102275000D01*
X151975000Y-102110000D02*
X151975000Y-101500000D01*
X163200000Y-100900000D02*
X160600000Y-100900000D01*
X160560000Y-100860000D02*
X159380000Y-102040000D01*
X149800000Y-105600000D02*
X152800000Y-105600000D01*
%TO.N,Net-(C18-Pad2)*%
X167175000Y-94900000D02*
X169005000Y-94900000D01*
%TO.N,Net-(C19-Pad2)*%
X165775000Y-103500000D02*
X167905000Y-103500000D01*
X167905000Y-103500000D02*
X168005000Y-103600000D01*
%TO.N,Net-(J6-Pin_2)*%
X170890000Y-101407500D02*
X170700000Y-101597500D01*
X170700000Y-102100000D02*
X169200000Y-103600000D01*
X172000000Y-101407500D02*
X170890000Y-101407500D01*
X174292500Y-103600000D02*
X172000000Y-101307500D01*
X176900000Y-103600000D02*
X174292500Y-103600000D01*
X170700000Y-101597500D02*
X170700000Y-102100000D01*
%TO.N,Net-(J6-Pin_1)*%
X172000000Y-100592500D02*
X170890000Y-100592500D01*
X173892500Y-98600000D02*
X172000000Y-100492500D01*
X170200000Y-99902500D02*
X170700000Y-100402500D01*
X176900000Y-98600000D02*
X173892500Y-98600000D01*
X170200000Y-94900000D02*
X170200000Y-99902500D01*
X170890000Y-100592500D02*
X170700000Y-100402500D01*
%TO.N,Net-(U2A-Rg2)*%
X152625000Y-112925000D02*
X152625000Y-112285000D01*
X154900000Y-113200000D02*
X152900000Y-113200000D01*
X156835000Y-111265000D02*
X154900000Y-113200000D01*
X158380000Y-111265000D02*
X156835000Y-111265000D01*
X152900000Y-113200000D02*
X152625000Y-112925000D01*
%TO.N,Net-(U2A-Rg1)*%
X154900000Y-107400000D02*
X153185001Y-107400000D01*
X152625000Y-107960001D02*
X152625000Y-108385000D01*
X156815000Y-109315000D02*
X154900000Y-107400000D01*
X158380000Y-109315000D02*
X156815000Y-109315000D01*
X153185001Y-107400000D02*
X152625000Y-107960001D01*
%TO.N,Net-(C2-Pad1)*%
X130120000Y-93955000D02*
X126800000Y-97275000D01*
X149400000Y-99593456D02*
X147693456Y-101300000D01*
X149400000Y-95000000D02*
X149400000Y-99593456D01*
X146900000Y-101300000D02*
X146492500Y-100892500D01*
X147693456Y-101300000D02*
X146900000Y-101300000D01*
X146500000Y-99507500D02*
X146500000Y-100792500D01*
X126800000Y-97275000D02*
X126800000Y-101300000D01*
X130755000Y-105255000D02*
X137420000Y-105255000D01*
X126800000Y-101300000D02*
X130755000Y-105255000D01*
X150500000Y-96100000D02*
X149400000Y-95000000D01*
X146500000Y-100792500D02*
X146492500Y-100800000D01*
X141875000Y-100800000D02*
X137420000Y-105255000D01*
X146492500Y-100892500D02*
X146492500Y-100800000D01*
X146492500Y-100800000D02*
X141875000Y-100800000D01*
X150500000Y-96492500D02*
X150500000Y-96100000D01*
%TO.N,Net-(U2A-SCAP2)*%
X152830000Y-97097500D02*
X152830000Y-98430000D01*
X157227500Y-103725000D02*
X158000000Y-104497500D01*
X160826765Y-105221765D02*
X160855000Y-105250000D01*
X160855000Y-105250000D02*
X160855000Y-106840000D01*
X158100000Y-105600000D02*
X158000000Y-105500000D01*
X158000000Y-105500000D02*
X158000000Y-104497500D01*
X155600000Y-103725000D02*
X157227500Y-103725000D01*
X152830000Y-98430000D02*
X152900000Y-98500000D01*
%TD*%
M02*
