%TF.GenerationSoftware,KiCad,Pcbnew,8.0.5*%
%TF.CreationDate,2024-12-06T12:41:15-05:00*%
%TF.ProjectId,user_interface,75736572-5f69-46e7-9465-72666163652e,rev?*%
%TF.SameCoordinates,Original*%
%TF.FileFunction,Legend,Top*%
%TF.FilePolarity,Positive*%
%FSLAX46Y46*%
G04 Gerber Fmt 4.6, Leading zero omitted, Abs format (unit mm)*
G04 Created by KiCad (PCBNEW 8.0.5) date 2024-12-06 12:41:15*
%MOMM*%
%LPD*%
G01*
G04 APERTURE LIST*
G04 Aperture macros list*
%AMRoundRect*
0 Rectangle with rounded corners*
0 $1 Rounding radius*
0 $2 $3 $4 $5 $6 $7 $8 $9 X,Y pos of 4 corners*
0 Add a 4 corners polygon primitive as box body*
4,1,4,$2,$3,$4,$5,$6,$7,$8,$9,$2,$3,0*
0 Add four circle primitives for the rounded corners*
1,1,$1+$1,$2,$3*
1,1,$1+$1,$4,$5*
1,1,$1+$1,$6,$7*
1,1,$1+$1,$8,$9*
0 Add four rect primitives between the rounded corners*
20,1,$1+$1,$2,$3,$4,$5,0*
20,1,$1+$1,$4,$5,$6,$7,0*
20,1,$1+$1,$6,$7,$8,$9,0*
20,1,$1+$1,$8,$9,$2,$3,0*%
%AMOutline5P*
0 Free polygon, 5 corners , with rotation*
0 The origin of the aperture is its center*
0 number of corners: always 5*
0 $1 to $10 corner X, Y*
0 $11 Rotation angle, in degrees counterclockwise*
0 create outline with 5 corners*
4,1,5,$1,$2,$3,$4,$5,$6,$7,$8,$9,$10,$1,$2,$11*%
%AMOutline6P*
0 Free polygon, 6 corners , with rotation*
0 The origin of the aperture is its center*
0 number of corners: always 6*
0 $1 to $12 corner X, Y*
0 $13 Rotation angle, in degrees counterclockwise*
0 create outline with 6 corners*
4,1,6,$1,$2,$3,$4,$5,$6,$7,$8,$9,$10,$11,$12,$1,$2,$13*%
%AMOutline7P*
0 Free polygon, 7 corners , with rotation*
0 The origin of the aperture is its center*
0 number of corners: always 7*
0 $1 to $14 corner X, Y*
0 $15 Rotation angle, in degrees counterclockwise*
0 create outline with 7 corners*
4,1,7,$1,$2,$3,$4,$5,$6,$7,$8,$9,$10,$11,$12,$13,$14,$1,$2,$15*%
%AMOutline8P*
0 Free polygon, 8 corners , with rotation*
0 The origin of the aperture is its center*
0 number of corners: always 8*
0 $1 to $16 corner X, Y*
0 $17 Rotation angle, in degrees counterclockwise*
0 create outline with 8 corners*
4,1,8,$1,$2,$3,$4,$5,$6,$7,$8,$9,$10,$11,$12,$13,$14,$15,$16,$1,$2,$17*%
G04 Aperture macros list end*
%ADD10C,0.150000*%
%ADD11C,0.120000*%
%ADD12RoundRect,0.093750X-0.093750X-0.106250X0.093750X-0.106250X0.093750X0.106250X-0.093750X0.106250X0*%
%ADD13R,1.000000X1.600000*%
%ADD14R,0.625000X0.250000*%
%ADD15R,0.700000X0.450000*%
%ADD16R,0.575000X0.450000*%
%ADD17R,0.800000X0.400000*%
%ADD18R,0.400000X0.800000*%
%ADD19Outline5P,-0.600000X0.204000X-0.204000X0.600000X0.600000X0.600000X0.600000X-0.600000X-0.600000X-0.600000X0.000000*%
%ADD20R,1.200000X1.200000*%
%ADD21R,0.800000X0.800000*%
%ADD22C,2.000000*%
%ADD23RoundRect,0.249999X-0.450001X-1.425001X0.450001X-1.425001X0.450001X1.425001X-0.450001X1.425001X0*%
%ADD24C,0.700000*%
%ADD25O,0.900000X2.400000*%
%ADD26O,0.900000X1.700000*%
%ADD27R,1.800000X1.800000*%
%ADD28C,1.800000*%
%ADD29RoundRect,0.250000X-0.412500X-1.100000X0.412500X-1.100000X0.412500X1.100000X-0.412500X1.100000X0*%
G04 APERTURE END LIST*
D10*
X150843095Y-91529819D02*
X150843095Y-92339342D01*
X150843095Y-92339342D02*
X150890714Y-92434580D01*
X150890714Y-92434580D02*
X150938333Y-92482200D01*
X150938333Y-92482200D02*
X151033571Y-92529819D01*
X151033571Y-92529819D02*
X151224047Y-92529819D01*
X151224047Y-92529819D02*
X151319285Y-92482200D01*
X151319285Y-92482200D02*
X151366904Y-92434580D01*
X151366904Y-92434580D02*
X151414523Y-92339342D01*
X151414523Y-92339342D02*
X151414523Y-91529819D01*
X151795476Y-91529819D02*
X152414523Y-91529819D01*
X152414523Y-91529819D02*
X152081190Y-91910771D01*
X152081190Y-91910771D02*
X152224047Y-91910771D01*
X152224047Y-91910771D02*
X152319285Y-91958390D01*
X152319285Y-91958390D02*
X152366904Y-92006009D01*
X152366904Y-92006009D02*
X152414523Y-92101247D01*
X152414523Y-92101247D02*
X152414523Y-92339342D01*
X152414523Y-92339342D02*
X152366904Y-92434580D01*
X152366904Y-92434580D02*
X152319285Y-92482200D01*
X152319285Y-92482200D02*
X152224047Y-92529819D01*
X152224047Y-92529819D02*
X151938333Y-92529819D01*
X151938333Y-92529819D02*
X151843095Y-92482200D01*
X151843095Y-92482200D02*
X151795476Y-92434580D01*
X150493095Y-87069819D02*
X150493095Y-87879342D01*
X150493095Y-87879342D02*
X150540714Y-87974580D01*
X150540714Y-87974580D02*
X150588333Y-88022200D01*
X150588333Y-88022200D02*
X150683571Y-88069819D01*
X150683571Y-88069819D02*
X150874047Y-88069819D01*
X150874047Y-88069819D02*
X150969285Y-88022200D01*
X150969285Y-88022200D02*
X151016904Y-87974580D01*
X151016904Y-87974580D02*
X151064523Y-87879342D01*
X151064523Y-87879342D02*
X151064523Y-87069819D01*
X151493095Y-87165057D02*
X151540714Y-87117438D01*
X151540714Y-87117438D02*
X151635952Y-87069819D01*
X151635952Y-87069819D02*
X151874047Y-87069819D01*
X151874047Y-87069819D02*
X151969285Y-87117438D01*
X151969285Y-87117438D02*
X152016904Y-87165057D01*
X152016904Y-87165057D02*
X152064523Y-87260295D01*
X152064523Y-87260295D02*
X152064523Y-87355533D01*
X152064523Y-87355533D02*
X152016904Y-87498390D01*
X152016904Y-87498390D02*
X151445476Y-88069819D01*
X151445476Y-88069819D02*
X152064523Y-88069819D01*
X138938095Y-77064819D02*
X138938095Y-77874342D01*
X138938095Y-77874342D02*
X138985714Y-77969580D01*
X138985714Y-77969580D02*
X139033333Y-78017200D01*
X139033333Y-78017200D02*
X139128571Y-78064819D01*
X139128571Y-78064819D02*
X139319047Y-78064819D01*
X139319047Y-78064819D02*
X139414285Y-78017200D01*
X139414285Y-78017200D02*
X139461904Y-77969580D01*
X139461904Y-77969580D02*
X139509523Y-77874342D01*
X139509523Y-77874342D02*
X139509523Y-77064819D01*
X140509523Y-78064819D02*
X139938095Y-78064819D01*
X140223809Y-78064819D02*
X140223809Y-77064819D01*
X140223809Y-77064819D02*
X140128571Y-77207676D01*
X140128571Y-77207676D02*
X140033333Y-77302914D01*
X140033333Y-77302914D02*
X139938095Y-77350533D01*
X135416667Y-85767200D02*
X135559524Y-85814819D01*
X135559524Y-85814819D02*
X135797619Y-85814819D01*
X135797619Y-85814819D02*
X135892857Y-85767200D01*
X135892857Y-85767200D02*
X135940476Y-85719580D01*
X135940476Y-85719580D02*
X135988095Y-85624342D01*
X135988095Y-85624342D02*
X135988095Y-85529104D01*
X135988095Y-85529104D02*
X135940476Y-85433866D01*
X135940476Y-85433866D02*
X135892857Y-85386247D01*
X135892857Y-85386247D02*
X135797619Y-85338628D01*
X135797619Y-85338628D02*
X135607143Y-85291009D01*
X135607143Y-85291009D02*
X135511905Y-85243390D01*
X135511905Y-85243390D02*
X135464286Y-85195771D01*
X135464286Y-85195771D02*
X135416667Y-85100533D01*
X135416667Y-85100533D02*
X135416667Y-85005295D01*
X135416667Y-85005295D02*
X135464286Y-84910057D01*
X135464286Y-84910057D02*
X135511905Y-84862438D01*
X135511905Y-84862438D02*
X135607143Y-84814819D01*
X135607143Y-84814819D02*
X135845238Y-84814819D01*
X135845238Y-84814819D02*
X135988095Y-84862438D01*
X136321429Y-84814819D02*
X136559524Y-85814819D01*
X136559524Y-85814819D02*
X136750000Y-85100533D01*
X136750000Y-85100533D02*
X136940476Y-85814819D01*
X136940476Y-85814819D02*
X137178572Y-84814819D01*
X137511905Y-84910057D02*
X137559524Y-84862438D01*
X137559524Y-84862438D02*
X137654762Y-84814819D01*
X137654762Y-84814819D02*
X137892857Y-84814819D01*
X137892857Y-84814819D02*
X137988095Y-84862438D01*
X137988095Y-84862438D02*
X138035714Y-84910057D01*
X138035714Y-84910057D02*
X138083333Y-85005295D01*
X138083333Y-85005295D02*
X138083333Y-85100533D01*
X138083333Y-85100533D02*
X138035714Y-85243390D01*
X138035714Y-85243390D02*
X137464286Y-85814819D01*
X137464286Y-85814819D02*
X138083333Y-85814819D01*
X135416667Y-77217200D02*
X135559524Y-77264819D01*
X135559524Y-77264819D02*
X135797619Y-77264819D01*
X135797619Y-77264819D02*
X135892857Y-77217200D01*
X135892857Y-77217200D02*
X135940476Y-77169580D01*
X135940476Y-77169580D02*
X135988095Y-77074342D01*
X135988095Y-77074342D02*
X135988095Y-76979104D01*
X135988095Y-76979104D02*
X135940476Y-76883866D01*
X135940476Y-76883866D02*
X135892857Y-76836247D01*
X135892857Y-76836247D02*
X135797619Y-76788628D01*
X135797619Y-76788628D02*
X135607143Y-76741009D01*
X135607143Y-76741009D02*
X135511905Y-76693390D01*
X135511905Y-76693390D02*
X135464286Y-76645771D01*
X135464286Y-76645771D02*
X135416667Y-76550533D01*
X135416667Y-76550533D02*
X135416667Y-76455295D01*
X135416667Y-76455295D02*
X135464286Y-76360057D01*
X135464286Y-76360057D02*
X135511905Y-76312438D01*
X135511905Y-76312438D02*
X135607143Y-76264819D01*
X135607143Y-76264819D02*
X135845238Y-76264819D01*
X135845238Y-76264819D02*
X135988095Y-76312438D01*
X136321429Y-76264819D02*
X136559524Y-77264819D01*
X136559524Y-77264819D02*
X136750000Y-76550533D01*
X136750000Y-76550533D02*
X136940476Y-77264819D01*
X136940476Y-77264819D02*
X137178572Y-76264819D01*
X138083333Y-77264819D02*
X137511905Y-77264819D01*
X137797619Y-77264819D02*
X137797619Y-76264819D01*
X137797619Y-76264819D02*
X137702381Y-76407676D01*
X137702381Y-76407676D02*
X137607143Y-76502914D01*
X137607143Y-76502914D02*
X137511905Y-76550533D01*
X126783333Y-91734819D02*
X126450000Y-91258628D01*
X126211905Y-91734819D02*
X126211905Y-90734819D01*
X126211905Y-90734819D02*
X126592857Y-90734819D01*
X126592857Y-90734819D02*
X126688095Y-90782438D01*
X126688095Y-90782438D02*
X126735714Y-90830057D01*
X126735714Y-90830057D02*
X126783333Y-90925295D01*
X126783333Y-90925295D02*
X126783333Y-91068152D01*
X126783333Y-91068152D02*
X126735714Y-91163390D01*
X126735714Y-91163390D02*
X126688095Y-91211009D01*
X126688095Y-91211009D02*
X126592857Y-91258628D01*
X126592857Y-91258628D02*
X126211905Y-91258628D01*
X127640476Y-91068152D02*
X127640476Y-91734819D01*
X127402381Y-90687200D02*
X127164286Y-91401485D01*
X127164286Y-91401485D02*
X127783333Y-91401485D01*
X126783333Y-86844819D02*
X126450000Y-86368628D01*
X126211905Y-86844819D02*
X126211905Y-85844819D01*
X126211905Y-85844819D02*
X126592857Y-85844819D01*
X126592857Y-85844819D02*
X126688095Y-85892438D01*
X126688095Y-85892438D02*
X126735714Y-85940057D01*
X126735714Y-85940057D02*
X126783333Y-86035295D01*
X126783333Y-86035295D02*
X126783333Y-86178152D01*
X126783333Y-86178152D02*
X126735714Y-86273390D01*
X126735714Y-86273390D02*
X126688095Y-86321009D01*
X126688095Y-86321009D02*
X126592857Y-86368628D01*
X126592857Y-86368628D02*
X126211905Y-86368628D01*
X127116667Y-85844819D02*
X127735714Y-85844819D01*
X127735714Y-85844819D02*
X127402381Y-86225771D01*
X127402381Y-86225771D02*
X127545238Y-86225771D01*
X127545238Y-86225771D02*
X127640476Y-86273390D01*
X127640476Y-86273390D02*
X127688095Y-86321009D01*
X127688095Y-86321009D02*
X127735714Y-86416247D01*
X127735714Y-86416247D02*
X127735714Y-86654342D01*
X127735714Y-86654342D02*
X127688095Y-86749580D01*
X127688095Y-86749580D02*
X127640476Y-86797200D01*
X127640476Y-86797200D02*
X127545238Y-86844819D01*
X127545238Y-86844819D02*
X127259524Y-86844819D01*
X127259524Y-86844819D02*
X127164286Y-86797200D01*
X127164286Y-86797200D02*
X127116667Y-86749580D01*
X126783333Y-81954819D02*
X126450000Y-81478628D01*
X126211905Y-81954819D02*
X126211905Y-80954819D01*
X126211905Y-80954819D02*
X126592857Y-80954819D01*
X126592857Y-80954819D02*
X126688095Y-81002438D01*
X126688095Y-81002438D02*
X126735714Y-81050057D01*
X126735714Y-81050057D02*
X126783333Y-81145295D01*
X126783333Y-81145295D02*
X126783333Y-81288152D01*
X126783333Y-81288152D02*
X126735714Y-81383390D01*
X126735714Y-81383390D02*
X126688095Y-81431009D01*
X126688095Y-81431009D02*
X126592857Y-81478628D01*
X126592857Y-81478628D02*
X126211905Y-81478628D01*
X127164286Y-81050057D02*
X127211905Y-81002438D01*
X127211905Y-81002438D02*
X127307143Y-80954819D01*
X127307143Y-80954819D02*
X127545238Y-80954819D01*
X127545238Y-80954819D02*
X127640476Y-81002438D01*
X127640476Y-81002438D02*
X127688095Y-81050057D01*
X127688095Y-81050057D02*
X127735714Y-81145295D01*
X127735714Y-81145295D02*
X127735714Y-81240533D01*
X127735714Y-81240533D02*
X127688095Y-81383390D01*
X127688095Y-81383390D02*
X127116667Y-81954819D01*
X127116667Y-81954819D02*
X127735714Y-81954819D01*
X126783333Y-77064819D02*
X126450000Y-76588628D01*
X126211905Y-77064819D02*
X126211905Y-76064819D01*
X126211905Y-76064819D02*
X126592857Y-76064819D01*
X126592857Y-76064819D02*
X126688095Y-76112438D01*
X126688095Y-76112438D02*
X126735714Y-76160057D01*
X126735714Y-76160057D02*
X126783333Y-76255295D01*
X126783333Y-76255295D02*
X126783333Y-76398152D01*
X126783333Y-76398152D02*
X126735714Y-76493390D01*
X126735714Y-76493390D02*
X126688095Y-76541009D01*
X126688095Y-76541009D02*
X126592857Y-76588628D01*
X126592857Y-76588628D02*
X126211905Y-76588628D01*
X127735714Y-77064819D02*
X127164286Y-77064819D01*
X127450000Y-77064819D02*
X127450000Y-76064819D01*
X127450000Y-76064819D02*
X127354762Y-76207676D01*
X127354762Y-76207676D02*
X127259524Y-76302914D01*
X127259524Y-76302914D02*
X127164286Y-76350533D01*
X113236905Y-66414819D02*
X113236905Y-65414819D01*
X113236905Y-65414819D02*
X113617857Y-65414819D01*
X113617857Y-65414819D02*
X113713095Y-65462438D01*
X113713095Y-65462438D02*
X113760714Y-65510057D01*
X113760714Y-65510057D02*
X113808333Y-65605295D01*
X113808333Y-65605295D02*
X113808333Y-65748152D01*
X113808333Y-65748152D02*
X113760714Y-65843390D01*
X113760714Y-65843390D02*
X113713095Y-65891009D01*
X113713095Y-65891009D02*
X113617857Y-65938628D01*
X113617857Y-65938628D02*
X113236905Y-65938628D01*
X114760714Y-66414819D02*
X114189286Y-66414819D01*
X114475000Y-66414819D02*
X114475000Y-65414819D01*
X114475000Y-65414819D02*
X114379762Y-65557676D01*
X114379762Y-65557676D02*
X114284524Y-65652914D01*
X114284524Y-65652914D02*
X114189286Y-65700533D01*
X145031905Y-88274819D02*
X145031905Y-87274819D01*
X145031905Y-87274819D02*
X145270000Y-87274819D01*
X145270000Y-87274819D02*
X145412857Y-87322438D01*
X145412857Y-87322438D02*
X145508095Y-87417676D01*
X145508095Y-87417676D02*
X145555714Y-87512914D01*
X145555714Y-87512914D02*
X145603333Y-87703390D01*
X145603333Y-87703390D02*
X145603333Y-87846247D01*
X145603333Y-87846247D02*
X145555714Y-88036723D01*
X145555714Y-88036723D02*
X145508095Y-88131961D01*
X145508095Y-88131961D02*
X145412857Y-88227200D01*
X145412857Y-88227200D02*
X145270000Y-88274819D01*
X145270000Y-88274819D02*
X145031905Y-88274819D01*
X146555714Y-88274819D02*
X145984286Y-88274819D01*
X146270000Y-88274819D02*
X146270000Y-87274819D01*
X146270000Y-87274819D02*
X146174762Y-87417676D01*
X146174762Y-87417676D02*
X146079524Y-87512914D01*
X146079524Y-87512914D02*
X145984286Y-87560533D01*
X171713333Y-61919580D02*
X171665714Y-61967200D01*
X171665714Y-61967200D02*
X171522857Y-62014819D01*
X171522857Y-62014819D02*
X171427619Y-62014819D01*
X171427619Y-62014819D02*
X171284762Y-61967200D01*
X171284762Y-61967200D02*
X171189524Y-61871961D01*
X171189524Y-61871961D02*
X171141905Y-61776723D01*
X171141905Y-61776723D02*
X171094286Y-61586247D01*
X171094286Y-61586247D02*
X171094286Y-61443390D01*
X171094286Y-61443390D02*
X171141905Y-61252914D01*
X171141905Y-61252914D02*
X171189524Y-61157676D01*
X171189524Y-61157676D02*
X171284762Y-61062438D01*
X171284762Y-61062438D02*
X171427619Y-61014819D01*
X171427619Y-61014819D02*
X171522857Y-61014819D01*
X171522857Y-61014819D02*
X171665714Y-61062438D01*
X171665714Y-61062438D02*
X171713333Y-61110057D01*
X172570476Y-61014819D02*
X172380000Y-61014819D01*
X172380000Y-61014819D02*
X172284762Y-61062438D01*
X172284762Y-61062438D02*
X172237143Y-61110057D01*
X172237143Y-61110057D02*
X172141905Y-61252914D01*
X172141905Y-61252914D02*
X172094286Y-61443390D01*
X172094286Y-61443390D02*
X172094286Y-61824342D01*
X172094286Y-61824342D02*
X172141905Y-61919580D01*
X172141905Y-61919580D02*
X172189524Y-61967200D01*
X172189524Y-61967200D02*
X172284762Y-62014819D01*
X172284762Y-62014819D02*
X172475238Y-62014819D01*
X172475238Y-62014819D02*
X172570476Y-61967200D01*
X172570476Y-61967200D02*
X172618095Y-61919580D01*
X172618095Y-61919580D02*
X172665714Y-61824342D01*
X172665714Y-61824342D02*
X172665714Y-61586247D01*
X172665714Y-61586247D02*
X172618095Y-61491009D01*
X172618095Y-61491009D02*
X172570476Y-61443390D01*
X172570476Y-61443390D02*
X172475238Y-61395771D01*
X172475238Y-61395771D02*
X172284762Y-61395771D01*
X172284762Y-61395771D02*
X172189524Y-61443390D01*
X172189524Y-61443390D02*
X172141905Y-61491009D01*
X172141905Y-61491009D02*
X172094286Y-61586247D01*
X171713333Y-57669580D02*
X171665714Y-57717200D01*
X171665714Y-57717200D02*
X171522857Y-57764819D01*
X171522857Y-57764819D02*
X171427619Y-57764819D01*
X171427619Y-57764819D02*
X171284762Y-57717200D01*
X171284762Y-57717200D02*
X171189524Y-57621961D01*
X171189524Y-57621961D02*
X171141905Y-57526723D01*
X171141905Y-57526723D02*
X171094286Y-57336247D01*
X171094286Y-57336247D02*
X171094286Y-57193390D01*
X171094286Y-57193390D02*
X171141905Y-57002914D01*
X171141905Y-57002914D02*
X171189524Y-56907676D01*
X171189524Y-56907676D02*
X171284762Y-56812438D01*
X171284762Y-56812438D02*
X171427619Y-56764819D01*
X171427619Y-56764819D02*
X171522857Y-56764819D01*
X171522857Y-56764819D02*
X171665714Y-56812438D01*
X171665714Y-56812438D02*
X171713333Y-56860057D01*
X172618095Y-56764819D02*
X172141905Y-56764819D01*
X172141905Y-56764819D02*
X172094286Y-57241009D01*
X172094286Y-57241009D02*
X172141905Y-57193390D01*
X172141905Y-57193390D02*
X172237143Y-57145771D01*
X172237143Y-57145771D02*
X172475238Y-57145771D01*
X172475238Y-57145771D02*
X172570476Y-57193390D01*
X172570476Y-57193390D02*
X172618095Y-57241009D01*
X172618095Y-57241009D02*
X172665714Y-57336247D01*
X172665714Y-57336247D02*
X172665714Y-57574342D01*
X172665714Y-57574342D02*
X172618095Y-57669580D01*
X172618095Y-57669580D02*
X172570476Y-57717200D01*
X172570476Y-57717200D02*
X172475238Y-57764819D01*
X172475238Y-57764819D02*
X172237143Y-57764819D01*
X172237143Y-57764819D02*
X172141905Y-57717200D01*
X172141905Y-57717200D02*
X172094286Y-57669580D01*
X171713333Y-53419580D02*
X171665714Y-53467200D01*
X171665714Y-53467200D02*
X171522857Y-53514819D01*
X171522857Y-53514819D02*
X171427619Y-53514819D01*
X171427619Y-53514819D02*
X171284762Y-53467200D01*
X171284762Y-53467200D02*
X171189524Y-53371961D01*
X171189524Y-53371961D02*
X171141905Y-53276723D01*
X171141905Y-53276723D02*
X171094286Y-53086247D01*
X171094286Y-53086247D02*
X171094286Y-52943390D01*
X171094286Y-52943390D02*
X171141905Y-52752914D01*
X171141905Y-52752914D02*
X171189524Y-52657676D01*
X171189524Y-52657676D02*
X171284762Y-52562438D01*
X171284762Y-52562438D02*
X171427619Y-52514819D01*
X171427619Y-52514819D02*
X171522857Y-52514819D01*
X171522857Y-52514819D02*
X171665714Y-52562438D01*
X171665714Y-52562438D02*
X171713333Y-52610057D01*
X172570476Y-52848152D02*
X172570476Y-53514819D01*
X172332381Y-52467200D02*
X172094286Y-53181485D01*
X172094286Y-53181485D02*
X172713333Y-53181485D01*
X171713333Y-49169580D02*
X171665714Y-49217200D01*
X171665714Y-49217200D02*
X171522857Y-49264819D01*
X171522857Y-49264819D02*
X171427619Y-49264819D01*
X171427619Y-49264819D02*
X171284762Y-49217200D01*
X171284762Y-49217200D02*
X171189524Y-49121961D01*
X171189524Y-49121961D02*
X171141905Y-49026723D01*
X171141905Y-49026723D02*
X171094286Y-48836247D01*
X171094286Y-48836247D02*
X171094286Y-48693390D01*
X171094286Y-48693390D02*
X171141905Y-48502914D01*
X171141905Y-48502914D02*
X171189524Y-48407676D01*
X171189524Y-48407676D02*
X171284762Y-48312438D01*
X171284762Y-48312438D02*
X171427619Y-48264819D01*
X171427619Y-48264819D02*
X171522857Y-48264819D01*
X171522857Y-48264819D02*
X171665714Y-48312438D01*
X171665714Y-48312438D02*
X171713333Y-48360057D01*
X172046667Y-48264819D02*
X172665714Y-48264819D01*
X172665714Y-48264819D02*
X172332381Y-48645771D01*
X172332381Y-48645771D02*
X172475238Y-48645771D01*
X172475238Y-48645771D02*
X172570476Y-48693390D01*
X172570476Y-48693390D02*
X172618095Y-48741009D01*
X172618095Y-48741009D02*
X172665714Y-48836247D01*
X172665714Y-48836247D02*
X172665714Y-49074342D01*
X172665714Y-49074342D02*
X172618095Y-49169580D01*
X172618095Y-49169580D02*
X172570476Y-49217200D01*
X172570476Y-49217200D02*
X172475238Y-49264819D01*
X172475238Y-49264819D02*
X172189524Y-49264819D01*
X172189524Y-49264819D02*
X172094286Y-49217200D01*
X172094286Y-49217200D02*
X172046667Y-49169580D01*
X171713333Y-44919580D02*
X171665714Y-44967200D01*
X171665714Y-44967200D02*
X171522857Y-45014819D01*
X171522857Y-45014819D02*
X171427619Y-45014819D01*
X171427619Y-45014819D02*
X171284762Y-44967200D01*
X171284762Y-44967200D02*
X171189524Y-44871961D01*
X171189524Y-44871961D02*
X171141905Y-44776723D01*
X171141905Y-44776723D02*
X171094286Y-44586247D01*
X171094286Y-44586247D02*
X171094286Y-44443390D01*
X171094286Y-44443390D02*
X171141905Y-44252914D01*
X171141905Y-44252914D02*
X171189524Y-44157676D01*
X171189524Y-44157676D02*
X171284762Y-44062438D01*
X171284762Y-44062438D02*
X171427619Y-44014819D01*
X171427619Y-44014819D02*
X171522857Y-44014819D01*
X171522857Y-44014819D02*
X171665714Y-44062438D01*
X171665714Y-44062438D02*
X171713333Y-44110057D01*
X172094286Y-44110057D02*
X172141905Y-44062438D01*
X172141905Y-44062438D02*
X172237143Y-44014819D01*
X172237143Y-44014819D02*
X172475238Y-44014819D01*
X172475238Y-44014819D02*
X172570476Y-44062438D01*
X172570476Y-44062438D02*
X172618095Y-44110057D01*
X172618095Y-44110057D02*
X172665714Y-44205295D01*
X172665714Y-44205295D02*
X172665714Y-44300533D01*
X172665714Y-44300533D02*
X172618095Y-44443390D01*
X172618095Y-44443390D02*
X172046667Y-45014819D01*
X172046667Y-45014819D02*
X172665714Y-45014819D01*
X171713333Y-40669580D02*
X171665714Y-40717200D01*
X171665714Y-40717200D02*
X171522857Y-40764819D01*
X171522857Y-40764819D02*
X171427619Y-40764819D01*
X171427619Y-40764819D02*
X171284762Y-40717200D01*
X171284762Y-40717200D02*
X171189524Y-40621961D01*
X171189524Y-40621961D02*
X171141905Y-40526723D01*
X171141905Y-40526723D02*
X171094286Y-40336247D01*
X171094286Y-40336247D02*
X171094286Y-40193390D01*
X171094286Y-40193390D02*
X171141905Y-40002914D01*
X171141905Y-40002914D02*
X171189524Y-39907676D01*
X171189524Y-39907676D02*
X171284762Y-39812438D01*
X171284762Y-39812438D02*
X171427619Y-39764819D01*
X171427619Y-39764819D02*
X171522857Y-39764819D01*
X171522857Y-39764819D02*
X171665714Y-39812438D01*
X171665714Y-39812438D02*
X171713333Y-39860057D01*
X172665714Y-40764819D02*
X172094286Y-40764819D01*
X172380000Y-40764819D02*
X172380000Y-39764819D01*
X172380000Y-39764819D02*
X172284762Y-39907676D01*
X172284762Y-39907676D02*
X172189524Y-40002914D01*
X172189524Y-40002914D02*
X172094286Y-40050533D01*
D11*
%TO.C,U3*%
X150605000Y-92915000D02*
X152605000Y-92915000D01*
X150605000Y-95135000D02*
X152605000Y-95135000D01*
X150365000Y-93015000D02*
X150085000Y-93015000D01*
X150365000Y-92735000D01*
X150365000Y-93015000D01*
G36*
X150365000Y-93015000D02*
G01*
X150085000Y-93015000D01*
X150365000Y-92735000D01*
X150365000Y-93015000D01*
G37*
%TO.C,U2*%
X151755000Y-88795000D02*
X150755000Y-88795000D01*
X151755000Y-91515000D02*
X150755000Y-91515000D01*
X150365000Y-88845000D02*
X150085000Y-88845000D01*
X150365000Y-88565000D01*
X150365000Y-88845000D01*
G36*
X150365000Y-88845000D02*
G01*
X150085000Y-88845000D01*
X150365000Y-88565000D01*
X150365000Y-88845000D01*
G37*
%TO.C,U1*%
X137575000Y-55160000D02*
X137575000Y-57610000D01*
X137575000Y-55160000D02*
X140025000Y-55160000D01*
X137850000Y-55410000D02*
X153450000Y-55410000D01*
X137850000Y-76110000D02*
X137850000Y-55410000D01*
X153450000Y-55410000D02*
X153450000Y-76110000D01*
X153450000Y-76110000D02*
X137850000Y-76110000D01*
X137675000Y-62360000D02*
X137339000Y-62600000D01*
X137339000Y-62120000D01*
X137675000Y-62360000D01*
G36*
X137675000Y-62360000D02*
G01*
X137339000Y-62600000D01*
X137339000Y-62120000D01*
X137675000Y-62360000D01*
G37*
%TO.C,SW2*%
X133250000Y-88860000D02*
X133250000Y-90360000D01*
X134500000Y-92860000D02*
X139000000Y-92860000D01*
X139000000Y-86360000D02*
X134500000Y-86360000D01*
X140250000Y-90360000D02*
X140250000Y-88860000D01*
%TO.C,SW1*%
X133250000Y-80310000D02*
X133250000Y-81810000D01*
X134500000Y-84310000D02*
X139000000Y-84310000D01*
X139000000Y-77810000D02*
X134500000Y-77810000D01*
X140250000Y-81810000D02*
X140250000Y-80310000D01*
%TO.C,R4*%
X124772936Y-92190000D02*
X129127064Y-92190000D01*
X124772936Y-95610000D02*
X129127064Y-95610000D01*
%TO.C,R3*%
X124772936Y-87300000D02*
X129127064Y-87300000D01*
X124772936Y-90720000D02*
X129127064Y-90720000D01*
%TO.C,R2*%
X124772936Y-82410000D02*
X129127064Y-82410000D01*
X124772936Y-85830000D02*
X129127064Y-85830000D01*
%TO.C,R1*%
X124772936Y-77520000D02*
X129127064Y-77520000D01*
X124772936Y-80940000D02*
X129127064Y-80940000D01*
%TO.C,P1*%
X118570000Y-61760000D02*
X118570000Y-60860000D01*
X118570000Y-58160000D02*
X118570000Y-55430000D01*
X118570000Y-55430000D02*
X109380000Y-55430000D01*
X118450000Y-64840000D02*
X109500000Y-64840000D01*
X109380000Y-61760000D02*
X109380000Y-60860000D01*
X109380000Y-58160000D02*
X109380000Y-55430000D01*
%TO.C,D1*%
X143210000Y-90235000D02*
X143210000Y-93325000D01*
X143210000Y-90235170D02*
G75*
G02*
X148760000Y-91780462I2560000J-1544830D01*
G01*
X148760000Y-91779538D02*
G75*
G02*
X143210000Y-93324830I-2990000J-462D01*
G01*
X148270000Y-91780000D02*
G75*
G02*
X143270000Y-91780000I-2500000J0D01*
G01*
X143270000Y-91780000D02*
G75*
G02*
X148270000Y-91780000I2500000J0D01*
G01*
%TO.C,C6*%
X171168748Y-62500000D02*
X172591252Y-62500000D01*
X171168748Y-65220000D02*
X172591252Y-65220000D01*
%TO.C,C5*%
X171168748Y-58250000D02*
X172591252Y-58250000D01*
X171168748Y-60970000D02*
X172591252Y-60970000D01*
%TO.C,C4*%
X171168748Y-54000000D02*
X172591252Y-54000000D01*
X171168748Y-56720000D02*
X172591252Y-56720000D01*
%TO.C,C3*%
X171168748Y-49750000D02*
X172591252Y-49750000D01*
X171168748Y-52470000D02*
X172591252Y-52470000D01*
%TO.C,C2*%
X171168748Y-45500000D02*
X172591252Y-45500000D01*
X171168748Y-48220000D02*
X172591252Y-48220000D01*
%TO.C,C1*%
X171168748Y-41250000D02*
X172591252Y-41250000D01*
X171168748Y-43970000D02*
X172591252Y-43970000D01*
%TD*%
%LPC*%
D12*
%TO.C,U3*%
X150717500Y-93375000D03*
X150717500Y-94025000D03*
X150717500Y-94675000D03*
X152492500Y-94675000D03*
X152492500Y-94025000D03*
X152492500Y-93375000D03*
D13*
X151605000Y-94025000D03*
%TD*%
D14*
%TO.C,U2*%
X150867500Y-89155000D03*
X150867500Y-89655000D03*
D15*
X150905000Y-90155000D03*
D14*
X150867500Y-90655000D03*
X150867500Y-91155000D03*
X151642500Y-91155000D03*
X151642500Y-90655000D03*
D16*
X151667500Y-90155000D03*
D14*
X151642500Y-89655000D03*
X151642500Y-89155000D03*
%TD*%
D17*
%TO.C,U1*%
X138650000Y-62360000D03*
X138650000Y-63210000D03*
X138650000Y-64060000D03*
X138650000Y-64910000D03*
X138650000Y-65760000D03*
X138650000Y-66610000D03*
X138650000Y-67460000D03*
X138650000Y-68310000D03*
X138650000Y-69160000D03*
X138650000Y-70010000D03*
X138650000Y-70860000D03*
X138650000Y-71710000D03*
X138650000Y-72560000D03*
X138650000Y-73410000D03*
X138650000Y-74260000D03*
D18*
X139700000Y-75310000D03*
X140550000Y-75310000D03*
X141400000Y-75310000D03*
X142250000Y-75310000D03*
X143100000Y-75310000D03*
X143950000Y-75310000D03*
X144800000Y-75310000D03*
X145650000Y-75310000D03*
X146500000Y-75310000D03*
X147350000Y-75310000D03*
X148200000Y-75310000D03*
X149050000Y-75310000D03*
X149900000Y-75310000D03*
X150750000Y-75310000D03*
X151600000Y-75310000D03*
D17*
X152650000Y-74260000D03*
X152650000Y-73410000D03*
X152650000Y-72560000D03*
X152650000Y-71710000D03*
X152650000Y-70860000D03*
X152650000Y-70010000D03*
X152650000Y-69160000D03*
X152650000Y-68310000D03*
X152650000Y-67460000D03*
X152650000Y-66610000D03*
X152650000Y-65760000D03*
X152650000Y-64910000D03*
X152650000Y-64060000D03*
X152650000Y-63210000D03*
X152650000Y-62360000D03*
D18*
X151600000Y-61310000D03*
X150750000Y-61310000D03*
X149900000Y-61310000D03*
X149050000Y-61310000D03*
X148200000Y-61310000D03*
X147350000Y-61310000D03*
X146500000Y-61310000D03*
X145650000Y-61310000D03*
X144800000Y-61310000D03*
X143950000Y-61310000D03*
X143100000Y-61310000D03*
X142250000Y-61310000D03*
X141400000Y-61310000D03*
X140550000Y-61310000D03*
X139700000Y-61310000D03*
D19*
X144000000Y-66660000D03*
D20*
X144000000Y-68310000D03*
X144000000Y-69960000D03*
X145650000Y-66660000D03*
X145650000Y-68310000D03*
X145650000Y-69960000D03*
X147300000Y-66660000D03*
X147300000Y-68310000D03*
X147300000Y-69960000D03*
D21*
X138650000Y-61310000D03*
X138650000Y-75310000D03*
X152650000Y-75310000D03*
X152650000Y-61310000D03*
%TD*%
D22*
%TO.C,SW2*%
X133500000Y-87360000D03*
X140000000Y-87360000D03*
X133500000Y-91860000D03*
X140000000Y-91860000D03*
%TD*%
%TO.C,SW1*%
X133500000Y-78810000D03*
X140000000Y-78810000D03*
X133500000Y-83310000D03*
X140000000Y-83310000D03*
%TD*%
D23*
%TO.C,R4*%
X123900000Y-93900000D03*
X130000000Y-93900000D03*
%TD*%
%TO.C,R3*%
X123900000Y-89010000D03*
X130000000Y-89010000D03*
%TD*%
%TO.C,R2*%
X123900000Y-84120000D03*
X130000000Y-84120000D03*
%TD*%
%TO.C,R1*%
X123900000Y-79230000D03*
X130000000Y-79230000D03*
%TD*%
D24*
%TO.C,P1*%
X116950000Y-64160000D03*
X116100000Y-64160000D03*
X115250000Y-64160000D03*
X114400000Y-64160000D03*
X113550000Y-64160000D03*
X112700000Y-64160000D03*
X111850000Y-64160000D03*
X111000000Y-64160000D03*
X111000000Y-62810000D03*
X111850000Y-62810000D03*
X112700000Y-62810000D03*
X113550000Y-62810000D03*
X114400000Y-62810000D03*
X115250000Y-62810000D03*
X116100000Y-62810000D03*
X116950000Y-62810000D03*
D25*
X118300000Y-63180000D03*
D26*
X118300000Y-59800000D03*
D25*
X109650000Y-63180000D03*
D26*
X109650000Y-59800000D03*
%TD*%
D27*
%TO.C,D1*%
X144500000Y-91780000D03*
D28*
X147040000Y-91780000D03*
%TD*%
D29*
%TO.C,C6*%
X170317500Y-63860000D03*
X173442500Y-63860000D03*
%TD*%
%TO.C,C5*%
X170317500Y-59610000D03*
X173442500Y-59610000D03*
%TD*%
%TO.C,C4*%
X170317500Y-55360000D03*
X173442500Y-55360000D03*
%TD*%
%TO.C,C3*%
X170317500Y-51110000D03*
X173442500Y-51110000D03*
%TD*%
%TO.C,C2*%
X170317500Y-46860000D03*
X173442500Y-46860000D03*
%TD*%
%TO.C,C1*%
X170317500Y-42610000D03*
X173442500Y-42610000D03*
%TD*%
%LPD*%
M02*
