M48
; DRILL file {KiCad 8.0.5} date 2024-12-06T12:41:15-0500
; FORMAT={-:-/ absolute / inch / decimal}
; #@! TF.CreationDate,2024-12-06T12:41:15-05:00
; #@! TF.GenerationSoftware,Kicad,Pcbnew,8.0.5
; #@! TF.FileFunction,Plated,1,2,PTH
FMAT,2
INCH
; #@! TA.AperFunction,Plated,PTH,ComponentDrill
T1C0.0157
; #@! TA.AperFunction,Plated,PTH,ComponentDrill
T2C0.0236
; #@! TA.AperFunction,Plated,PTH,ComponentDrill
T3C0.0354
; #@! TA.AperFunction,Plated,PTH,ComponentDrill
T4C0.0433
%
G90
G05
T1
X4.3701Y-2.4728
X4.3701Y-2.526
X4.4035Y-2.4728
X4.4035Y-2.526
X4.437Y-2.4728
X4.437Y-2.526
X4.4705Y-2.4728
X4.4705Y-2.526
X4.5039Y-2.4728
X4.5039Y-2.526
X4.5374Y-2.4728
X4.5374Y-2.526
X4.5709Y-2.4728
X4.5709Y-2.526
X4.6043Y-2.4728
X4.6043Y-2.526
T3
X5.689Y-3.6134
X5.789Y-3.6134
T4
X5.2559Y-3.1028
X5.2559Y-3.2799
X5.2559Y-3.4394
X5.2559Y-3.6165
X5.5118Y-3.1028
X5.5118Y-3.2799
X5.5118Y-3.4394
X5.5118Y-3.6165
T2
G00X4.3169Y-2.3701
M15
G01X4.3169Y-2.3386
M16
G05
G00X4.3169Y-2.5169
M15
G01X4.3169Y-2.4579
M16
G05
G00X4.6575Y-2.3701
M15
G01X4.6575Y-2.3386
M16
G05
G00X4.6575Y-2.5169
M15
G01X4.6575Y-2.4579
M16
G05
M30
