%TF.GenerationSoftware,KiCad,Pcbnew,8.0.5*%
%TF.CreationDate,2024-12-06T12:41:15-05:00*%
%TF.ProjectId,user_interface,75736572-5f69-46e7-9465-72666163652e,rev?*%
%TF.SameCoordinates,Original*%
%TF.FileFunction,Soldermask,Top*%
%TF.FilePolarity,Negative*%
%FSLAX46Y46*%
G04 Gerber Fmt 4.6, Leading zero omitted, Abs format (unit mm)*
G04 Created by KiCad (PCBNEW 8.0.5) date 2024-12-06 12:41:15*
%MOMM*%
%LPD*%
G01*
G04 APERTURE LIST*
G04 Aperture macros list*
%AMRoundRect*
0 Rectangle with rounded corners*
0 $1 Rounding radius*
0 $2 $3 $4 $5 $6 $7 $8 $9 X,Y pos of 4 corners*
0 Add a 4 corners polygon primitive as box body*
4,1,4,$2,$3,$4,$5,$6,$7,$8,$9,$2,$3,0*
0 Add four circle primitives for the rounded corners*
1,1,$1+$1,$2,$3*
1,1,$1+$1,$4,$5*
1,1,$1+$1,$6,$7*
1,1,$1+$1,$8,$9*
0 Add four rect primitives between the rounded corners*
20,1,$1+$1,$2,$3,$4,$5,0*
20,1,$1+$1,$4,$5,$6,$7,0*
20,1,$1+$1,$6,$7,$8,$9,0*
20,1,$1+$1,$8,$9,$2,$3,0*%
%AMOutline5P*
0 Free polygon, 5 corners , with rotation*
0 The origin of the aperture is its center*
0 number of corners: always 5*
0 $1 to $10 corner X, Y*
0 $11 Rotation angle, in degrees counterclockwise*
0 create outline with 5 corners*
4,1,5,$1,$2,$3,$4,$5,$6,$7,$8,$9,$10,$1,$2,$11*%
%AMOutline6P*
0 Free polygon, 6 corners , with rotation*
0 The origin of the aperture is its center*
0 number of corners: always 6*
0 $1 to $12 corner X, Y*
0 $13 Rotation angle, in degrees counterclockwise*
0 create outline with 6 corners*
4,1,6,$1,$2,$3,$4,$5,$6,$7,$8,$9,$10,$11,$12,$1,$2,$13*%
%AMOutline7P*
0 Free polygon, 7 corners , with rotation*
0 The origin of the aperture is its center*
0 number of corners: always 7*
0 $1 to $14 corner X, Y*
0 $15 Rotation angle, in degrees counterclockwise*
0 create outline with 7 corners*
4,1,7,$1,$2,$3,$4,$5,$6,$7,$8,$9,$10,$11,$12,$13,$14,$1,$2,$15*%
%AMOutline8P*
0 Free polygon, 8 corners , with rotation*
0 The origin of the aperture is its center*
0 number of corners: always 8*
0 $1 to $16 corner X, Y*
0 $17 Rotation angle, in degrees counterclockwise*
0 create outline with 8 corners*
4,1,8,$1,$2,$3,$4,$5,$6,$7,$8,$9,$10,$11,$12,$13,$14,$15,$16,$1,$2,$17*%
G04 Aperture macros list end*
%ADD10RoundRect,0.093750X-0.093750X-0.106250X0.093750X-0.106250X0.093750X0.106250X-0.093750X0.106250X0*%
%ADD11R,1.000000X1.600000*%
%ADD12R,0.625000X0.250000*%
%ADD13R,0.700000X0.450000*%
%ADD14R,0.575000X0.450000*%
%ADD15R,0.800000X0.400000*%
%ADD16R,0.400000X0.800000*%
%ADD17Outline5P,-0.600000X0.204000X-0.204000X0.600000X0.600000X0.600000X0.600000X-0.600000X-0.600000X-0.600000X0.000000*%
%ADD18R,1.200000X1.200000*%
%ADD19R,0.800000X0.800000*%
%ADD20C,2.000000*%
%ADD21RoundRect,0.249999X-0.450001X-1.425001X0.450001X-1.425001X0.450001X1.425001X-0.450001X1.425001X0*%
%ADD22C,0.700000*%
%ADD23O,0.900000X2.400000*%
%ADD24O,0.900000X1.700000*%
%ADD25R,1.800000X1.800000*%
%ADD26C,1.800000*%
%ADD27RoundRect,0.250000X-0.412500X-1.100000X0.412500X-1.100000X0.412500X1.100000X-0.412500X1.100000X0*%
G04 APERTURE END LIST*
D10*
%TO.C,U3*%
X150717500Y-93375000D03*
X150717500Y-94025000D03*
X150717500Y-94675000D03*
X152492500Y-94675000D03*
X152492500Y-94025000D03*
X152492500Y-93375000D03*
D11*
X151605000Y-94025000D03*
%TD*%
D12*
%TO.C,U2*%
X150867500Y-89155000D03*
X150867500Y-89655000D03*
D13*
X150905000Y-90155000D03*
D12*
X150867500Y-90655000D03*
X150867500Y-91155000D03*
X151642500Y-91155000D03*
X151642500Y-90655000D03*
D14*
X151667500Y-90155000D03*
D12*
X151642500Y-89655000D03*
X151642500Y-89155000D03*
%TD*%
D15*
%TO.C,U1*%
X138650000Y-62360000D03*
X138650000Y-63210000D03*
X138650000Y-64060000D03*
X138650000Y-64910000D03*
X138650000Y-65760000D03*
X138650000Y-66610000D03*
X138650000Y-67460000D03*
X138650000Y-68310000D03*
X138650000Y-69160000D03*
X138650000Y-70010000D03*
X138650000Y-70860000D03*
X138650000Y-71710000D03*
X138650000Y-72560000D03*
X138650000Y-73410000D03*
X138650000Y-74260000D03*
D16*
X139700000Y-75310000D03*
X140550000Y-75310000D03*
X141400000Y-75310000D03*
X142250000Y-75310000D03*
X143100000Y-75310000D03*
X143950000Y-75310000D03*
X144800000Y-75310000D03*
X145650000Y-75310000D03*
X146500000Y-75310000D03*
X147350000Y-75310000D03*
X148200000Y-75310000D03*
X149050000Y-75310000D03*
X149900000Y-75310000D03*
X150750000Y-75310000D03*
X151600000Y-75310000D03*
D15*
X152650000Y-74260000D03*
X152650000Y-73410000D03*
X152650000Y-72560000D03*
X152650000Y-71710000D03*
X152650000Y-70860000D03*
X152650000Y-70010000D03*
X152650000Y-69160000D03*
X152650000Y-68310000D03*
X152650000Y-67460000D03*
X152650000Y-66610000D03*
X152650000Y-65760000D03*
X152650000Y-64910000D03*
X152650000Y-64060000D03*
X152650000Y-63210000D03*
X152650000Y-62360000D03*
D16*
X151600000Y-61310000D03*
X150750000Y-61310000D03*
X149900000Y-61310000D03*
X149050000Y-61310000D03*
X148200000Y-61310000D03*
X147350000Y-61310000D03*
X146500000Y-61310000D03*
X145650000Y-61310000D03*
X144800000Y-61310000D03*
X143950000Y-61310000D03*
X143100000Y-61310000D03*
X142250000Y-61310000D03*
X141400000Y-61310000D03*
X140550000Y-61310000D03*
X139700000Y-61310000D03*
D17*
X144000000Y-66660000D03*
D18*
X144000000Y-68310000D03*
X144000000Y-69960000D03*
X145650000Y-66660000D03*
X145650000Y-68310000D03*
X145650000Y-69960000D03*
X147300000Y-66660000D03*
X147300000Y-68310000D03*
X147300000Y-69960000D03*
D19*
X138650000Y-61310000D03*
X138650000Y-75310000D03*
X152650000Y-75310000D03*
X152650000Y-61310000D03*
%TD*%
D20*
%TO.C,SW2*%
X133500000Y-87360000D03*
X140000000Y-87360000D03*
X133500000Y-91860000D03*
X140000000Y-91860000D03*
%TD*%
%TO.C,SW1*%
X133500000Y-78810000D03*
X140000000Y-78810000D03*
X133500000Y-83310000D03*
X140000000Y-83310000D03*
%TD*%
D21*
%TO.C,R4*%
X123900000Y-93900000D03*
X130000000Y-93900000D03*
%TD*%
%TO.C,R3*%
X123900000Y-89010000D03*
X130000000Y-89010000D03*
%TD*%
%TO.C,R2*%
X123900000Y-84120000D03*
X130000000Y-84120000D03*
%TD*%
%TO.C,R1*%
X123900000Y-79230000D03*
X130000000Y-79230000D03*
%TD*%
D22*
%TO.C,P1*%
X116950000Y-64160000D03*
X116100000Y-64160000D03*
X115250000Y-64160000D03*
X114400000Y-64160000D03*
X113550000Y-64160000D03*
X112700000Y-64160000D03*
X111850000Y-64160000D03*
X111000000Y-64160000D03*
X111000000Y-62810000D03*
X111850000Y-62810000D03*
X112700000Y-62810000D03*
X113550000Y-62810000D03*
X114400000Y-62810000D03*
X115250000Y-62810000D03*
X116100000Y-62810000D03*
X116950000Y-62810000D03*
D23*
X118300000Y-63180000D03*
D24*
X118300000Y-59800000D03*
D23*
X109650000Y-63180000D03*
D24*
X109650000Y-59800000D03*
%TD*%
D25*
%TO.C,D1*%
X144500000Y-91780000D03*
D26*
X147040000Y-91780000D03*
%TD*%
D27*
%TO.C,C6*%
X170317500Y-63860000D03*
X173442500Y-63860000D03*
%TD*%
%TO.C,C5*%
X170317500Y-59610000D03*
X173442500Y-59610000D03*
%TD*%
%TO.C,C4*%
X170317500Y-55360000D03*
X173442500Y-55360000D03*
%TD*%
%TO.C,C3*%
X170317500Y-51110000D03*
X173442500Y-51110000D03*
%TD*%
%TO.C,C2*%
X170317500Y-46860000D03*
X173442500Y-46860000D03*
%TD*%
%TO.C,C1*%
X170317500Y-42610000D03*
X173442500Y-42610000D03*
%TD*%
M02*
