%TF.GenerationSoftware,KiCad,Pcbnew,8.0.5*%
%TF.CreationDate,2024-12-06T12:41:15-05:00*%
%TF.ProjectId,user_interface,75736572-5f69-46e7-9465-72666163652e,rev?*%
%TF.SameCoordinates,Original*%
%TF.FileFunction,Other,Comment*%
%FSLAX46Y46*%
G04 Gerber Fmt 4.6, Leading zero omitted, Abs format (unit mm)*
G04 Created by KiCad (PCBNEW 8.0.5) date 2024-12-06 12:41:15*
%MOMM*%
%LPD*%
G01*
G04 APERTURE LIST*
%ADD10C,0.150000*%
G04 APERTURE END LIST*
D10*
X140878094Y-50854819D02*
X140878094Y-49854819D01*
X141449522Y-50854819D02*
X141020951Y-50283390D01*
X141449522Y-49854819D02*
X140878094Y-50426247D01*
X142259046Y-50807200D02*
X142163808Y-50854819D01*
X142163808Y-50854819D02*
X141973332Y-50854819D01*
X141973332Y-50854819D02*
X141878094Y-50807200D01*
X141878094Y-50807200D02*
X141830475Y-50711961D01*
X141830475Y-50711961D02*
X141830475Y-50331009D01*
X141830475Y-50331009D02*
X141878094Y-50235771D01*
X141878094Y-50235771D02*
X141973332Y-50188152D01*
X141973332Y-50188152D02*
X142163808Y-50188152D01*
X142163808Y-50188152D02*
X142259046Y-50235771D01*
X142259046Y-50235771D02*
X142306665Y-50331009D01*
X142306665Y-50331009D02*
X142306665Y-50426247D01*
X142306665Y-50426247D02*
X141830475Y-50521485D01*
X143116189Y-50807200D02*
X143020951Y-50854819D01*
X143020951Y-50854819D02*
X142830475Y-50854819D01*
X142830475Y-50854819D02*
X142735237Y-50807200D01*
X142735237Y-50807200D02*
X142687618Y-50711961D01*
X142687618Y-50711961D02*
X142687618Y-50331009D01*
X142687618Y-50331009D02*
X142735237Y-50235771D01*
X142735237Y-50235771D02*
X142830475Y-50188152D01*
X142830475Y-50188152D02*
X143020951Y-50188152D01*
X143020951Y-50188152D02*
X143116189Y-50235771D01*
X143116189Y-50235771D02*
X143163808Y-50331009D01*
X143163808Y-50331009D02*
X143163808Y-50426247D01*
X143163808Y-50426247D02*
X142687618Y-50521485D01*
X143592380Y-50188152D02*
X143592380Y-51188152D01*
X143592380Y-50235771D02*
X143687618Y-50188152D01*
X143687618Y-50188152D02*
X143878094Y-50188152D01*
X143878094Y-50188152D02*
X143973332Y-50235771D01*
X143973332Y-50235771D02*
X144020951Y-50283390D01*
X144020951Y-50283390D02*
X144068570Y-50378628D01*
X144068570Y-50378628D02*
X144068570Y-50664342D01*
X144068570Y-50664342D02*
X144020951Y-50759580D01*
X144020951Y-50759580D02*
X143973332Y-50807200D01*
X143973332Y-50807200D02*
X143878094Y-50854819D01*
X143878094Y-50854819D02*
X143687618Y-50854819D01*
X143687618Y-50854819D02*
X143592380Y-50807200D01*
X144639999Y-50854819D02*
X144544761Y-50807200D01*
X144544761Y-50807200D02*
X144497142Y-50759580D01*
X144497142Y-50759580D02*
X144449523Y-50664342D01*
X144449523Y-50664342D02*
X144449523Y-50378628D01*
X144449523Y-50378628D02*
X144497142Y-50283390D01*
X144497142Y-50283390D02*
X144544761Y-50235771D01*
X144544761Y-50235771D02*
X144639999Y-50188152D01*
X144639999Y-50188152D02*
X144782856Y-50188152D01*
X144782856Y-50188152D02*
X144878094Y-50235771D01*
X144878094Y-50235771D02*
X144925713Y-50283390D01*
X144925713Y-50283390D02*
X144973332Y-50378628D01*
X144973332Y-50378628D02*
X144973332Y-50664342D01*
X144973332Y-50664342D02*
X144925713Y-50759580D01*
X144925713Y-50759580D02*
X144878094Y-50807200D01*
X144878094Y-50807200D02*
X144782856Y-50854819D01*
X144782856Y-50854819D02*
X144639999Y-50854819D01*
X145830475Y-50188152D02*
X145830475Y-50854819D01*
X145401904Y-50188152D02*
X145401904Y-50711961D01*
X145401904Y-50711961D02*
X145449523Y-50807200D01*
X145449523Y-50807200D02*
X145544761Y-50854819D01*
X145544761Y-50854819D02*
X145687618Y-50854819D01*
X145687618Y-50854819D02*
X145782856Y-50807200D01*
X145782856Y-50807200D02*
X145830475Y-50759580D01*
X146163809Y-50188152D02*
X146544761Y-50188152D01*
X146306666Y-49854819D02*
X146306666Y-50711961D01*
X146306666Y-50711961D02*
X146354285Y-50807200D01*
X146354285Y-50807200D02*
X146449523Y-50854819D01*
X146449523Y-50854819D02*
X146544761Y-50854819D01*
X147592381Y-50569104D02*
X148068571Y-50569104D01*
X147497143Y-50854819D02*
X147830476Y-49854819D01*
X147830476Y-49854819D02*
X148163809Y-50854819D01*
X148497143Y-50854819D02*
X148497143Y-50188152D01*
X148497143Y-50378628D02*
X148544762Y-50283390D01*
X148544762Y-50283390D02*
X148592381Y-50235771D01*
X148592381Y-50235771D02*
X148687619Y-50188152D01*
X148687619Y-50188152D02*
X148782857Y-50188152D01*
X149497143Y-50807200D02*
X149401905Y-50854819D01*
X149401905Y-50854819D02*
X149211429Y-50854819D01*
X149211429Y-50854819D02*
X149116191Y-50807200D01*
X149116191Y-50807200D02*
X149068572Y-50711961D01*
X149068572Y-50711961D02*
X149068572Y-50331009D01*
X149068572Y-50331009D02*
X149116191Y-50235771D01*
X149116191Y-50235771D02*
X149211429Y-50188152D01*
X149211429Y-50188152D02*
X149401905Y-50188152D01*
X149401905Y-50188152D02*
X149497143Y-50235771D01*
X149497143Y-50235771D02*
X149544762Y-50331009D01*
X149544762Y-50331009D02*
X149544762Y-50426247D01*
X149544762Y-50426247D02*
X149068572Y-50521485D01*
X150401905Y-50854819D02*
X150401905Y-50331009D01*
X150401905Y-50331009D02*
X150354286Y-50235771D01*
X150354286Y-50235771D02*
X150259048Y-50188152D01*
X150259048Y-50188152D02*
X150068572Y-50188152D01*
X150068572Y-50188152D02*
X149973334Y-50235771D01*
X150401905Y-50807200D02*
X150306667Y-50854819D01*
X150306667Y-50854819D02*
X150068572Y-50854819D01*
X150068572Y-50854819D02*
X149973334Y-50807200D01*
X149973334Y-50807200D02*
X149925715Y-50711961D01*
X149925715Y-50711961D02*
X149925715Y-50616723D01*
X149925715Y-50616723D02*
X149973334Y-50521485D01*
X149973334Y-50521485D02*
X150068572Y-50473866D01*
X150068572Y-50473866D02*
X150306667Y-50473866D01*
X150306667Y-50473866D02*
X150401905Y-50426247D01*
X142888095Y-58254104D02*
X143364285Y-58254104D01*
X142792857Y-58539819D02*
X143126190Y-57539819D01*
X143126190Y-57539819D02*
X143459523Y-58539819D01*
X143792857Y-57873152D02*
X143792857Y-58539819D01*
X143792857Y-57968390D02*
X143840476Y-57920771D01*
X143840476Y-57920771D02*
X143935714Y-57873152D01*
X143935714Y-57873152D02*
X144078571Y-57873152D01*
X144078571Y-57873152D02*
X144173809Y-57920771D01*
X144173809Y-57920771D02*
X144221428Y-58016009D01*
X144221428Y-58016009D02*
X144221428Y-58539819D01*
X144554762Y-57873152D02*
X144935714Y-57873152D01*
X144697619Y-57539819D02*
X144697619Y-58396961D01*
X144697619Y-58396961D02*
X144745238Y-58492200D01*
X144745238Y-58492200D02*
X144840476Y-58539819D01*
X144840476Y-58539819D02*
X144935714Y-58539819D01*
X145650000Y-58492200D02*
X145554762Y-58539819D01*
X145554762Y-58539819D02*
X145364286Y-58539819D01*
X145364286Y-58539819D02*
X145269048Y-58492200D01*
X145269048Y-58492200D02*
X145221429Y-58396961D01*
X145221429Y-58396961D02*
X145221429Y-58016009D01*
X145221429Y-58016009D02*
X145269048Y-57920771D01*
X145269048Y-57920771D02*
X145364286Y-57873152D01*
X145364286Y-57873152D02*
X145554762Y-57873152D01*
X145554762Y-57873152D02*
X145650000Y-57920771D01*
X145650000Y-57920771D02*
X145697619Y-58016009D01*
X145697619Y-58016009D02*
X145697619Y-58111247D01*
X145697619Y-58111247D02*
X145221429Y-58206485D01*
X146126191Y-57873152D02*
X146126191Y-58539819D01*
X146126191Y-57968390D02*
X146173810Y-57920771D01*
X146173810Y-57920771D02*
X146269048Y-57873152D01*
X146269048Y-57873152D02*
X146411905Y-57873152D01*
X146411905Y-57873152D02*
X146507143Y-57920771D01*
X146507143Y-57920771D02*
X146554762Y-58016009D01*
X146554762Y-58016009D02*
X146554762Y-58539819D01*
X147030953Y-57873152D02*
X147030953Y-58539819D01*
X147030953Y-57968390D02*
X147078572Y-57920771D01*
X147078572Y-57920771D02*
X147173810Y-57873152D01*
X147173810Y-57873152D02*
X147316667Y-57873152D01*
X147316667Y-57873152D02*
X147411905Y-57920771D01*
X147411905Y-57920771D02*
X147459524Y-58016009D01*
X147459524Y-58016009D02*
X147459524Y-58539819D01*
X148364286Y-58539819D02*
X148364286Y-58016009D01*
X148364286Y-58016009D02*
X148316667Y-57920771D01*
X148316667Y-57920771D02*
X148221429Y-57873152D01*
X148221429Y-57873152D02*
X148030953Y-57873152D01*
X148030953Y-57873152D02*
X147935715Y-57920771D01*
X148364286Y-58492200D02*
X148269048Y-58539819D01*
X148269048Y-58539819D02*
X148030953Y-58539819D01*
X148030953Y-58539819D02*
X147935715Y-58492200D01*
X147935715Y-58492200D02*
X147888096Y-58396961D01*
X147888096Y-58396961D02*
X147888096Y-58301723D01*
X147888096Y-58301723D02*
X147935715Y-58206485D01*
X147935715Y-58206485D02*
X148030953Y-58158866D01*
X148030953Y-58158866D02*
X148269048Y-58158866D01*
X148269048Y-58158866D02*
X148364286Y-58111247D01*
M02*
