%TF.GenerationSoftware,KiCad,Pcbnew,8.0.4*%
%TF.CreationDate,2024-08-20T08:37:01-04:00*%
%TF.ProjectId,proj2,70726f6a-322e-46b6-9963-61645f706362,rev?*%
%TF.SameCoordinates,Original*%
%TF.FileFunction,Drillmap*%
%TF.FilePolarity,Positive*%
%FSLAX45Y45*%
G04 Gerber Fmt 4.5, Leading zero omitted, Abs format (unit mm)*
G04 Created by KiCad (PCBNEW 8.0.4) date 2024-08-20 08:37:01*
%MOMM*%
%LPD*%
G01*
G04 APERTURE LIST*
%ADD10C,0.200000*%
%ADD11C,0.100000*%
%ADD12C,0.120000*%
%ADD13C,0.130000*%
G04 APERTURE END LIST*
D10*
X12005000Y-8472500D02*
X19109000Y-8472500D01*
X19109000Y-11661500D01*
X12005000Y-11661500D01*
X12005000Y-8472500D01*
D11*
X14229000Y-10191500D02*
X14259000Y-10221500D01*
X14259000Y-10191500D02*
X14229000Y-10221500D01*
X14295000Y-9725500D02*
X14325000Y-9755500D01*
X14325000Y-9725500D02*
X14295000Y-9755500D01*
X14427000Y-9721500D02*
X14457000Y-9751500D01*
X14457000Y-9721500D02*
X14427000Y-9751500D01*
X14866000Y-10540574D02*
X14896000Y-10570574D01*
X14896000Y-10540574D02*
X14866000Y-10570574D01*
X15008926Y-10568427D02*
X15038926Y-10598427D01*
X15038926Y-10568427D02*
X15008926Y-10598427D01*
X16206007Y-10342500D02*
X16236007Y-10372500D01*
X16236007Y-10342500D02*
X16206007Y-10372500D01*
X16319000Y-10037500D02*
X16349000Y-10067500D01*
X16349000Y-10037500D02*
X16319000Y-10067500D01*
X16476241Y-9877633D02*
X16506241Y-9907633D01*
X16506241Y-9877633D02*
X16476241Y-9907633D01*
X16481257Y-10027390D02*
X16511257Y-10057390D01*
X16511257Y-10027390D02*
X16481257Y-10057390D01*
X16485000Y-10107303D02*
X16515000Y-10137303D01*
X16515000Y-10107303D02*
X16485000Y-10137303D01*
X16506786Y-9951573D02*
X16536786Y-9981573D01*
X16536786Y-9951573D02*
X16506786Y-9981573D01*
X16628602Y-9877790D02*
X16658602Y-9907790D01*
X16658602Y-9877790D02*
X16628602Y-9907790D01*
X16643364Y-9956417D02*
X16673364Y-9986417D01*
X16673364Y-9956417D02*
X16643364Y-9986417D01*
X16645000Y-10116500D02*
X16675000Y-10146500D01*
X16675000Y-10116500D02*
X16645000Y-10146500D01*
X16648075Y-10036559D02*
X16678075Y-10066559D01*
X16678075Y-10036559D02*
X16648075Y-10066559D01*
X16935000Y-10218500D02*
X16965000Y-10248500D01*
X16965000Y-10218500D02*
X16935000Y-10248500D01*
X16971000Y-10449500D02*
X17001000Y-10479500D01*
X17001000Y-10449500D02*
X16971000Y-10479500D01*
X16986000Y-9958500D02*
X17016000Y-9988500D01*
X17016000Y-9958500D02*
X16986000Y-9988500D01*
X17013505Y-10897500D02*
X17043505Y-10927500D01*
X17043505Y-10897500D02*
X17013505Y-10927500D01*
X17137978Y-9531250D02*
X17167978Y-9561250D01*
X17167978Y-9531250D02*
X17137978Y-9561250D01*
X17145000Y-9090500D02*
X17175000Y-9120500D01*
X17175000Y-9090500D02*
X17145000Y-9120500D01*
X17253037Y-8972262D02*
X17283037Y-9002262D01*
X17283037Y-8972262D02*
X17253037Y-9002262D01*
X17322213Y-9531250D02*
X17352213Y-9561250D01*
X17352213Y-9531250D02*
X17322213Y-9561250D01*
X17400606Y-9562253D02*
X17430606Y-9592253D01*
X17430606Y-9562253D02*
X17400606Y-9592253D01*
X17460606Y-9483250D02*
X17490606Y-9513250D01*
X17490606Y-9483250D02*
X17460606Y-9513250D01*
X17484081Y-9792500D02*
X17514081Y-9822500D01*
X17514081Y-9792500D02*
X17484081Y-9822500D01*
X17499000Y-10041500D02*
X17529000Y-10071500D01*
X17529000Y-10041500D02*
X17499000Y-10071500D01*
X17501381Y-9714393D02*
X17531381Y-9744393D01*
X17531381Y-9714393D02*
X17501381Y-9744393D01*
X17540591Y-9484779D02*
X17570591Y-9514779D01*
X17570591Y-9484779D02*
X17540591Y-9514779D01*
X17582000Y-9174876D02*
X17612000Y-9204876D01*
X17612000Y-9174876D02*
X17582000Y-9204876D01*
X17619828Y-9473749D02*
X17649828Y-9503749D01*
X17649828Y-9473749D02*
X17619828Y-9503749D01*
X17662853Y-9792500D02*
X17692853Y-9822500D01*
X17692853Y-9792500D02*
X17662853Y-9822500D01*
X17777000Y-10814500D02*
X17807000Y-10844500D01*
X17807000Y-10814500D02*
X17777000Y-10844500D01*
X17878501Y-10816353D02*
X17908501Y-10846353D01*
X17908501Y-10816353D02*
X17878501Y-10846353D01*
X18015000Y-11417500D02*
X18045000Y-11447500D01*
X18045000Y-11417500D02*
X18015000Y-11447500D01*
X18212000Y-10843500D02*
X18242000Y-10873500D01*
X18242000Y-10843500D02*
X18212000Y-10873500D01*
X18216000Y-10708500D02*
X18246000Y-10738500D01*
X18246000Y-10708500D02*
X18216000Y-10738500D01*
X18272000Y-10910155D02*
X18302000Y-10940155D01*
X18302000Y-10910155D02*
X18272000Y-10940155D01*
X18272000Y-11003754D02*
X18302000Y-11033754D01*
X18302000Y-11003754D02*
X18272000Y-11033754D01*
X18304634Y-10053500D02*
X18334634Y-10083500D01*
X18334634Y-10053500D02*
X18304634Y-10083500D01*
X18399000Y-9993500D02*
X18429000Y-10023500D01*
X18429000Y-9993500D02*
X18399000Y-10023500D01*
X17775000Y-11051500D02*
G75*
G02*
X17745000Y-11051500I-15000J0D01*
G01*
X17745000Y-11051500D02*
G75*
G02*
X17775000Y-11051500I15000J0D01*
G01*
X17775000Y-11126500D02*
G75*
G02*
X17745000Y-11126500I-15000J0D01*
G01*
X17745000Y-11126500D02*
G75*
G02*
X17775000Y-11126500I15000J0D01*
G01*
X17775000Y-11201500D02*
G75*
G02*
X17745000Y-11201500I-15000J0D01*
G01*
X17745000Y-11201500D02*
G75*
G02*
X17775000Y-11201500I15000J0D01*
G01*
X17850000Y-11051500D02*
G75*
G02*
X17820000Y-11051500I-15000J0D01*
G01*
X17820000Y-11051500D02*
G75*
G02*
X17850000Y-11051500I15000J0D01*
G01*
X17850000Y-11126500D02*
G75*
G02*
X17820000Y-11126500I-15000J0D01*
G01*
X17820000Y-11126500D02*
G75*
G02*
X17850000Y-11126500I15000J0D01*
G01*
X17850000Y-11201500D02*
G75*
G02*
X17820000Y-11201500I-15000J0D01*
G01*
X17820000Y-11201500D02*
G75*
G02*
X17850000Y-11201500I15000J0D01*
G01*
X17925000Y-11051500D02*
G75*
G02*
X17895000Y-11051500I-15000J0D01*
G01*
X17895000Y-11051500D02*
G75*
G02*
X17925000Y-11051500I15000J0D01*
G01*
X17925000Y-11126500D02*
G75*
G02*
X17895000Y-11126500I-15000J0D01*
G01*
X17895000Y-11126500D02*
G75*
G02*
X17925000Y-11126500I15000J0D01*
G01*
X17925000Y-11201500D02*
G75*
G02*
X17895000Y-11201500I-15000J0D01*
G01*
X17895000Y-11201500D02*
G75*
G02*
X17925000Y-11201500I15000J0D01*
G01*
X17309000Y-8715000D02*
X17309000Y-8780000D01*
X17276500Y-8747500D02*
X17341500Y-8747500D01*
X17436000Y-8715000D02*
X17436000Y-8780000D01*
X17403500Y-8747500D02*
X17468500Y-8747500D01*
X17563000Y-8715000D02*
X17563000Y-8780000D01*
X17530500Y-8747500D02*
X17595500Y-8747500D01*
X17690000Y-8715000D02*
X17690000Y-8780000D01*
X17657500Y-8747500D02*
X17722500Y-8747500D01*
X17817000Y-8715000D02*
X17817000Y-8780000D01*
X17784500Y-8747500D02*
X17849500Y-8747500D01*
X17944000Y-8715000D02*
X17944000Y-8780000D01*
X17911500Y-8747500D02*
X17976500Y-8747500D01*
X14777284Y-9670785D02*
X14777284Y-9614216D01*
X14720715Y-9614216D01*
X14720715Y-9670785D01*
X14777284Y-9670785D01*
X14777284Y-10432785D02*
X14777284Y-10376216D01*
X14720715Y-10376216D01*
X14720715Y-10432785D01*
X14777284Y-10432785D01*
X15045284Y-9674785D02*
X15045284Y-9618216D01*
X14988715Y-9618216D01*
X14988715Y-9674785D01*
X15045284Y-9674785D01*
X15045284Y-10436785D02*
X15045284Y-10380216D01*
X14988715Y-10380216D01*
X14988715Y-10436785D01*
X15045284Y-10436785D01*
X15319284Y-9672785D02*
X15319284Y-9616216D01*
X15262715Y-9616216D01*
X15262715Y-9672785D01*
X15319284Y-9672785D01*
X15319284Y-10434785D02*
X15319284Y-10378216D01*
X15262715Y-10378216D01*
X15262715Y-10434785D01*
X15319284Y-10434785D01*
X15585284Y-9666785D02*
X15585284Y-9610216D01*
X15528715Y-9610216D01*
X15528715Y-9666785D01*
X15585284Y-9666785D01*
X15585284Y-10428785D02*
X15585284Y-10372216D01*
X15528715Y-10372216D01*
X15528715Y-10428785D01*
X15585284Y-10428785D01*
X15908284Y-9673785D02*
X15908284Y-9617216D01*
X15851715Y-9617216D01*
X15851715Y-9673785D01*
X15908284Y-9673785D01*
X15908284Y-10435785D02*
X15908284Y-10379216D01*
X15851715Y-10379216D01*
X15851715Y-10435785D01*
X15908284Y-10435785D01*
X16165000Y-8984500D02*
X16215000Y-8934500D01*
X16165000Y-8884500D01*
X16115000Y-8934500D01*
X16165000Y-8984500D01*
X16165000Y-9238500D02*
X16215000Y-9188500D01*
X16165000Y-9138500D01*
X16115000Y-9188500D01*
X16165000Y-9238500D01*
X16535000Y-8984500D02*
X16585000Y-8934500D01*
X16535000Y-8884500D01*
X16485000Y-8934500D01*
X16535000Y-8984500D01*
X16535000Y-9238500D02*
X16585000Y-9188500D01*
X16535000Y-9138500D01*
X16485000Y-9188500D01*
X16535000Y-9238500D01*
X16903000Y-8984500D02*
X16953000Y-8934500D01*
X16903000Y-8884500D01*
X16853000Y-8934500D01*
X16903000Y-8984500D01*
X16903000Y-9238500D02*
X16953000Y-9188500D01*
X16903000Y-9138500D01*
X16853000Y-9188500D01*
X16903000Y-9238500D01*
D12*
X12952000Y-9335500D02*
X13072000Y-9455500D01*
X13072000Y-9335500D02*
X12952000Y-9455500D01*
X13072000Y-9395500D02*
G75*
G02*
X12952000Y-9395500I-60000J0D01*
G01*
X12952000Y-9395500D02*
G75*
G02*
X13072000Y-9395500I60000J0D01*
G01*
X12952000Y-9855500D02*
X13072000Y-9975500D01*
X13072000Y-9855500D02*
X12952000Y-9975500D01*
X13072000Y-9915500D02*
G75*
G02*
X12952000Y-9915500I-60000J0D01*
G01*
X12952000Y-9915500D02*
G75*
G02*
X13072000Y-9915500I60000J0D01*
G01*
X13682000Y-9245500D02*
X13802000Y-9365500D01*
X13802000Y-9245500D02*
X13682000Y-9365500D01*
X13802000Y-9305500D02*
G75*
G02*
X13682000Y-9305500I-60000J0D01*
G01*
X13682000Y-9305500D02*
G75*
G02*
X13802000Y-9305500I60000J0D01*
G01*
X13682000Y-9855500D02*
X13802000Y-9975500D01*
X13802000Y-9855500D02*
X13682000Y-9975500D01*
X13802000Y-9915500D02*
G75*
G02*
X13682000Y-9915500I-60000J0D01*
G01*
X13682000Y-9915500D02*
G75*
G02*
X13802000Y-9915500I60000J0D01*
G01*
X13682000Y-10465500D02*
X13802000Y-10585500D01*
X13802000Y-10465500D02*
X13682000Y-10585500D01*
X13802000Y-10525500D02*
G75*
G02*
X13682000Y-10525500I-60000J0D01*
G01*
X13682000Y-10525500D02*
G75*
G02*
X13802000Y-10525500I60000J0D01*
G01*
X14342000Y-8935500D02*
X14462000Y-9055500D01*
X14462000Y-8935500D02*
X14342000Y-9055500D01*
X14462000Y-8995500D02*
G75*
G02*
X14342000Y-8995500I-60000J0D01*
G01*
X14342000Y-8995500D02*
G75*
G02*
X14462000Y-8995500I60000J0D01*
G01*
D13*
X15018000Y-9004500D02*
X15148000Y-9134500D01*
X15148000Y-9004500D02*
X15018000Y-9134500D01*
X15083000Y-9004500D02*
X15083000Y-9134500D01*
X15018000Y-9069500D02*
X15148000Y-9069500D01*
X15518000Y-9004500D02*
X15648000Y-9134500D01*
X15648000Y-9004500D02*
X15518000Y-9134500D01*
X15583000Y-9004500D02*
X15583000Y-9134500D01*
X15518000Y-9069500D02*
X15648000Y-9069500D01*
X18502000Y-8708000D02*
X18632000Y-8838000D01*
X18632000Y-8708000D02*
X18502000Y-8838000D01*
X18567000Y-8708000D02*
X18567000Y-8838000D01*
X18502000Y-8773000D02*
X18632000Y-8773000D01*
X18502000Y-9208000D02*
X18632000Y-9338000D01*
X18632000Y-9208000D02*
X18502000Y-9338000D01*
X18567000Y-9208000D02*
X18567000Y-9338000D01*
X18502000Y-9273000D02*
X18632000Y-9273000D01*
D10*
X12255777Y-11982984D02*
X12255777Y-11782984D01*
X12255777Y-11782984D02*
X12303396Y-11782984D01*
X12303396Y-11782984D02*
X12331967Y-11792508D01*
X12331967Y-11792508D02*
X12351015Y-11811555D01*
X12351015Y-11811555D02*
X12360539Y-11830603D01*
X12360539Y-11830603D02*
X12370062Y-11868698D01*
X12370062Y-11868698D02*
X12370062Y-11897269D01*
X12370062Y-11897269D02*
X12360539Y-11935365D01*
X12360539Y-11935365D02*
X12351015Y-11954412D01*
X12351015Y-11954412D02*
X12331967Y-11973460D01*
X12331967Y-11973460D02*
X12303396Y-11982984D01*
X12303396Y-11982984D02*
X12255777Y-11982984D01*
X12455777Y-11982984D02*
X12455777Y-11849650D01*
X12455777Y-11887746D02*
X12465301Y-11868698D01*
X12465301Y-11868698D02*
X12474824Y-11859174D01*
X12474824Y-11859174D02*
X12493872Y-11849650D01*
X12493872Y-11849650D02*
X12512920Y-11849650D01*
X12579586Y-11982984D02*
X12579586Y-11849650D01*
X12579586Y-11782984D02*
X12570062Y-11792508D01*
X12570062Y-11792508D02*
X12579586Y-11802031D01*
X12579586Y-11802031D02*
X12589110Y-11792508D01*
X12589110Y-11792508D02*
X12579586Y-11782984D01*
X12579586Y-11782984D02*
X12579586Y-11802031D01*
X12703396Y-11982984D02*
X12684348Y-11973460D01*
X12684348Y-11973460D02*
X12674824Y-11954412D01*
X12674824Y-11954412D02*
X12674824Y-11782984D01*
X12808158Y-11982984D02*
X12789110Y-11973460D01*
X12789110Y-11973460D02*
X12779586Y-11954412D01*
X12779586Y-11954412D02*
X12779586Y-11782984D01*
X13036729Y-11982984D02*
X13036729Y-11782984D01*
X13036729Y-11782984D02*
X13103396Y-11925841D01*
X13103396Y-11925841D02*
X13170062Y-11782984D01*
X13170062Y-11782984D02*
X13170062Y-11982984D01*
X13351015Y-11982984D02*
X13351015Y-11878222D01*
X13351015Y-11878222D02*
X13341491Y-11859174D01*
X13341491Y-11859174D02*
X13322443Y-11849650D01*
X13322443Y-11849650D02*
X13284348Y-11849650D01*
X13284348Y-11849650D02*
X13265301Y-11859174D01*
X13351015Y-11973460D02*
X13331967Y-11982984D01*
X13331967Y-11982984D02*
X13284348Y-11982984D01*
X13284348Y-11982984D02*
X13265301Y-11973460D01*
X13265301Y-11973460D02*
X13255777Y-11954412D01*
X13255777Y-11954412D02*
X13255777Y-11935365D01*
X13255777Y-11935365D02*
X13265301Y-11916317D01*
X13265301Y-11916317D02*
X13284348Y-11906793D01*
X13284348Y-11906793D02*
X13331967Y-11906793D01*
X13331967Y-11906793D02*
X13351015Y-11897269D01*
X13446253Y-11849650D02*
X13446253Y-12049650D01*
X13446253Y-11859174D02*
X13465301Y-11849650D01*
X13465301Y-11849650D02*
X13503396Y-11849650D01*
X13503396Y-11849650D02*
X13522443Y-11859174D01*
X13522443Y-11859174D02*
X13531967Y-11868698D01*
X13531967Y-11868698D02*
X13541491Y-11887746D01*
X13541491Y-11887746D02*
X13541491Y-11944888D01*
X13541491Y-11944888D02*
X13531967Y-11963936D01*
X13531967Y-11963936D02*
X13522443Y-11973460D01*
X13522443Y-11973460D02*
X13503396Y-11982984D01*
X13503396Y-11982984D02*
X13465301Y-11982984D01*
X13465301Y-11982984D02*
X13446253Y-11973460D01*
X13627205Y-11963936D02*
X13636729Y-11973460D01*
X13636729Y-11973460D02*
X13627205Y-11982984D01*
X13627205Y-11982984D02*
X13617682Y-11973460D01*
X13617682Y-11973460D02*
X13627205Y-11963936D01*
X13627205Y-11963936D02*
X13627205Y-11982984D01*
X13627205Y-11859174D02*
X13636729Y-11868698D01*
X13636729Y-11868698D02*
X13627205Y-11878222D01*
X13627205Y-11878222D02*
X13617682Y-11868698D01*
X13617682Y-11868698D02*
X13627205Y-11859174D01*
X13627205Y-11859174D02*
X13627205Y-11878222D01*
D11*
X11965000Y-12296500D02*
X11995000Y-12326500D01*
X11995000Y-12296500D02*
X11965000Y-12326500D01*
D10*
X12293872Y-12202984D02*
X12312920Y-12202984D01*
X12312920Y-12202984D02*
X12331967Y-12212508D01*
X12331967Y-12212508D02*
X12341491Y-12222031D01*
X12341491Y-12222031D02*
X12351015Y-12241079D01*
X12351015Y-12241079D02*
X12360539Y-12279174D01*
X12360539Y-12279174D02*
X12360539Y-12326793D01*
X12360539Y-12326793D02*
X12351015Y-12364888D01*
X12351015Y-12364888D02*
X12341491Y-12383936D01*
X12341491Y-12383936D02*
X12331967Y-12393460D01*
X12331967Y-12393460D02*
X12312920Y-12402984D01*
X12312920Y-12402984D02*
X12293872Y-12402984D01*
X12293872Y-12402984D02*
X12274824Y-12393460D01*
X12274824Y-12393460D02*
X12265301Y-12383936D01*
X12265301Y-12383936D02*
X12255777Y-12364888D01*
X12255777Y-12364888D02*
X12246253Y-12326793D01*
X12246253Y-12326793D02*
X12246253Y-12279174D01*
X12246253Y-12279174D02*
X12255777Y-12241079D01*
X12255777Y-12241079D02*
X12265301Y-12222031D01*
X12265301Y-12222031D02*
X12274824Y-12212508D01*
X12274824Y-12212508D02*
X12293872Y-12202984D01*
X12446253Y-12383936D02*
X12455777Y-12393460D01*
X12455777Y-12393460D02*
X12446253Y-12402984D01*
X12446253Y-12402984D02*
X12436729Y-12393460D01*
X12436729Y-12393460D02*
X12446253Y-12383936D01*
X12446253Y-12383936D02*
X12446253Y-12402984D01*
X12522443Y-12202984D02*
X12646253Y-12202984D01*
X12646253Y-12202984D02*
X12579586Y-12279174D01*
X12579586Y-12279174D02*
X12608158Y-12279174D01*
X12608158Y-12279174D02*
X12627205Y-12288698D01*
X12627205Y-12288698D02*
X12636729Y-12298222D01*
X12636729Y-12298222D02*
X12646253Y-12317269D01*
X12646253Y-12317269D02*
X12646253Y-12364888D01*
X12646253Y-12364888D02*
X12636729Y-12383936D01*
X12636729Y-12383936D02*
X12627205Y-12393460D01*
X12627205Y-12393460D02*
X12608158Y-12402984D01*
X12608158Y-12402984D02*
X12551015Y-12402984D01*
X12551015Y-12402984D02*
X12531967Y-12393460D01*
X12531967Y-12393460D02*
X12522443Y-12383936D01*
X12770062Y-12202984D02*
X12789110Y-12202984D01*
X12789110Y-12202984D02*
X12808158Y-12212508D01*
X12808158Y-12212508D02*
X12817682Y-12222031D01*
X12817682Y-12222031D02*
X12827205Y-12241079D01*
X12827205Y-12241079D02*
X12836729Y-12279174D01*
X12836729Y-12279174D02*
X12836729Y-12326793D01*
X12836729Y-12326793D02*
X12827205Y-12364888D01*
X12827205Y-12364888D02*
X12817682Y-12383936D01*
X12817682Y-12383936D02*
X12808158Y-12393460D01*
X12808158Y-12393460D02*
X12789110Y-12402984D01*
X12789110Y-12402984D02*
X12770062Y-12402984D01*
X12770062Y-12402984D02*
X12751015Y-12393460D01*
X12751015Y-12393460D02*
X12741491Y-12383936D01*
X12741491Y-12383936D02*
X12731967Y-12364888D01*
X12731967Y-12364888D02*
X12722443Y-12326793D01*
X12722443Y-12326793D02*
X12722443Y-12279174D01*
X12722443Y-12279174D02*
X12731967Y-12241079D01*
X12731967Y-12241079D02*
X12741491Y-12222031D01*
X12741491Y-12222031D02*
X12751015Y-12212508D01*
X12751015Y-12212508D02*
X12770062Y-12202984D01*
X12960539Y-12202984D02*
X12979586Y-12202984D01*
X12979586Y-12202984D02*
X12998634Y-12212508D01*
X12998634Y-12212508D02*
X13008158Y-12222031D01*
X13008158Y-12222031D02*
X13017682Y-12241079D01*
X13017682Y-12241079D02*
X13027205Y-12279174D01*
X13027205Y-12279174D02*
X13027205Y-12326793D01*
X13027205Y-12326793D02*
X13017682Y-12364888D01*
X13017682Y-12364888D02*
X13008158Y-12383936D01*
X13008158Y-12383936D02*
X12998634Y-12393460D01*
X12998634Y-12393460D02*
X12979586Y-12402984D01*
X12979586Y-12402984D02*
X12960539Y-12402984D01*
X12960539Y-12402984D02*
X12941491Y-12393460D01*
X12941491Y-12393460D02*
X12931967Y-12383936D01*
X12931967Y-12383936D02*
X12922443Y-12364888D01*
X12922443Y-12364888D02*
X12912920Y-12326793D01*
X12912920Y-12326793D02*
X12912920Y-12279174D01*
X12912920Y-12279174D02*
X12922443Y-12241079D01*
X12922443Y-12241079D02*
X12931967Y-12222031D01*
X12931967Y-12222031D02*
X12941491Y-12212508D01*
X12941491Y-12212508D02*
X12960539Y-12202984D01*
X13112920Y-12402984D02*
X13112920Y-12269650D01*
X13112920Y-12288698D02*
X13122443Y-12279174D01*
X13122443Y-12279174D02*
X13141491Y-12269650D01*
X13141491Y-12269650D02*
X13170063Y-12269650D01*
X13170063Y-12269650D02*
X13189110Y-12279174D01*
X13189110Y-12279174D02*
X13198634Y-12298222D01*
X13198634Y-12298222D02*
X13198634Y-12402984D01*
X13198634Y-12298222D02*
X13208158Y-12279174D01*
X13208158Y-12279174D02*
X13227205Y-12269650D01*
X13227205Y-12269650D02*
X13255777Y-12269650D01*
X13255777Y-12269650D02*
X13274824Y-12279174D01*
X13274824Y-12279174D02*
X13284348Y-12298222D01*
X13284348Y-12298222D02*
X13284348Y-12402984D01*
X13379586Y-12402984D02*
X13379586Y-12269650D01*
X13379586Y-12288698D02*
X13389110Y-12279174D01*
X13389110Y-12279174D02*
X13408158Y-12269650D01*
X13408158Y-12269650D02*
X13436729Y-12269650D01*
X13436729Y-12269650D02*
X13455777Y-12279174D01*
X13455777Y-12279174D02*
X13465301Y-12298222D01*
X13465301Y-12298222D02*
X13465301Y-12402984D01*
X13465301Y-12298222D02*
X13474824Y-12279174D01*
X13474824Y-12279174D02*
X13493872Y-12269650D01*
X13493872Y-12269650D02*
X13522443Y-12269650D01*
X13522443Y-12269650D02*
X13541491Y-12279174D01*
X13541491Y-12279174D02*
X13551015Y-12298222D01*
X13551015Y-12298222D02*
X13551015Y-12402984D01*
X13941491Y-12193460D02*
X13770063Y-12450603D01*
X14198634Y-12202984D02*
X14217682Y-12202984D01*
X14217682Y-12202984D02*
X14236729Y-12212508D01*
X14236729Y-12212508D02*
X14246253Y-12222031D01*
X14246253Y-12222031D02*
X14255777Y-12241079D01*
X14255777Y-12241079D02*
X14265301Y-12279174D01*
X14265301Y-12279174D02*
X14265301Y-12326793D01*
X14265301Y-12326793D02*
X14255777Y-12364888D01*
X14255777Y-12364888D02*
X14246253Y-12383936D01*
X14246253Y-12383936D02*
X14236729Y-12393460D01*
X14236729Y-12393460D02*
X14217682Y-12402984D01*
X14217682Y-12402984D02*
X14198634Y-12402984D01*
X14198634Y-12402984D02*
X14179586Y-12393460D01*
X14179586Y-12393460D02*
X14170063Y-12383936D01*
X14170063Y-12383936D02*
X14160539Y-12364888D01*
X14160539Y-12364888D02*
X14151015Y-12326793D01*
X14151015Y-12326793D02*
X14151015Y-12279174D01*
X14151015Y-12279174D02*
X14160539Y-12241079D01*
X14160539Y-12241079D02*
X14170063Y-12222031D01*
X14170063Y-12222031D02*
X14179586Y-12212508D01*
X14179586Y-12212508D02*
X14198634Y-12202984D01*
X14351015Y-12383936D02*
X14360539Y-12393460D01*
X14360539Y-12393460D02*
X14351015Y-12402984D01*
X14351015Y-12402984D02*
X14341491Y-12393460D01*
X14341491Y-12393460D02*
X14351015Y-12383936D01*
X14351015Y-12383936D02*
X14351015Y-12402984D01*
X14484348Y-12202984D02*
X14503396Y-12202984D01*
X14503396Y-12202984D02*
X14522444Y-12212508D01*
X14522444Y-12212508D02*
X14531967Y-12222031D01*
X14531967Y-12222031D02*
X14541491Y-12241079D01*
X14541491Y-12241079D02*
X14551015Y-12279174D01*
X14551015Y-12279174D02*
X14551015Y-12326793D01*
X14551015Y-12326793D02*
X14541491Y-12364888D01*
X14541491Y-12364888D02*
X14531967Y-12383936D01*
X14531967Y-12383936D02*
X14522444Y-12393460D01*
X14522444Y-12393460D02*
X14503396Y-12402984D01*
X14503396Y-12402984D02*
X14484348Y-12402984D01*
X14484348Y-12402984D02*
X14465301Y-12393460D01*
X14465301Y-12393460D02*
X14455777Y-12383936D01*
X14455777Y-12383936D02*
X14446253Y-12364888D01*
X14446253Y-12364888D02*
X14436729Y-12326793D01*
X14436729Y-12326793D02*
X14436729Y-12279174D01*
X14436729Y-12279174D02*
X14446253Y-12241079D01*
X14446253Y-12241079D02*
X14455777Y-12222031D01*
X14455777Y-12222031D02*
X14465301Y-12212508D01*
X14465301Y-12212508D02*
X14484348Y-12202984D01*
X14741491Y-12402984D02*
X14627206Y-12402984D01*
X14684348Y-12402984D02*
X14684348Y-12202984D01*
X14684348Y-12202984D02*
X14665301Y-12231555D01*
X14665301Y-12231555D02*
X14646253Y-12250603D01*
X14646253Y-12250603D02*
X14627206Y-12260127D01*
X14931967Y-12402984D02*
X14817682Y-12402984D01*
X14874825Y-12402984D02*
X14874825Y-12202984D01*
X14874825Y-12202984D02*
X14855777Y-12231555D01*
X14855777Y-12231555D02*
X14836729Y-12250603D01*
X14836729Y-12250603D02*
X14817682Y-12260127D01*
X15046253Y-12288698D02*
X15027206Y-12279174D01*
X15027206Y-12279174D02*
X15017682Y-12269650D01*
X15017682Y-12269650D02*
X15008158Y-12250603D01*
X15008158Y-12250603D02*
X15008158Y-12241079D01*
X15008158Y-12241079D02*
X15017682Y-12222031D01*
X15017682Y-12222031D02*
X15027206Y-12212508D01*
X15027206Y-12212508D02*
X15046253Y-12202984D01*
X15046253Y-12202984D02*
X15084348Y-12202984D01*
X15084348Y-12202984D02*
X15103396Y-12212508D01*
X15103396Y-12212508D02*
X15112920Y-12222031D01*
X15112920Y-12222031D02*
X15122444Y-12241079D01*
X15122444Y-12241079D02*
X15122444Y-12250603D01*
X15122444Y-12250603D02*
X15112920Y-12269650D01*
X15112920Y-12269650D02*
X15103396Y-12279174D01*
X15103396Y-12279174D02*
X15084348Y-12288698D01*
X15084348Y-12288698D02*
X15046253Y-12288698D01*
X15046253Y-12288698D02*
X15027206Y-12298222D01*
X15027206Y-12298222D02*
X15017682Y-12307746D01*
X15017682Y-12307746D02*
X15008158Y-12326793D01*
X15008158Y-12326793D02*
X15008158Y-12364888D01*
X15008158Y-12364888D02*
X15017682Y-12383936D01*
X15017682Y-12383936D02*
X15027206Y-12393460D01*
X15027206Y-12393460D02*
X15046253Y-12402984D01*
X15046253Y-12402984D02*
X15084348Y-12402984D01*
X15084348Y-12402984D02*
X15103396Y-12393460D01*
X15103396Y-12393460D02*
X15112920Y-12383936D01*
X15112920Y-12383936D02*
X15122444Y-12364888D01*
X15122444Y-12364888D02*
X15122444Y-12326793D01*
X15122444Y-12326793D02*
X15112920Y-12307746D01*
X15112920Y-12307746D02*
X15103396Y-12298222D01*
X15103396Y-12298222D02*
X15084348Y-12288698D01*
X15198634Y-12202984D02*
X15198634Y-12241079D01*
X15274825Y-12202984D02*
X15274825Y-12241079D01*
X15570063Y-12479174D02*
X15560539Y-12469650D01*
X15560539Y-12469650D02*
X15541491Y-12441079D01*
X15541491Y-12441079D02*
X15531968Y-12422031D01*
X15531968Y-12422031D02*
X15522444Y-12393460D01*
X15522444Y-12393460D02*
X15512920Y-12345841D01*
X15512920Y-12345841D02*
X15512920Y-12307746D01*
X15512920Y-12307746D02*
X15522444Y-12260127D01*
X15522444Y-12260127D02*
X15531968Y-12231555D01*
X15531968Y-12231555D02*
X15541491Y-12212508D01*
X15541491Y-12212508D02*
X15560539Y-12183936D01*
X15560539Y-12183936D02*
X15570063Y-12174412D01*
X15731968Y-12269650D02*
X15731968Y-12402984D01*
X15684348Y-12193460D02*
X15636729Y-12336317D01*
X15636729Y-12336317D02*
X15760539Y-12336317D01*
X15941491Y-12402984D02*
X15827206Y-12402984D01*
X15884348Y-12402984D02*
X15884348Y-12202984D01*
X15884348Y-12202984D02*
X15865301Y-12231555D01*
X15865301Y-12231555D02*
X15846253Y-12250603D01*
X15846253Y-12250603D02*
X15827206Y-12260127D01*
X16179587Y-12402984D02*
X16179587Y-12202984D01*
X16265301Y-12402984D02*
X16265301Y-12298222D01*
X16265301Y-12298222D02*
X16255777Y-12279174D01*
X16255777Y-12279174D02*
X16236730Y-12269650D01*
X16236730Y-12269650D02*
X16208158Y-12269650D01*
X16208158Y-12269650D02*
X16189110Y-12279174D01*
X16189110Y-12279174D02*
X16179587Y-12288698D01*
X16389110Y-12402984D02*
X16370063Y-12393460D01*
X16370063Y-12393460D02*
X16360539Y-12383936D01*
X16360539Y-12383936D02*
X16351015Y-12364888D01*
X16351015Y-12364888D02*
X16351015Y-12307746D01*
X16351015Y-12307746D02*
X16360539Y-12288698D01*
X16360539Y-12288698D02*
X16370063Y-12279174D01*
X16370063Y-12279174D02*
X16389110Y-12269650D01*
X16389110Y-12269650D02*
X16417682Y-12269650D01*
X16417682Y-12269650D02*
X16436730Y-12279174D01*
X16436730Y-12279174D02*
X16446253Y-12288698D01*
X16446253Y-12288698D02*
X16455777Y-12307746D01*
X16455777Y-12307746D02*
X16455777Y-12364888D01*
X16455777Y-12364888D02*
X16446253Y-12383936D01*
X16446253Y-12383936D02*
X16436730Y-12393460D01*
X16436730Y-12393460D02*
X16417682Y-12402984D01*
X16417682Y-12402984D02*
X16389110Y-12402984D01*
X16570063Y-12402984D02*
X16551015Y-12393460D01*
X16551015Y-12393460D02*
X16541491Y-12374412D01*
X16541491Y-12374412D02*
X16541491Y-12202984D01*
X16722444Y-12393460D02*
X16703396Y-12402984D01*
X16703396Y-12402984D02*
X16665301Y-12402984D01*
X16665301Y-12402984D02*
X16646253Y-12393460D01*
X16646253Y-12393460D02*
X16636730Y-12374412D01*
X16636730Y-12374412D02*
X16636730Y-12298222D01*
X16636730Y-12298222D02*
X16646253Y-12279174D01*
X16646253Y-12279174D02*
X16665301Y-12269650D01*
X16665301Y-12269650D02*
X16703396Y-12269650D01*
X16703396Y-12269650D02*
X16722444Y-12279174D01*
X16722444Y-12279174D02*
X16731968Y-12298222D01*
X16731968Y-12298222D02*
X16731968Y-12317269D01*
X16731968Y-12317269D02*
X16636730Y-12336317D01*
X16808158Y-12393460D02*
X16827206Y-12402984D01*
X16827206Y-12402984D02*
X16865301Y-12402984D01*
X16865301Y-12402984D02*
X16884349Y-12393460D01*
X16884349Y-12393460D02*
X16893873Y-12374412D01*
X16893873Y-12374412D02*
X16893873Y-12364888D01*
X16893873Y-12364888D02*
X16884349Y-12345841D01*
X16884349Y-12345841D02*
X16865301Y-12336317D01*
X16865301Y-12336317D02*
X16836730Y-12336317D01*
X16836730Y-12336317D02*
X16817682Y-12326793D01*
X16817682Y-12326793D02*
X16808158Y-12307746D01*
X16808158Y-12307746D02*
X16808158Y-12298222D01*
X16808158Y-12298222D02*
X16817682Y-12279174D01*
X16817682Y-12279174D02*
X16836730Y-12269650D01*
X16836730Y-12269650D02*
X16865301Y-12269650D01*
X16865301Y-12269650D02*
X16884349Y-12279174D01*
X16960539Y-12479174D02*
X16970063Y-12469650D01*
X16970063Y-12469650D02*
X16989111Y-12441079D01*
X16989111Y-12441079D02*
X16998634Y-12422031D01*
X16998634Y-12422031D02*
X17008158Y-12393460D01*
X17008158Y-12393460D02*
X17017682Y-12345841D01*
X17017682Y-12345841D02*
X17017682Y-12307746D01*
X17017682Y-12307746D02*
X17008158Y-12260127D01*
X17008158Y-12260127D02*
X16998634Y-12231555D01*
X16998634Y-12231555D02*
X16989111Y-12212508D01*
X16989111Y-12212508D02*
X16970063Y-12183936D01*
X16970063Y-12183936D02*
X16960539Y-12174412D01*
D11*
X11995000Y-12575500D02*
G75*
G02*
X11965000Y-12575500I-15000J0D01*
G01*
X11965000Y-12575500D02*
G75*
G02*
X11995000Y-12575500I15000J0D01*
G01*
D10*
X12293872Y-12466984D02*
X12312920Y-12466984D01*
X12312920Y-12466984D02*
X12331967Y-12476508D01*
X12331967Y-12476508D02*
X12341491Y-12486031D01*
X12341491Y-12486031D02*
X12351015Y-12505079D01*
X12351015Y-12505079D02*
X12360539Y-12543174D01*
X12360539Y-12543174D02*
X12360539Y-12590793D01*
X12360539Y-12590793D02*
X12351015Y-12628888D01*
X12351015Y-12628888D02*
X12341491Y-12647936D01*
X12341491Y-12647936D02*
X12331967Y-12657460D01*
X12331967Y-12657460D02*
X12312920Y-12666984D01*
X12312920Y-12666984D02*
X12293872Y-12666984D01*
X12293872Y-12666984D02*
X12274824Y-12657460D01*
X12274824Y-12657460D02*
X12265301Y-12647936D01*
X12265301Y-12647936D02*
X12255777Y-12628888D01*
X12255777Y-12628888D02*
X12246253Y-12590793D01*
X12246253Y-12590793D02*
X12246253Y-12543174D01*
X12246253Y-12543174D02*
X12255777Y-12505079D01*
X12255777Y-12505079D02*
X12265301Y-12486031D01*
X12265301Y-12486031D02*
X12274824Y-12476508D01*
X12274824Y-12476508D02*
X12293872Y-12466984D01*
X12446253Y-12647936D02*
X12455777Y-12657460D01*
X12455777Y-12657460D02*
X12446253Y-12666984D01*
X12446253Y-12666984D02*
X12436729Y-12657460D01*
X12436729Y-12657460D02*
X12446253Y-12647936D01*
X12446253Y-12647936D02*
X12446253Y-12666984D01*
X12522443Y-12466984D02*
X12646253Y-12466984D01*
X12646253Y-12466984D02*
X12579586Y-12543174D01*
X12579586Y-12543174D02*
X12608158Y-12543174D01*
X12608158Y-12543174D02*
X12627205Y-12552698D01*
X12627205Y-12552698D02*
X12636729Y-12562222D01*
X12636729Y-12562222D02*
X12646253Y-12581269D01*
X12646253Y-12581269D02*
X12646253Y-12628888D01*
X12646253Y-12628888D02*
X12636729Y-12647936D01*
X12636729Y-12647936D02*
X12627205Y-12657460D01*
X12627205Y-12657460D02*
X12608158Y-12666984D01*
X12608158Y-12666984D02*
X12551015Y-12666984D01*
X12551015Y-12666984D02*
X12531967Y-12657460D01*
X12531967Y-12657460D02*
X12522443Y-12647936D01*
X12770062Y-12466984D02*
X12789110Y-12466984D01*
X12789110Y-12466984D02*
X12808158Y-12476508D01*
X12808158Y-12476508D02*
X12817682Y-12486031D01*
X12817682Y-12486031D02*
X12827205Y-12505079D01*
X12827205Y-12505079D02*
X12836729Y-12543174D01*
X12836729Y-12543174D02*
X12836729Y-12590793D01*
X12836729Y-12590793D02*
X12827205Y-12628888D01*
X12827205Y-12628888D02*
X12817682Y-12647936D01*
X12817682Y-12647936D02*
X12808158Y-12657460D01*
X12808158Y-12657460D02*
X12789110Y-12666984D01*
X12789110Y-12666984D02*
X12770062Y-12666984D01*
X12770062Y-12666984D02*
X12751015Y-12657460D01*
X12751015Y-12657460D02*
X12741491Y-12647936D01*
X12741491Y-12647936D02*
X12731967Y-12628888D01*
X12731967Y-12628888D02*
X12722443Y-12590793D01*
X12722443Y-12590793D02*
X12722443Y-12543174D01*
X12722443Y-12543174D02*
X12731967Y-12505079D01*
X12731967Y-12505079D02*
X12741491Y-12486031D01*
X12741491Y-12486031D02*
X12751015Y-12476508D01*
X12751015Y-12476508D02*
X12770062Y-12466984D01*
X12960539Y-12466984D02*
X12979586Y-12466984D01*
X12979586Y-12466984D02*
X12998634Y-12476508D01*
X12998634Y-12476508D02*
X13008158Y-12486031D01*
X13008158Y-12486031D02*
X13017682Y-12505079D01*
X13017682Y-12505079D02*
X13027205Y-12543174D01*
X13027205Y-12543174D02*
X13027205Y-12590793D01*
X13027205Y-12590793D02*
X13017682Y-12628888D01*
X13017682Y-12628888D02*
X13008158Y-12647936D01*
X13008158Y-12647936D02*
X12998634Y-12657460D01*
X12998634Y-12657460D02*
X12979586Y-12666984D01*
X12979586Y-12666984D02*
X12960539Y-12666984D01*
X12960539Y-12666984D02*
X12941491Y-12657460D01*
X12941491Y-12657460D02*
X12931967Y-12647936D01*
X12931967Y-12647936D02*
X12922443Y-12628888D01*
X12922443Y-12628888D02*
X12912920Y-12590793D01*
X12912920Y-12590793D02*
X12912920Y-12543174D01*
X12912920Y-12543174D02*
X12922443Y-12505079D01*
X12922443Y-12505079D02*
X12931967Y-12486031D01*
X12931967Y-12486031D02*
X12941491Y-12476508D01*
X12941491Y-12476508D02*
X12960539Y-12466984D01*
X13112920Y-12666984D02*
X13112920Y-12533650D01*
X13112920Y-12552698D02*
X13122443Y-12543174D01*
X13122443Y-12543174D02*
X13141491Y-12533650D01*
X13141491Y-12533650D02*
X13170063Y-12533650D01*
X13170063Y-12533650D02*
X13189110Y-12543174D01*
X13189110Y-12543174D02*
X13198634Y-12562222D01*
X13198634Y-12562222D02*
X13198634Y-12666984D01*
X13198634Y-12562222D02*
X13208158Y-12543174D01*
X13208158Y-12543174D02*
X13227205Y-12533650D01*
X13227205Y-12533650D02*
X13255777Y-12533650D01*
X13255777Y-12533650D02*
X13274824Y-12543174D01*
X13274824Y-12543174D02*
X13284348Y-12562222D01*
X13284348Y-12562222D02*
X13284348Y-12666984D01*
X13379586Y-12666984D02*
X13379586Y-12533650D01*
X13379586Y-12552698D02*
X13389110Y-12543174D01*
X13389110Y-12543174D02*
X13408158Y-12533650D01*
X13408158Y-12533650D02*
X13436729Y-12533650D01*
X13436729Y-12533650D02*
X13455777Y-12543174D01*
X13455777Y-12543174D02*
X13465301Y-12562222D01*
X13465301Y-12562222D02*
X13465301Y-12666984D01*
X13465301Y-12562222D02*
X13474824Y-12543174D01*
X13474824Y-12543174D02*
X13493872Y-12533650D01*
X13493872Y-12533650D02*
X13522443Y-12533650D01*
X13522443Y-12533650D02*
X13541491Y-12543174D01*
X13541491Y-12543174D02*
X13551015Y-12562222D01*
X13551015Y-12562222D02*
X13551015Y-12666984D01*
X13941491Y-12457460D02*
X13770063Y-12714603D01*
X14198634Y-12466984D02*
X14217682Y-12466984D01*
X14217682Y-12466984D02*
X14236729Y-12476508D01*
X14236729Y-12476508D02*
X14246253Y-12486031D01*
X14246253Y-12486031D02*
X14255777Y-12505079D01*
X14255777Y-12505079D02*
X14265301Y-12543174D01*
X14265301Y-12543174D02*
X14265301Y-12590793D01*
X14265301Y-12590793D02*
X14255777Y-12628888D01*
X14255777Y-12628888D02*
X14246253Y-12647936D01*
X14246253Y-12647936D02*
X14236729Y-12657460D01*
X14236729Y-12657460D02*
X14217682Y-12666984D01*
X14217682Y-12666984D02*
X14198634Y-12666984D01*
X14198634Y-12666984D02*
X14179586Y-12657460D01*
X14179586Y-12657460D02*
X14170063Y-12647936D01*
X14170063Y-12647936D02*
X14160539Y-12628888D01*
X14160539Y-12628888D02*
X14151015Y-12590793D01*
X14151015Y-12590793D02*
X14151015Y-12543174D01*
X14151015Y-12543174D02*
X14160539Y-12505079D01*
X14160539Y-12505079D02*
X14170063Y-12486031D01*
X14170063Y-12486031D02*
X14179586Y-12476508D01*
X14179586Y-12476508D02*
X14198634Y-12466984D01*
X14351015Y-12647936D02*
X14360539Y-12657460D01*
X14360539Y-12657460D02*
X14351015Y-12666984D01*
X14351015Y-12666984D02*
X14341491Y-12657460D01*
X14341491Y-12657460D02*
X14351015Y-12647936D01*
X14351015Y-12647936D02*
X14351015Y-12666984D01*
X14484348Y-12466984D02*
X14503396Y-12466984D01*
X14503396Y-12466984D02*
X14522444Y-12476508D01*
X14522444Y-12476508D02*
X14531967Y-12486031D01*
X14531967Y-12486031D02*
X14541491Y-12505079D01*
X14541491Y-12505079D02*
X14551015Y-12543174D01*
X14551015Y-12543174D02*
X14551015Y-12590793D01*
X14551015Y-12590793D02*
X14541491Y-12628888D01*
X14541491Y-12628888D02*
X14531967Y-12647936D01*
X14531967Y-12647936D02*
X14522444Y-12657460D01*
X14522444Y-12657460D02*
X14503396Y-12666984D01*
X14503396Y-12666984D02*
X14484348Y-12666984D01*
X14484348Y-12666984D02*
X14465301Y-12657460D01*
X14465301Y-12657460D02*
X14455777Y-12647936D01*
X14455777Y-12647936D02*
X14446253Y-12628888D01*
X14446253Y-12628888D02*
X14436729Y-12590793D01*
X14436729Y-12590793D02*
X14436729Y-12543174D01*
X14436729Y-12543174D02*
X14446253Y-12505079D01*
X14446253Y-12505079D02*
X14455777Y-12486031D01*
X14455777Y-12486031D02*
X14465301Y-12476508D01*
X14465301Y-12476508D02*
X14484348Y-12466984D01*
X14741491Y-12666984D02*
X14627206Y-12666984D01*
X14684348Y-12666984D02*
X14684348Y-12466984D01*
X14684348Y-12466984D02*
X14665301Y-12495555D01*
X14665301Y-12495555D02*
X14646253Y-12514603D01*
X14646253Y-12514603D02*
X14627206Y-12524127D01*
X14931967Y-12666984D02*
X14817682Y-12666984D01*
X14874825Y-12666984D02*
X14874825Y-12466984D01*
X14874825Y-12466984D02*
X14855777Y-12495555D01*
X14855777Y-12495555D02*
X14836729Y-12514603D01*
X14836729Y-12514603D02*
X14817682Y-12524127D01*
X15046253Y-12552698D02*
X15027206Y-12543174D01*
X15027206Y-12543174D02*
X15017682Y-12533650D01*
X15017682Y-12533650D02*
X15008158Y-12514603D01*
X15008158Y-12514603D02*
X15008158Y-12505079D01*
X15008158Y-12505079D02*
X15017682Y-12486031D01*
X15017682Y-12486031D02*
X15027206Y-12476508D01*
X15027206Y-12476508D02*
X15046253Y-12466984D01*
X15046253Y-12466984D02*
X15084348Y-12466984D01*
X15084348Y-12466984D02*
X15103396Y-12476508D01*
X15103396Y-12476508D02*
X15112920Y-12486031D01*
X15112920Y-12486031D02*
X15122444Y-12505079D01*
X15122444Y-12505079D02*
X15122444Y-12514603D01*
X15122444Y-12514603D02*
X15112920Y-12533650D01*
X15112920Y-12533650D02*
X15103396Y-12543174D01*
X15103396Y-12543174D02*
X15084348Y-12552698D01*
X15084348Y-12552698D02*
X15046253Y-12552698D01*
X15046253Y-12552698D02*
X15027206Y-12562222D01*
X15027206Y-12562222D02*
X15017682Y-12571746D01*
X15017682Y-12571746D02*
X15008158Y-12590793D01*
X15008158Y-12590793D02*
X15008158Y-12628888D01*
X15008158Y-12628888D02*
X15017682Y-12647936D01*
X15017682Y-12647936D02*
X15027206Y-12657460D01*
X15027206Y-12657460D02*
X15046253Y-12666984D01*
X15046253Y-12666984D02*
X15084348Y-12666984D01*
X15084348Y-12666984D02*
X15103396Y-12657460D01*
X15103396Y-12657460D02*
X15112920Y-12647936D01*
X15112920Y-12647936D02*
X15122444Y-12628888D01*
X15122444Y-12628888D02*
X15122444Y-12590793D01*
X15122444Y-12590793D02*
X15112920Y-12571746D01*
X15112920Y-12571746D02*
X15103396Y-12562222D01*
X15103396Y-12562222D02*
X15084348Y-12552698D01*
X15198634Y-12466984D02*
X15198634Y-12505079D01*
X15274825Y-12466984D02*
X15274825Y-12505079D01*
X15570063Y-12743174D02*
X15560539Y-12733650D01*
X15560539Y-12733650D02*
X15541491Y-12705079D01*
X15541491Y-12705079D02*
X15531968Y-12686031D01*
X15531968Y-12686031D02*
X15522444Y-12657460D01*
X15522444Y-12657460D02*
X15512920Y-12609841D01*
X15512920Y-12609841D02*
X15512920Y-12571746D01*
X15512920Y-12571746D02*
X15522444Y-12524127D01*
X15522444Y-12524127D02*
X15531968Y-12495555D01*
X15531968Y-12495555D02*
X15541491Y-12476508D01*
X15541491Y-12476508D02*
X15560539Y-12447936D01*
X15560539Y-12447936D02*
X15570063Y-12438412D01*
X15655777Y-12666984D02*
X15693872Y-12666984D01*
X15693872Y-12666984D02*
X15712920Y-12657460D01*
X15712920Y-12657460D02*
X15722444Y-12647936D01*
X15722444Y-12647936D02*
X15741491Y-12619365D01*
X15741491Y-12619365D02*
X15751015Y-12581269D01*
X15751015Y-12581269D02*
X15751015Y-12505079D01*
X15751015Y-12505079D02*
X15741491Y-12486031D01*
X15741491Y-12486031D02*
X15731968Y-12476508D01*
X15731968Y-12476508D02*
X15712920Y-12466984D01*
X15712920Y-12466984D02*
X15674825Y-12466984D01*
X15674825Y-12466984D02*
X15655777Y-12476508D01*
X15655777Y-12476508D02*
X15646253Y-12486031D01*
X15646253Y-12486031D02*
X15636729Y-12505079D01*
X15636729Y-12505079D02*
X15636729Y-12552698D01*
X15636729Y-12552698D02*
X15646253Y-12571746D01*
X15646253Y-12571746D02*
X15655777Y-12581269D01*
X15655777Y-12581269D02*
X15674825Y-12590793D01*
X15674825Y-12590793D02*
X15712920Y-12590793D01*
X15712920Y-12590793D02*
X15731968Y-12581269D01*
X15731968Y-12581269D02*
X15741491Y-12571746D01*
X15741491Y-12571746D02*
X15751015Y-12552698D01*
X15989110Y-12666984D02*
X15989110Y-12466984D01*
X16074825Y-12666984D02*
X16074825Y-12562222D01*
X16074825Y-12562222D02*
X16065301Y-12543174D01*
X16065301Y-12543174D02*
X16046253Y-12533650D01*
X16046253Y-12533650D02*
X16017682Y-12533650D01*
X16017682Y-12533650D02*
X15998634Y-12543174D01*
X15998634Y-12543174D02*
X15989110Y-12552698D01*
X16198634Y-12666984D02*
X16179587Y-12657460D01*
X16179587Y-12657460D02*
X16170063Y-12647936D01*
X16170063Y-12647936D02*
X16160539Y-12628888D01*
X16160539Y-12628888D02*
X16160539Y-12571746D01*
X16160539Y-12571746D02*
X16170063Y-12552698D01*
X16170063Y-12552698D02*
X16179587Y-12543174D01*
X16179587Y-12543174D02*
X16198634Y-12533650D01*
X16198634Y-12533650D02*
X16227206Y-12533650D01*
X16227206Y-12533650D02*
X16246253Y-12543174D01*
X16246253Y-12543174D02*
X16255777Y-12552698D01*
X16255777Y-12552698D02*
X16265301Y-12571746D01*
X16265301Y-12571746D02*
X16265301Y-12628888D01*
X16265301Y-12628888D02*
X16255777Y-12647936D01*
X16255777Y-12647936D02*
X16246253Y-12657460D01*
X16246253Y-12657460D02*
X16227206Y-12666984D01*
X16227206Y-12666984D02*
X16198634Y-12666984D01*
X16379587Y-12666984D02*
X16360539Y-12657460D01*
X16360539Y-12657460D02*
X16351015Y-12638412D01*
X16351015Y-12638412D02*
X16351015Y-12466984D01*
X16531968Y-12657460D02*
X16512920Y-12666984D01*
X16512920Y-12666984D02*
X16474825Y-12666984D01*
X16474825Y-12666984D02*
X16455777Y-12657460D01*
X16455777Y-12657460D02*
X16446253Y-12638412D01*
X16446253Y-12638412D02*
X16446253Y-12562222D01*
X16446253Y-12562222D02*
X16455777Y-12543174D01*
X16455777Y-12543174D02*
X16474825Y-12533650D01*
X16474825Y-12533650D02*
X16512920Y-12533650D01*
X16512920Y-12533650D02*
X16531968Y-12543174D01*
X16531968Y-12543174D02*
X16541491Y-12562222D01*
X16541491Y-12562222D02*
X16541491Y-12581269D01*
X16541491Y-12581269D02*
X16446253Y-12600317D01*
X16617682Y-12657460D02*
X16636730Y-12666984D01*
X16636730Y-12666984D02*
X16674825Y-12666984D01*
X16674825Y-12666984D02*
X16693872Y-12657460D01*
X16693872Y-12657460D02*
X16703396Y-12638412D01*
X16703396Y-12638412D02*
X16703396Y-12628888D01*
X16703396Y-12628888D02*
X16693872Y-12609841D01*
X16693872Y-12609841D02*
X16674825Y-12600317D01*
X16674825Y-12600317D02*
X16646253Y-12600317D01*
X16646253Y-12600317D02*
X16627206Y-12590793D01*
X16627206Y-12590793D02*
X16617682Y-12571746D01*
X16617682Y-12571746D02*
X16617682Y-12562222D01*
X16617682Y-12562222D02*
X16627206Y-12543174D01*
X16627206Y-12543174D02*
X16646253Y-12533650D01*
X16646253Y-12533650D02*
X16674825Y-12533650D01*
X16674825Y-12533650D02*
X16693872Y-12543174D01*
X16770063Y-12743174D02*
X16779587Y-12733650D01*
X16779587Y-12733650D02*
X16798634Y-12705079D01*
X16798634Y-12705079D02*
X16808158Y-12686031D01*
X16808158Y-12686031D02*
X16817682Y-12657460D01*
X16817682Y-12657460D02*
X16827206Y-12609841D01*
X16827206Y-12609841D02*
X16827206Y-12571746D01*
X16827206Y-12571746D02*
X16817682Y-12524127D01*
X16817682Y-12524127D02*
X16808158Y-12495555D01*
X16808158Y-12495555D02*
X16798634Y-12476508D01*
X16798634Y-12476508D02*
X16779587Y-12447936D01*
X16779587Y-12447936D02*
X16770063Y-12438412D01*
D11*
X11962500Y-12807000D02*
X11962500Y-12872000D01*
X11930000Y-12839500D02*
X11995000Y-12839500D01*
D10*
X12293872Y-12730984D02*
X12312920Y-12730984D01*
X12312920Y-12730984D02*
X12331967Y-12740508D01*
X12331967Y-12740508D02*
X12341491Y-12750031D01*
X12341491Y-12750031D02*
X12351015Y-12769079D01*
X12351015Y-12769079D02*
X12360539Y-12807174D01*
X12360539Y-12807174D02*
X12360539Y-12854793D01*
X12360539Y-12854793D02*
X12351015Y-12892888D01*
X12351015Y-12892888D02*
X12341491Y-12911936D01*
X12341491Y-12911936D02*
X12331967Y-12921460D01*
X12331967Y-12921460D02*
X12312920Y-12930984D01*
X12312920Y-12930984D02*
X12293872Y-12930984D01*
X12293872Y-12930984D02*
X12274824Y-12921460D01*
X12274824Y-12921460D02*
X12265301Y-12911936D01*
X12265301Y-12911936D02*
X12255777Y-12892888D01*
X12255777Y-12892888D02*
X12246253Y-12854793D01*
X12246253Y-12854793D02*
X12246253Y-12807174D01*
X12246253Y-12807174D02*
X12255777Y-12769079D01*
X12255777Y-12769079D02*
X12265301Y-12750031D01*
X12265301Y-12750031D02*
X12274824Y-12740508D01*
X12274824Y-12740508D02*
X12293872Y-12730984D01*
X12446253Y-12911936D02*
X12455777Y-12921460D01*
X12455777Y-12921460D02*
X12446253Y-12930984D01*
X12446253Y-12930984D02*
X12436729Y-12921460D01*
X12436729Y-12921460D02*
X12446253Y-12911936D01*
X12446253Y-12911936D02*
X12446253Y-12930984D01*
X12627205Y-12730984D02*
X12589110Y-12730984D01*
X12589110Y-12730984D02*
X12570062Y-12740508D01*
X12570062Y-12740508D02*
X12560539Y-12750031D01*
X12560539Y-12750031D02*
X12541491Y-12778603D01*
X12541491Y-12778603D02*
X12531967Y-12816698D01*
X12531967Y-12816698D02*
X12531967Y-12892888D01*
X12531967Y-12892888D02*
X12541491Y-12911936D01*
X12541491Y-12911936D02*
X12551015Y-12921460D01*
X12551015Y-12921460D02*
X12570062Y-12930984D01*
X12570062Y-12930984D02*
X12608158Y-12930984D01*
X12608158Y-12930984D02*
X12627205Y-12921460D01*
X12627205Y-12921460D02*
X12636729Y-12911936D01*
X12636729Y-12911936D02*
X12646253Y-12892888D01*
X12646253Y-12892888D02*
X12646253Y-12845269D01*
X12646253Y-12845269D02*
X12636729Y-12826222D01*
X12636729Y-12826222D02*
X12627205Y-12816698D01*
X12627205Y-12816698D02*
X12608158Y-12807174D01*
X12608158Y-12807174D02*
X12570062Y-12807174D01*
X12570062Y-12807174D02*
X12551015Y-12816698D01*
X12551015Y-12816698D02*
X12541491Y-12826222D01*
X12541491Y-12826222D02*
X12531967Y-12845269D01*
X12827205Y-12730984D02*
X12731967Y-12730984D01*
X12731967Y-12730984D02*
X12722443Y-12826222D01*
X12722443Y-12826222D02*
X12731967Y-12816698D01*
X12731967Y-12816698D02*
X12751015Y-12807174D01*
X12751015Y-12807174D02*
X12798634Y-12807174D01*
X12798634Y-12807174D02*
X12817682Y-12816698D01*
X12817682Y-12816698D02*
X12827205Y-12826222D01*
X12827205Y-12826222D02*
X12836729Y-12845269D01*
X12836729Y-12845269D02*
X12836729Y-12892888D01*
X12836729Y-12892888D02*
X12827205Y-12911936D01*
X12827205Y-12911936D02*
X12817682Y-12921460D01*
X12817682Y-12921460D02*
X12798634Y-12930984D01*
X12798634Y-12930984D02*
X12751015Y-12930984D01*
X12751015Y-12930984D02*
X12731967Y-12921460D01*
X12731967Y-12921460D02*
X12722443Y-12911936D01*
X12960539Y-12730984D02*
X12979586Y-12730984D01*
X12979586Y-12730984D02*
X12998634Y-12740508D01*
X12998634Y-12740508D02*
X13008158Y-12750031D01*
X13008158Y-12750031D02*
X13017682Y-12769079D01*
X13017682Y-12769079D02*
X13027205Y-12807174D01*
X13027205Y-12807174D02*
X13027205Y-12854793D01*
X13027205Y-12854793D02*
X13017682Y-12892888D01*
X13017682Y-12892888D02*
X13008158Y-12911936D01*
X13008158Y-12911936D02*
X12998634Y-12921460D01*
X12998634Y-12921460D02*
X12979586Y-12930984D01*
X12979586Y-12930984D02*
X12960539Y-12930984D01*
X12960539Y-12930984D02*
X12941491Y-12921460D01*
X12941491Y-12921460D02*
X12931967Y-12911936D01*
X12931967Y-12911936D02*
X12922443Y-12892888D01*
X12922443Y-12892888D02*
X12912920Y-12854793D01*
X12912920Y-12854793D02*
X12912920Y-12807174D01*
X12912920Y-12807174D02*
X12922443Y-12769079D01*
X12922443Y-12769079D02*
X12931967Y-12750031D01*
X12931967Y-12750031D02*
X12941491Y-12740508D01*
X12941491Y-12740508D02*
X12960539Y-12730984D01*
X13112920Y-12930984D02*
X13112920Y-12797650D01*
X13112920Y-12816698D02*
X13122443Y-12807174D01*
X13122443Y-12807174D02*
X13141491Y-12797650D01*
X13141491Y-12797650D02*
X13170063Y-12797650D01*
X13170063Y-12797650D02*
X13189110Y-12807174D01*
X13189110Y-12807174D02*
X13198634Y-12826222D01*
X13198634Y-12826222D02*
X13198634Y-12930984D01*
X13198634Y-12826222D02*
X13208158Y-12807174D01*
X13208158Y-12807174D02*
X13227205Y-12797650D01*
X13227205Y-12797650D02*
X13255777Y-12797650D01*
X13255777Y-12797650D02*
X13274824Y-12807174D01*
X13274824Y-12807174D02*
X13284348Y-12826222D01*
X13284348Y-12826222D02*
X13284348Y-12930984D01*
X13379586Y-12930984D02*
X13379586Y-12797650D01*
X13379586Y-12816698D02*
X13389110Y-12807174D01*
X13389110Y-12807174D02*
X13408158Y-12797650D01*
X13408158Y-12797650D02*
X13436729Y-12797650D01*
X13436729Y-12797650D02*
X13455777Y-12807174D01*
X13455777Y-12807174D02*
X13465301Y-12826222D01*
X13465301Y-12826222D02*
X13465301Y-12930984D01*
X13465301Y-12826222D02*
X13474824Y-12807174D01*
X13474824Y-12807174D02*
X13493872Y-12797650D01*
X13493872Y-12797650D02*
X13522443Y-12797650D01*
X13522443Y-12797650D02*
X13541491Y-12807174D01*
X13541491Y-12807174D02*
X13551015Y-12826222D01*
X13551015Y-12826222D02*
X13551015Y-12930984D01*
X13941491Y-12721460D02*
X13770063Y-12978603D01*
X14198634Y-12730984D02*
X14217682Y-12730984D01*
X14217682Y-12730984D02*
X14236729Y-12740508D01*
X14236729Y-12740508D02*
X14246253Y-12750031D01*
X14246253Y-12750031D02*
X14255777Y-12769079D01*
X14255777Y-12769079D02*
X14265301Y-12807174D01*
X14265301Y-12807174D02*
X14265301Y-12854793D01*
X14265301Y-12854793D02*
X14255777Y-12892888D01*
X14255777Y-12892888D02*
X14246253Y-12911936D01*
X14246253Y-12911936D02*
X14236729Y-12921460D01*
X14236729Y-12921460D02*
X14217682Y-12930984D01*
X14217682Y-12930984D02*
X14198634Y-12930984D01*
X14198634Y-12930984D02*
X14179586Y-12921460D01*
X14179586Y-12921460D02*
X14170063Y-12911936D01*
X14170063Y-12911936D02*
X14160539Y-12892888D01*
X14160539Y-12892888D02*
X14151015Y-12854793D01*
X14151015Y-12854793D02*
X14151015Y-12807174D01*
X14151015Y-12807174D02*
X14160539Y-12769079D01*
X14160539Y-12769079D02*
X14170063Y-12750031D01*
X14170063Y-12750031D02*
X14179586Y-12740508D01*
X14179586Y-12740508D02*
X14198634Y-12730984D01*
X14351015Y-12911936D02*
X14360539Y-12921460D01*
X14360539Y-12921460D02*
X14351015Y-12930984D01*
X14351015Y-12930984D02*
X14341491Y-12921460D01*
X14341491Y-12921460D02*
X14351015Y-12911936D01*
X14351015Y-12911936D02*
X14351015Y-12930984D01*
X14484348Y-12730984D02*
X14503396Y-12730984D01*
X14503396Y-12730984D02*
X14522444Y-12740508D01*
X14522444Y-12740508D02*
X14531967Y-12750031D01*
X14531967Y-12750031D02*
X14541491Y-12769079D01*
X14541491Y-12769079D02*
X14551015Y-12807174D01*
X14551015Y-12807174D02*
X14551015Y-12854793D01*
X14551015Y-12854793D02*
X14541491Y-12892888D01*
X14541491Y-12892888D02*
X14531967Y-12911936D01*
X14531967Y-12911936D02*
X14522444Y-12921460D01*
X14522444Y-12921460D02*
X14503396Y-12930984D01*
X14503396Y-12930984D02*
X14484348Y-12930984D01*
X14484348Y-12930984D02*
X14465301Y-12921460D01*
X14465301Y-12921460D02*
X14455777Y-12911936D01*
X14455777Y-12911936D02*
X14446253Y-12892888D01*
X14446253Y-12892888D02*
X14436729Y-12854793D01*
X14436729Y-12854793D02*
X14436729Y-12807174D01*
X14436729Y-12807174D02*
X14446253Y-12769079D01*
X14446253Y-12769079D02*
X14455777Y-12750031D01*
X14455777Y-12750031D02*
X14465301Y-12740508D01*
X14465301Y-12740508D02*
X14484348Y-12730984D01*
X14627206Y-12750031D02*
X14636729Y-12740508D01*
X14636729Y-12740508D02*
X14655777Y-12730984D01*
X14655777Y-12730984D02*
X14703396Y-12730984D01*
X14703396Y-12730984D02*
X14722444Y-12740508D01*
X14722444Y-12740508D02*
X14731967Y-12750031D01*
X14731967Y-12750031D02*
X14741491Y-12769079D01*
X14741491Y-12769079D02*
X14741491Y-12788127D01*
X14741491Y-12788127D02*
X14731967Y-12816698D01*
X14731967Y-12816698D02*
X14617682Y-12930984D01*
X14617682Y-12930984D02*
X14741491Y-12930984D01*
X14922444Y-12730984D02*
X14827206Y-12730984D01*
X14827206Y-12730984D02*
X14817682Y-12826222D01*
X14817682Y-12826222D02*
X14827206Y-12816698D01*
X14827206Y-12816698D02*
X14846253Y-12807174D01*
X14846253Y-12807174D02*
X14893872Y-12807174D01*
X14893872Y-12807174D02*
X14912920Y-12816698D01*
X14912920Y-12816698D02*
X14922444Y-12826222D01*
X14922444Y-12826222D02*
X14931967Y-12845269D01*
X14931967Y-12845269D02*
X14931967Y-12892888D01*
X14931967Y-12892888D02*
X14922444Y-12911936D01*
X14922444Y-12911936D02*
X14912920Y-12921460D01*
X14912920Y-12921460D02*
X14893872Y-12930984D01*
X14893872Y-12930984D02*
X14846253Y-12930984D01*
X14846253Y-12930984D02*
X14827206Y-12921460D01*
X14827206Y-12921460D02*
X14817682Y-12911936D01*
X15103396Y-12730984D02*
X15065301Y-12730984D01*
X15065301Y-12730984D02*
X15046253Y-12740508D01*
X15046253Y-12740508D02*
X15036729Y-12750031D01*
X15036729Y-12750031D02*
X15017682Y-12778603D01*
X15017682Y-12778603D02*
X15008158Y-12816698D01*
X15008158Y-12816698D02*
X15008158Y-12892888D01*
X15008158Y-12892888D02*
X15017682Y-12911936D01*
X15017682Y-12911936D02*
X15027206Y-12921460D01*
X15027206Y-12921460D02*
X15046253Y-12930984D01*
X15046253Y-12930984D02*
X15084348Y-12930984D01*
X15084348Y-12930984D02*
X15103396Y-12921460D01*
X15103396Y-12921460D02*
X15112920Y-12911936D01*
X15112920Y-12911936D02*
X15122444Y-12892888D01*
X15122444Y-12892888D02*
X15122444Y-12845269D01*
X15122444Y-12845269D02*
X15112920Y-12826222D01*
X15112920Y-12826222D02*
X15103396Y-12816698D01*
X15103396Y-12816698D02*
X15084348Y-12807174D01*
X15084348Y-12807174D02*
X15046253Y-12807174D01*
X15046253Y-12807174D02*
X15027206Y-12816698D01*
X15027206Y-12816698D02*
X15017682Y-12826222D01*
X15017682Y-12826222D02*
X15008158Y-12845269D01*
X15198634Y-12730984D02*
X15198634Y-12769079D01*
X15274825Y-12730984D02*
X15274825Y-12769079D01*
X15570063Y-13007174D02*
X15560539Y-12997650D01*
X15560539Y-12997650D02*
X15541491Y-12969079D01*
X15541491Y-12969079D02*
X15531968Y-12950031D01*
X15531968Y-12950031D02*
X15522444Y-12921460D01*
X15522444Y-12921460D02*
X15512920Y-12873841D01*
X15512920Y-12873841D02*
X15512920Y-12835746D01*
X15512920Y-12835746D02*
X15522444Y-12788127D01*
X15522444Y-12788127D02*
X15531968Y-12759555D01*
X15531968Y-12759555D02*
X15541491Y-12740508D01*
X15541491Y-12740508D02*
X15560539Y-12711936D01*
X15560539Y-12711936D02*
X15570063Y-12702412D01*
X15731968Y-12730984D02*
X15693872Y-12730984D01*
X15693872Y-12730984D02*
X15674825Y-12740508D01*
X15674825Y-12740508D02*
X15665301Y-12750031D01*
X15665301Y-12750031D02*
X15646253Y-12778603D01*
X15646253Y-12778603D02*
X15636729Y-12816698D01*
X15636729Y-12816698D02*
X15636729Y-12892888D01*
X15636729Y-12892888D02*
X15646253Y-12911936D01*
X15646253Y-12911936D02*
X15655777Y-12921460D01*
X15655777Y-12921460D02*
X15674825Y-12930984D01*
X15674825Y-12930984D02*
X15712920Y-12930984D01*
X15712920Y-12930984D02*
X15731968Y-12921460D01*
X15731968Y-12921460D02*
X15741491Y-12911936D01*
X15741491Y-12911936D02*
X15751015Y-12892888D01*
X15751015Y-12892888D02*
X15751015Y-12845269D01*
X15751015Y-12845269D02*
X15741491Y-12826222D01*
X15741491Y-12826222D02*
X15731968Y-12816698D01*
X15731968Y-12816698D02*
X15712920Y-12807174D01*
X15712920Y-12807174D02*
X15674825Y-12807174D01*
X15674825Y-12807174D02*
X15655777Y-12816698D01*
X15655777Y-12816698D02*
X15646253Y-12826222D01*
X15646253Y-12826222D02*
X15636729Y-12845269D01*
X15989110Y-12930984D02*
X15989110Y-12730984D01*
X16074825Y-12930984D02*
X16074825Y-12826222D01*
X16074825Y-12826222D02*
X16065301Y-12807174D01*
X16065301Y-12807174D02*
X16046253Y-12797650D01*
X16046253Y-12797650D02*
X16017682Y-12797650D01*
X16017682Y-12797650D02*
X15998634Y-12807174D01*
X15998634Y-12807174D02*
X15989110Y-12816698D01*
X16198634Y-12930984D02*
X16179587Y-12921460D01*
X16179587Y-12921460D02*
X16170063Y-12911936D01*
X16170063Y-12911936D02*
X16160539Y-12892888D01*
X16160539Y-12892888D02*
X16160539Y-12835746D01*
X16160539Y-12835746D02*
X16170063Y-12816698D01*
X16170063Y-12816698D02*
X16179587Y-12807174D01*
X16179587Y-12807174D02*
X16198634Y-12797650D01*
X16198634Y-12797650D02*
X16227206Y-12797650D01*
X16227206Y-12797650D02*
X16246253Y-12807174D01*
X16246253Y-12807174D02*
X16255777Y-12816698D01*
X16255777Y-12816698D02*
X16265301Y-12835746D01*
X16265301Y-12835746D02*
X16265301Y-12892888D01*
X16265301Y-12892888D02*
X16255777Y-12911936D01*
X16255777Y-12911936D02*
X16246253Y-12921460D01*
X16246253Y-12921460D02*
X16227206Y-12930984D01*
X16227206Y-12930984D02*
X16198634Y-12930984D01*
X16379587Y-12930984D02*
X16360539Y-12921460D01*
X16360539Y-12921460D02*
X16351015Y-12902412D01*
X16351015Y-12902412D02*
X16351015Y-12730984D01*
X16531968Y-12921460D02*
X16512920Y-12930984D01*
X16512920Y-12930984D02*
X16474825Y-12930984D01*
X16474825Y-12930984D02*
X16455777Y-12921460D01*
X16455777Y-12921460D02*
X16446253Y-12902412D01*
X16446253Y-12902412D02*
X16446253Y-12826222D01*
X16446253Y-12826222D02*
X16455777Y-12807174D01*
X16455777Y-12807174D02*
X16474825Y-12797650D01*
X16474825Y-12797650D02*
X16512920Y-12797650D01*
X16512920Y-12797650D02*
X16531968Y-12807174D01*
X16531968Y-12807174D02*
X16541491Y-12826222D01*
X16541491Y-12826222D02*
X16541491Y-12845269D01*
X16541491Y-12845269D02*
X16446253Y-12864317D01*
X16617682Y-12921460D02*
X16636730Y-12930984D01*
X16636730Y-12930984D02*
X16674825Y-12930984D01*
X16674825Y-12930984D02*
X16693872Y-12921460D01*
X16693872Y-12921460D02*
X16703396Y-12902412D01*
X16703396Y-12902412D02*
X16703396Y-12892888D01*
X16703396Y-12892888D02*
X16693872Y-12873841D01*
X16693872Y-12873841D02*
X16674825Y-12864317D01*
X16674825Y-12864317D02*
X16646253Y-12864317D01*
X16646253Y-12864317D02*
X16627206Y-12854793D01*
X16627206Y-12854793D02*
X16617682Y-12835746D01*
X16617682Y-12835746D02*
X16617682Y-12826222D01*
X16617682Y-12826222D02*
X16627206Y-12807174D01*
X16627206Y-12807174D02*
X16646253Y-12797650D01*
X16646253Y-12797650D02*
X16674825Y-12797650D01*
X16674825Y-12797650D02*
X16693872Y-12807174D01*
X16770063Y-13007174D02*
X16779587Y-12997650D01*
X16779587Y-12997650D02*
X16798634Y-12969079D01*
X16798634Y-12969079D02*
X16808158Y-12950031D01*
X16808158Y-12950031D02*
X16817682Y-12921460D01*
X16817682Y-12921460D02*
X16827206Y-12873841D01*
X16827206Y-12873841D02*
X16827206Y-12835746D01*
X16827206Y-12835746D02*
X16817682Y-12788127D01*
X16817682Y-12788127D02*
X16808158Y-12759555D01*
X16808158Y-12759555D02*
X16798634Y-12740508D01*
X16798634Y-12740508D02*
X16779587Y-12711936D01*
X16779587Y-12711936D02*
X16770063Y-12702412D01*
D11*
X11983284Y-13131784D02*
X11983284Y-13075215D01*
X11926715Y-13075215D01*
X11926715Y-13131784D01*
X11983284Y-13131784D01*
D10*
X12293872Y-12994984D02*
X12312920Y-12994984D01*
X12312920Y-12994984D02*
X12331967Y-13004508D01*
X12331967Y-13004508D02*
X12341491Y-13014031D01*
X12341491Y-13014031D02*
X12351015Y-13033079D01*
X12351015Y-13033079D02*
X12360539Y-13071174D01*
X12360539Y-13071174D02*
X12360539Y-13118793D01*
X12360539Y-13118793D02*
X12351015Y-13156888D01*
X12351015Y-13156888D02*
X12341491Y-13175936D01*
X12341491Y-13175936D02*
X12331967Y-13185460D01*
X12331967Y-13185460D02*
X12312920Y-13194984D01*
X12312920Y-13194984D02*
X12293872Y-13194984D01*
X12293872Y-13194984D02*
X12274824Y-13185460D01*
X12274824Y-13185460D02*
X12265301Y-13175936D01*
X12265301Y-13175936D02*
X12255777Y-13156888D01*
X12255777Y-13156888D02*
X12246253Y-13118793D01*
X12246253Y-13118793D02*
X12246253Y-13071174D01*
X12246253Y-13071174D02*
X12255777Y-13033079D01*
X12255777Y-13033079D02*
X12265301Y-13014031D01*
X12265301Y-13014031D02*
X12274824Y-13004508D01*
X12274824Y-13004508D02*
X12293872Y-12994984D01*
X12446253Y-13175936D02*
X12455777Y-13185460D01*
X12455777Y-13185460D02*
X12446253Y-13194984D01*
X12446253Y-13194984D02*
X12436729Y-13185460D01*
X12436729Y-13185460D02*
X12446253Y-13175936D01*
X12446253Y-13175936D02*
X12446253Y-13194984D01*
X12570062Y-13080698D02*
X12551015Y-13071174D01*
X12551015Y-13071174D02*
X12541491Y-13061650D01*
X12541491Y-13061650D02*
X12531967Y-13042603D01*
X12531967Y-13042603D02*
X12531967Y-13033079D01*
X12531967Y-13033079D02*
X12541491Y-13014031D01*
X12541491Y-13014031D02*
X12551015Y-13004508D01*
X12551015Y-13004508D02*
X12570062Y-12994984D01*
X12570062Y-12994984D02*
X12608158Y-12994984D01*
X12608158Y-12994984D02*
X12627205Y-13004508D01*
X12627205Y-13004508D02*
X12636729Y-13014031D01*
X12636729Y-13014031D02*
X12646253Y-13033079D01*
X12646253Y-13033079D02*
X12646253Y-13042603D01*
X12646253Y-13042603D02*
X12636729Y-13061650D01*
X12636729Y-13061650D02*
X12627205Y-13071174D01*
X12627205Y-13071174D02*
X12608158Y-13080698D01*
X12608158Y-13080698D02*
X12570062Y-13080698D01*
X12570062Y-13080698D02*
X12551015Y-13090222D01*
X12551015Y-13090222D02*
X12541491Y-13099746D01*
X12541491Y-13099746D02*
X12531967Y-13118793D01*
X12531967Y-13118793D02*
X12531967Y-13156888D01*
X12531967Y-13156888D02*
X12541491Y-13175936D01*
X12541491Y-13175936D02*
X12551015Y-13185460D01*
X12551015Y-13185460D02*
X12570062Y-13194984D01*
X12570062Y-13194984D02*
X12608158Y-13194984D01*
X12608158Y-13194984D02*
X12627205Y-13185460D01*
X12627205Y-13185460D02*
X12636729Y-13175936D01*
X12636729Y-13175936D02*
X12646253Y-13156888D01*
X12646253Y-13156888D02*
X12646253Y-13118793D01*
X12646253Y-13118793D02*
X12636729Y-13099746D01*
X12636729Y-13099746D02*
X12627205Y-13090222D01*
X12627205Y-13090222D02*
X12608158Y-13080698D01*
X12770062Y-12994984D02*
X12789110Y-12994984D01*
X12789110Y-12994984D02*
X12808158Y-13004508D01*
X12808158Y-13004508D02*
X12817682Y-13014031D01*
X12817682Y-13014031D02*
X12827205Y-13033079D01*
X12827205Y-13033079D02*
X12836729Y-13071174D01*
X12836729Y-13071174D02*
X12836729Y-13118793D01*
X12836729Y-13118793D02*
X12827205Y-13156888D01*
X12827205Y-13156888D02*
X12817682Y-13175936D01*
X12817682Y-13175936D02*
X12808158Y-13185460D01*
X12808158Y-13185460D02*
X12789110Y-13194984D01*
X12789110Y-13194984D02*
X12770062Y-13194984D01*
X12770062Y-13194984D02*
X12751015Y-13185460D01*
X12751015Y-13185460D02*
X12741491Y-13175936D01*
X12741491Y-13175936D02*
X12731967Y-13156888D01*
X12731967Y-13156888D02*
X12722443Y-13118793D01*
X12722443Y-13118793D02*
X12722443Y-13071174D01*
X12722443Y-13071174D02*
X12731967Y-13033079D01*
X12731967Y-13033079D02*
X12741491Y-13014031D01*
X12741491Y-13014031D02*
X12751015Y-13004508D01*
X12751015Y-13004508D02*
X12770062Y-12994984D01*
X12960539Y-12994984D02*
X12979586Y-12994984D01*
X12979586Y-12994984D02*
X12998634Y-13004508D01*
X12998634Y-13004508D02*
X13008158Y-13014031D01*
X13008158Y-13014031D02*
X13017682Y-13033079D01*
X13017682Y-13033079D02*
X13027205Y-13071174D01*
X13027205Y-13071174D02*
X13027205Y-13118793D01*
X13027205Y-13118793D02*
X13017682Y-13156888D01*
X13017682Y-13156888D02*
X13008158Y-13175936D01*
X13008158Y-13175936D02*
X12998634Y-13185460D01*
X12998634Y-13185460D02*
X12979586Y-13194984D01*
X12979586Y-13194984D02*
X12960539Y-13194984D01*
X12960539Y-13194984D02*
X12941491Y-13185460D01*
X12941491Y-13185460D02*
X12931967Y-13175936D01*
X12931967Y-13175936D02*
X12922443Y-13156888D01*
X12922443Y-13156888D02*
X12912920Y-13118793D01*
X12912920Y-13118793D02*
X12912920Y-13071174D01*
X12912920Y-13071174D02*
X12922443Y-13033079D01*
X12922443Y-13033079D02*
X12931967Y-13014031D01*
X12931967Y-13014031D02*
X12941491Y-13004508D01*
X12941491Y-13004508D02*
X12960539Y-12994984D01*
X13112920Y-13194984D02*
X13112920Y-13061650D01*
X13112920Y-13080698D02*
X13122443Y-13071174D01*
X13122443Y-13071174D02*
X13141491Y-13061650D01*
X13141491Y-13061650D02*
X13170063Y-13061650D01*
X13170063Y-13061650D02*
X13189110Y-13071174D01*
X13189110Y-13071174D02*
X13198634Y-13090222D01*
X13198634Y-13090222D02*
X13198634Y-13194984D01*
X13198634Y-13090222D02*
X13208158Y-13071174D01*
X13208158Y-13071174D02*
X13227205Y-13061650D01*
X13227205Y-13061650D02*
X13255777Y-13061650D01*
X13255777Y-13061650D02*
X13274824Y-13071174D01*
X13274824Y-13071174D02*
X13284348Y-13090222D01*
X13284348Y-13090222D02*
X13284348Y-13194984D01*
X13379586Y-13194984D02*
X13379586Y-13061650D01*
X13379586Y-13080698D02*
X13389110Y-13071174D01*
X13389110Y-13071174D02*
X13408158Y-13061650D01*
X13408158Y-13061650D02*
X13436729Y-13061650D01*
X13436729Y-13061650D02*
X13455777Y-13071174D01*
X13455777Y-13071174D02*
X13465301Y-13090222D01*
X13465301Y-13090222D02*
X13465301Y-13194984D01*
X13465301Y-13090222D02*
X13474824Y-13071174D01*
X13474824Y-13071174D02*
X13493872Y-13061650D01*
X13493872Y-13061650D02*
X13522443Y-13061650D01*
X13522443Y-13061650D02*
X13541491Y-13071174D01*
X13541491Y-13071174D02*
X13551015Y-13090222D01*
X13551015Y-13090222D02*
X13551015Y-13194984D01*
X13941491Y-12985460D02*
X13770063Y-13242603D01*
X14198634Y-12994984D02*
X14217682Y-12994984D01*
X14217682Y-12994984D02*
X14236729Y-13004508D01*
X14236729Y-13004508D02*
X14246253Y-13014031D01*
X14246253Y-13014031D02*
X14255777Y-13033079D01*
X14255777Y-13033079D02*
X14265301Y-13071174D01*
X14265301Y-13071174D02*
X14265301Y-13118793D01*
X14265301Y-13118793D02*
X14255777Y-13156888D01*
X14255777Y-13156888D02*
X14246253Y-13175936D01*
X14246253Y-13175936D02*
X14236729Y-13185460D01*
X14236729Y-13185460D02*
X14217682Y-13194984D01*
X14217682Y-13194984D02*
X14198634Y-13194984D01*
X14198634Y-13194984D02*
X14179586Y-13185460D01*
X14179586Y-13185460D02*
X14170063Y-13175936D01*
X14170063Y-13175936D02*
X14160539Y-13156888D01*
X14160539Y-13156888D02*
X14151015Y-13118793D01*
X14151015Y-13118793D02*
X14151015Y-13071174D01*
X14151015Y-13071174D02*
X14160539Y-13033079D01*
X14160539Y-13033079D02*
X14170063Y-13014031D01*
X14170063Y-13014031D02*
X14179586Y-13004508D01*
X14179586Y-13004508D02*
X14198634Y-12994984D01*
X14351015Y-13175936D02*
X14360539Y-13185460D01*
X14360539Y-13185460D02*
X14351015Y-13194984D01*
X14351015Y-13194984D02*
X14341491Y-13185460D01*
X14341491Y-13185460D02*
X14351015Y-13175936D01*
X14351015Y-13175936D02*
X14351015Y-13194984D01*
X14484348Y-12994984D02*
X14503396Y-12994984D01*
X14503396Y-12994984D02*
X14522444Y-13004508D01*
X14522444Y-13004508D02*
X14531967Y-13014031D01*
X14531967Y-13014031D02*
X14541491Y-13033079D01*
X14541491Y-13033079D02*
X14551015Y-13071174D01*
X14551015Y-13071174D02*
X14551015Y-13118793D01*
X14551015Y-13118793D02*
X14541491Y-13156888D01*
X14541491Y-13156888D02*
X14531967Y-13175936D01*
X14531967Y-13175936D02*
X14522444Y-13185460D01*
X14522444Y-13185460D02*
X14503396Y-13194984D01*
X14503396Y-13194984D02*
X14484348Y-13194984D01*
X14484348Y-13194984D02*
X14465301Y-13185460D01*
X14465301Y-13185460D02*
X14455777Y-13175936D01*
X14455777Y-13175936D02*
X14446253Y-13156888D01*
X14446253Y-13156888D02*
X14436729Y-13118793D01*
X14436729Y-13118793D02*
X14436729Y-13071174D01*
X14436729Y-13071174D02*
X14446253Y-13033079D01*
X14446253Y-13033079D02*
X14455777Y-13014031D01*
X14455777Y-13014031D02*
X14465301Y-13004508D01*
X14465301Y-13004508D02*
X14484348Y-12994984D01*
X14617682Y-12994984D02*
X14741491Y-12994984D01*
X14741491Y-12994984D02*
X14674825Y-13071174D01*
X14674825Y-13071174D02*
X14703396Y-13071174D01*
X14703396Y-13071174D02*
X14722444Y-13080698D01*
X14722444Y-13080698D02*
X14731967Y-13090222D01*
X14731967Y-13090222D02*
X14741491Y-13109269D01*
X14741491Y-13109269D02*
X14741491Y-13156888D01*
X14741491Y-13156888D02*
X14731967Y-13175936D01*
X14731967Y-13175936D02*
X14722444Y-13185460D01*
X14722444Y-13185460D02*
X14703396Y-13194984D01*
X14703396Y-13194984D02*
X14646253Y-13194984D01*
X14646253Y-13194984D02*
X14627206Y-13185460D01*
X14627206Y-13185460D02*
X14617682Y-13175936D01*
X14931967Y-13194984D02*
X14817682Y-13194984D01*
X14874825Y-13194984D02*
X14874825Y-12994984D01*
X14874825Y-12994984D02*
X14855777Y-13023555D01*
X14855777Y-13023555D02*
X14836729Y-13042603D01*
X14836729Y-13042603D02*
X14817682Y-13052127D01*
X15112920Y-12994984D02*
X15017682Y-12994984D01*
X15017682Y-12994984D02*
X15008158Y-13090222D01*
X15008158Y-13090222D02*
X15017682Y-13080698D01*
X15017682Y-13080698D02*
X15036729Y-13071174D01*
X15036729Y-13071174D02*
X15084348Y-13071174D01*
X15084348Y-13071174D02*
X15103396Y-13080698D01*
X15103396Y-13080698D02*
X15112920Y-13090222D01*
X15112920Y-13090222D02*
X15122444Y-13109269D01*
X15122444Y-13109269D02*
X15122444Y-13156888D01*
X15122444Y-13156888D02*
X15112920Y-13175936D01*
X15112920Y-13175936D02*
X15103396Y-13185460D01*
X15103396Y-13185460D02*
X15084348Y-13194984D01*
X15084348Y-13194984D02*
X15036729Y-13194984D01*
X15036729Y-13194984D02*
X15017682Y-13185460D01*
X15017682Y-13185460D02*
X15008158Y-13175936D01*
X15198634Y-12994984D02*
X15198634Y-13033079D01*
X15274825Y-12994984D02*
X15274825Y-13033079D01*
X15570063Y-13271174D02*
X15560539Y-13261650D01*
X15560539Y-13261650D02*
X15541491Y-13233079D01*
X15541491Y-13233079D02*
X15531968Y-13214031D01*
X15531968Y-13214031D02*
X15522444Y-13185460D01*
X15522444Y-13185460D02*
X15512920Y-13137841D01*
X15512920Y-13137841D02*
X15512920Y-13099746D01*
X15512920Y-13099746D02*
X15522444Y-13052127D01*
X15522444Y-13052127D02*
X15531968Y-13023555D01*
X15531968Y-13023555D02*
X15541491Y-13004508D01*
X15541491Y-13004508D02*
X15560539Y-12975936D01*
X15560539Y-12975936D02*
X15570063Y-12966412D01*
X15751015Y-13194984D02*
X15636729Y-13194984D01*
X15693872Y-13194984D02*
X15693872Y-12994984D01*
X15693872Y-12994984D02*
X15674825Y-13023555D01*
X15674825Y-13023555D02*
X15655777Y-13042603D01*
X15655777Y-13042603D02*
X15636729Y-13052127D01*
X15874825Y-12994984D02*
X15893872Y-12994984D01*
X15893872Y-12994984D02*
X15912920Y-13004508D01*
X15912920Y-13004508D02*
X15922444Y-13014031D01*
X15922444Y-13014031D02*
X15931968Y-13033079D01*
X15931968Y-13033079D02*
X15941491Y-13071174D01*
X15941491Y-13071174D02*
X15941491Y-13118793D01*
X15941491Y-13118793D02*
X15931968Y-13156888D01*
X15931968Y-13156888D02*
X15922444Y-13175936D01*
X15922444Y-13175936D02*
X15912920Y-13185460D01*
X15912920Y-13185460D02*
X15893872Y-13194984D01*
X15893872Y-13194984D02*
X15874825Y-13194984D01*
X15874825Y-13194984D02*
X15855777Y-13185460D01*
X15855777Y-13185460D02*
X15846253Y-13175936D01*
X15846253Y-13175936D02*
X15836729Y-13156888D01*
X15836729Y-13156888D02*
X15827206Y-13118793D01*
X15827206Y-13118793D02*
X15827206Y-13071174D01*
X15827206Y-13071174D02*
X15836729Y-13033079D01*
X15836729Y-13033079D02*
X15846253Y-13014031D01*
X15846253Y-13014031D02*
X15855777Y-13004508D01*
X15855777Y-13004508D02*
X15874825Y-12994984D01*
X16179587Y-13194984D02*
X16179587Y-12994984D01*
X16265301Y-13194984D02*
X16265301Y-13090222D01*
X16265301Y-13090222D02*
X16255777Y-13071174D01*
X16255777Y-13071174D02*
X16236730Y-13061650D01*
X16236730Y-13061650D02*
X16208158Y-13061650D01*
X16208158Y-13061650D02*
X16189110Y-13071174D01*
X16189110Y-13071174D02*
X16179587Y-13080698D01*
X16389110Y-13194984D02*
X16370063Y-13185460D01*
X16370063Y-13185460D02*
X16360539Y-13175936D01*
X16360539Y-13175936D02*
X16351015Y-13156888D01*
X16351015Y-13156888D02*
X16351015Y-13099746D01*
X16351015Y-13099746D02*
X16360539Y-13080698D01*
X16360539Y-13080698D02*
X16370063Y-13071174D01*
X16370063Y-13071174D02*
X16389110Y-13061650D01*
X16389110Y-13061650D02*
X16417682Y-13061650D01*
X16417682Y-13061650D02*
X16436730Y-13071174D01*
X16436730Y-13071174D02*
X16446253Y-13080698D01*
X16446253Y-13080698D02*
X16455777Y-13099746D01*
X16455777Y-13099746D02*
X16455777Y-13156888D01*
X16455777Y-13156888D02*
X16446253Y-13175936D01*
X16446253Y-13175936D02*
X16436730Y-13185460D01*
X16436730Y-13185460D02*
X16417682Y-13194984D01*
X16417682Y-13194984D02*
X16389110Y-13194984D01*
X16570063Y-13194984D02*
X16551015Y-13185460D01*
X16551015Y-13185460D02*
X16541491Y-13166412D01*
X16541491Y-13166412D02*
X16541491Y-12994984D01*
X16722444Y-13185460D02*
X16703396Y-13194984D01*
X16703396Y-13194984D02*
X16665301Y-13194984D01*
X16665301Y-13194984D02*
X16646253Y-13185460D01*
X16646253Y-13185460D02*
X16636730Y-13166412D01*
X16636730Y-13166412D02*
X16636730Y-13090222D01*
X16636730Y-13090222D02*
X16646253Y-13071174D01*
X16646253Y-13071174D02*
X16665301Y-13061650D01*
X16665301Y-13061650D02*
X16703396Y-13061650D01*
X16703396Y-13061650D02*
X16722444Y-13071174D01*
X16722444Y-13071174D02*
X16731968Y-13090222D01*
X16731968Y-13090222D02*
X16731968Y-13109269D01*
X16731968Y-13109269D02*
X16636730Y-13128317D01*
X16808158Y-13185460D02*
X16827206Y-13194984D01*
X16827206Y-13194984D02*
X16865301Y-13194984D01*
X16865301Y-13194984D02*
X16884349Y-13185460D01*
X16884349Y-13185460D02*
X16893873Y-13166412D01*
X16893873Y-13166412D02*
X16893873Y-13156888D01*
X16893873Y-13156888D02*
X16884349Y-13137841D01*
X16884349Y-13137841D02*
X16865301Y-13128317D01*
X16865301Y-13128317D02*
X16836730Y-13128317D01*
X16836730Y-13128317D02*
X16817682Y-13118793D01*
X16817682Y-13118793D02*
X16808158Y-13099746D01*
X16808158Y-13099746D02*
X16808158Y-13090222D01*
X16808158Y-13090222D02*
X16817682Y-13071174D01*
X16817682Y-13071174D02*
X16836730Y-13061650D01*
X16836730Y-13061650D02*
X16865301Y-13061650D01*
X16865301Y-13061650D02*
X16884349Y-13071174D01*
X16960539Y-13271174D02*
X16970063Y-13261650D01*
X16970063Y-13261650D02*
X16989111Y-13233079D01*
X16989111Y-13233079D02*
X16998634Y-13214031D01*
X16998634Y-13214031D02*
X17008158Y-13185460D01*
X17008158Y-13185460D02*
X17017682Y-13137841D01*
X17017682Y-13137841D02*
X17017682Y-13099746D01*
X17017682Y-13099746D02*
X17008158Y-13052127D01*
X17008158Y-13052127D02*
X16998634Y-13023555D01*
X16998634Y-13023555D02*
X16989111Y-13004508D01*
X16989111Y-13004508D02*
X16970063Y-12975936D01*
X16970063Y-12975936D02*
X16960539Y-12966412D01*
D11*
X11945000Y-13417500D02*
X11995000Y-13367500D01*
X11945000Y-13317500D01*
X11895000Y-13367500D01*
X11945000Y-13417500D01*
D10*
X12360539Y-13458984D02*
X12246253Y-13458984D01*
X12303396Y-13458984D02*
X12303396Y-13258984D01*
X12303396Y-13258984D02*
X12284348Y-13287555D01*
X12284348Y-13287555D02*
X12265301Y-13306603D01*
X12265301Y-13306603D02*
X12246253Y-13316127D01*
X12446253Y-13439936D02*
X12455777Y-13449460D01*
X12455777Y-13449460D02*
X12446253Y-13458984D01*
X12446253Y-13458984D02*
X12436729Y-13449460D01*
X12436729Y-13449460D02*
X12446253Y-13439936D01*
X12446253Y-13439936D02*
X12446253Y-13458984D01*
X12579586Y-13258984D02*
X12598634Y-13258984D01*
X12598634Y-13258984D02*
X12617682Y-13268508D01*
X12617682Y-13268508D02*
X12627205Y-13278031D01*
X12627205Y-13278031D02*
X12636729Y-13297079D01*
X12636729Y-13297079D02*
X12646253Y-13335174D01*
X12646253Y-13335174D02*
X12646253Y-13382793D01*
X12646253Y-13382793D02*
X12636729Y-13420888D01*
X12636729Y-13420888D02*
X12627205Y-13439936D01*
X12627205Y-13439936D02*
X12617682Y-13449460D01*
X12617682Y-13449460D02*
X12598634Y-13458984D01*
X12598634Y-13458984D02*
X12579586Y-13458984D01*
X12579586Y-13458984D02*
X12560539Y-13449460D01*
X12560539Y-13449460D02*
X12551015Y-13439936D01*
X12551015Y-13439936D02*
X12541491Y-13420888D01*
X12541491Y-13420888D02*
X12531967Y-13382793D01*
X12531967Y-13382793D02*
X12531967Y-13335174D01*
X12531967Y-13335174D02*
X12541491Y-13297079D01*
X12541491Y-13297079D02*
X12551015Y-13278031D01*
X12551015Y-13278031D02*
X12560539Y-13268508D01*
X12560539Y-13268508D02*
X12579586Y-13258984D01*
X12770062Y-13258984D02*
X12789110Y-13258984D01*
X12789110Y-13258984D02*
X12808158Y-13268508D01*
X12808158Y-13268508D02*
X12817682Y-13278031D01*
X12817682Y-13278031D02*
X12827205Y-13297079D01*
X12827205Y-13297079D02*
X12836729Y-13335174D01*
X12836729Y-13335174D02*
X12836729Y-13382793D01*
X12836729Y-13382793D02*
X12827205Y-13420888D01*
X12827205Y-13420888D02*
X12817682Y-13439936D01*
X12817682Y-13439936D02*
X12808158Y-13449460D01*
X12808158Y-13449460D02*
X12789110Y-13458984D01*
X12789110Y-13458984D02*
X12770062Y-13458984D01*
X12770062Y-13458984D02*
X12751015Y-13449460D01*
X12751015Y-13449460D02*
X12741491Y-13439936D01*
X12741491Y-13439936D02*
X12731967Y-13420888D01*
X12731967Y-13420888D02*
X12722443Y-13382793D01*
X12722443Y-13382793D02*
X12722443Y-13335174D01*
X12722443Y-13335174D02*
X12731967Y-13297079D01*
X12731967Y-13297079D02*
X12741491Y-13278031D01*
X12741491Y-13278031D02*
X12751015Y-13268508D01*
X12751015Y-13268508D02*
X12770062Y-13258984D01*
X12960539Y-13258984D02*
X12979586Y-13258984D01*
X12979586Y-13258984D02*
X12998634Y-13268508D01*
X12998634Y-13268508D02*
X13008158Y-13278031D01*
X13008158Y-13278031D02*
X13017682Y-13297079D01*
X13017682Y-13297079D02*
X13027205Y-13335174D01*
X13027205Y-13335174D02*
X13027205Y-13382793D01*
X13027205Y-13382793D02*
X13017682Y-13420888D01*
X13017682Y-13420888D02*
X13008158Y-13439936D01*
X13008158Y-13439936D02*
X12998634Y-13449460D01*
X12998634Y-13449460D02*
X12979586Y-13458984D01*
X12979586Y-13458984D02*
X12960539Y-13458984D01*
X12960539Y-13458984D02*
X12941491Y-13449460D01*
X12941491Y-13449460D02*
X12931967Y-13439936D01*
X12931967Y-13439936D02*
X12922443Y-13420888D01*
X12922443Y-13420888D02*
X12912920Y-13382793D01*
X12912920Y-13382793D02*
X12912920Y-13335174D01*
X12912920Y-13335174D02*
X12922443Y-13297079D01*
X12922443Y-13297079D02*
X12931967Y-13278031D01*
X12931967Y-13278031D02*
X12941491Y-13268508D01*
X12941491Y-13268508D02*
X12960539Y-13258984D01*
X13112920Y-13458984D02*
X13112920Y-13325650D01*
X13112920Y-13344698D02*
X13122443Y-13335174D01*
X13122443Y-13335174D02*
X13141491Y-13325650D01*
X13141491Y-13325650D02*
X13170063Y-13325650D01*
X13170063Y-13325650D02*
X13189110Y-13335174D01*
X13189110Y-13335174D02*
X13198634Y-13354222D01*
X13198634Y-13354222D02*
X13198634Y-13458984D01*
X13198634Y-13354222D02*
X13208158Y-13335174D01*
X13208158Y-13335174D02*
X13227205Y-13325650D01*
X13227205Y-13325650D02*
X13255777Y-13325650D01*
X13255777Y-13325650D02*
X13274824Y-13335174D01*
X13274824Y-13335174D02*
X13284348Y-13354222D01*
X13284348Y-13354222D02*
X13284348Y-13458984D01*
X13379586Y-13458984D02*
X13379586Y-13325650D01*
X13379586Y-13344698D02*
X13389110Y-13335174D01*
X13389110Y-13335174D02*
X13408158Y-13325650D01*
X13408158Y-13325650D02*
X13436729Y-13325650D01*
X13436729Y-13325650D02*
X13455777Y-13335174D01*
X13455777Y-13335174D02*
X13465301Y-13354222D01*
X13465301Y-13354222D02*
X13465301Y-13458984D01*
X13465301Y-13354222D02*
X13474824Y-13335174D01*
X13474824Y-13335174D02*
X13493872Y-13325650D01*
X13493872Y-13325650D02*
X13522443Y-13325650D01*
X13522443Y-13325650D02*
X13541491Y-13335174D01*
X13541491Y-13335174D02*
X13551015Y-13354222D01*
X13551015Y-13354222D02*
X13551015Y-13458984D01*
X13941491Y-13249460D02*
X13770063Y-13506603D01*
X14198634Y-13258984D02*
X14217682Y-13258984D01*
X14217682Y-13258984D02*
X14236729Y-13268508D01*
X14236729Y-13268508D02*
X14246253Y-13278031D01*
X14246253Y-13278031D02*
X14255777Y-13297079D01*
X14255777Y-13297079D02*
X14265301Y-13335174D01*
X14265301Y-13335174D02*
X14265301Y-13382793D01*
X14265301Y-13382793D02*
X14255777Y-13420888D01*
X14255777Y-13420888D02*
X14246253Y-13439936D01*
X14246253Y-13439936D02*
X14236729Y-13449460D01*
X14236729Y-13449460D02*
X14217682Y-13458984D01*
X14217682Y-13458984D02*
X14198634Y-13458984D01*
X14198634Y-13458984D02*
X14179586Y-13449460D01*
X14179586Y-13449460D02*
X14170063Y-13439936D01*
X14170063Y-13439936D02*
X14160539Y-13420888D01*
X14160539Y-13420888D02*
X14151015Y-13382793D01*
X14151015Y-13382793D02*
X14151015Y-13335174D01*
X14151015Y-13335174D02*
X14160539Y-13297079D01*
X14160539Y-13297079D02*
X14170063Y-13278031D01*
X14170063Y-13278031D02*
X14179586Y-13268508D01*
X14179586Y-13268508D02*
X14198634Y-13258984D01*
X14351015Y-13439936D02*
X14360539Y-13449460D01*
X14360539Y-13449460D02*
X14351015Y-13458984D01*
X14351015Y-13458984D02*
X14341491Y-13449460D01*
X14341491Y-13449460D02*
X14351015Y-13439936D01*
X14351015Y-13439936D02*
X14351015Y-13458984D01*
X14484348Y-13258984D02*
X14503396Y-13258984D01*
X14503396Y-13258984D02*
X14522444Y-13268508D01*
X14522444Y-13268508D02*
X14531967Y-13278031D01*
X14531967Y-13278031D02*
X14541491Y-13297079D01*
X14541491Y-13297079D02*
X14551015Y-13335174D01*
X14551015Y-13335174D02*
X14551015Y-13382793D01*
X14551015Y-13382793D02*
X14541491Y-13420888D01*
X14541491Y-13420888D02*
X14531967Y-13439936D01*
X14531967Y-13439936D02*
X14522444Y-13449460D01*
X14522444Y-13449460D02*
X14503396Y-13458984D01*
X14503396Y-13458984D02*
X14484348Y-13458984D01*
X14484348Y-13458984D02*
X14465301Y-13449460D01*
X14465301Y-13449460D02*
X14455777Y-13439936D01*
X14455777Y-13439936D02*
X14446253Y-13420888D01*
X14446253Y-13420888D02*
X14436729Y-13382793D01*
X14436729Y-13382793D02*
X14436729Y-13335174D01*
X14436729Y-13335174D02*
X14446253Y-13297079D01*
X14446253Y-13297079D02*
X14455777Y-13278031D01*
X14455777Y-13278031D02*
X14465301Y-13268508D01*
X14465301Y-13268508D02*
X14484348Y-13258984D01*
X14617682Y-13258984D02*
X14741491Y-13258984D01*
X14741491Y-13258984D02*
X14674825Y-13335174D01*
X14674825Y-13335174D02*
X14703396Y-13335174D01*
X14703396Y-13335174D02*
X14722444Y-13344698D01*
X14722444Y-13344698D02*
X14731967Y-13354222D01*
X14731967Y-13354222D02*
X14741491Y-13373269D01*
X14741491Y-13373269D02*
X14741491Y-13420888D01*
X14741491Y-13420888D02*
X14731967Y-13439936D01*
X14731967Y-13439936D02*
X14722444Y-13449460D01*
X14722444Y-13449460D02*
X14703396Y-13458984D01*
X14703396Y-13458984D02*
X14646253Y-13458984D01*
X14646253Y-13458984D02*
X14627206Y-13449460D01*
X14627206Y-13449460D02*
X14617682Y-13439936D01*
X14836729Y-13458984D02*
X14874825Y-13458984D01*
X14874825Y-13458984D02*
X14893872Y-13449460D01*
X14893872Y-13449460D02*
X14903396Y-13439936D01*
X14903396Y-13439936D02*
X14922444Y-13411365D01*
X14922444Y-13411365D02*
X14931967Y-13373269D01*
X14931967Y-13373269D02*
X14931967Y-13297079D01*
X14931967Y-13297079D02*
X14922444Y-13278031D01*
X14922444Y-13278031D02*
X14912920Y-13268508D01*
X14912920Y-13268508D02*
X14893872Y-13258984D01*
X14893872Y-13258984D02*
X14855777Y-13258984D01*
X14855777Y-13258984D02*
X14836729Y-13268508D01*
X14836729Y-13268508D02*
X14827206Y-13278031D01*
X14827206Y-13278031D02*
X14817682Y-13297079D01*
X14817682Y-13297079D02*
X14817682Y-13344698D01*
X14817682Y-13344698D02*
X14827206Y-13363746D01*
X14827206Y-13363746D02*
X14836729Y-13373269D01*
X14836729Y-13373269D02*
X14855777Y-13382793D01*
X14855777Y-13382793D02*
X14893872Y-13382793D01*
X14893872Y-13382793D02*
X14912920Y-13373269D01*
X14912920Y-13373269D02*
X14922444Y-13363746D01*
X14922444Y-13363746D02*
X14931967Y-13344698D01*
X15103396Y-13325650D02*
X15103396Y-13458984D01*
X15055777Y-13249460D02*
X15008158Y-13392317D01*
X15008158Y-13392317D02*
X15131967Y-13392317D01*
X15198634Y-13258984D02*
X15198634Y-13297079D01*
X15274825Y-13258984D02*
X15274825Y-13297079D01*
X15570063Y-13535174D02*
X15560539Y-13525650D01*
X15560539Y-13525650D02*
X15541491Y-13497079D01*
X15541491Y-13497079D02*
X15531968Y-13478031D01*
X15531968Y-13478031D02*
X15522444Y-13449460D01*
X15522444Y-13449460D02*
X15512920Y-13401841D01*
X15512920Y-13401841D02*
X15512920Y-13363746D01*
X15512920Y-13363746D02*
X15522444Y-13316127D01*
X15522444Y-13316127D02*
X15531968Y-13287555D01*
X15531968Y-13287555D02*
X15541491Y-13268508D01*
X15541491Y-13268508D02*
X15560539Y-13239936D01*
X15560539Y-13239936D02*
X15570063Y-13230412D01*
X15731968Y-13258984D02*
X15693872Y-13258984D01*
X15693872Y-13258984D02*
X15674825Y-13268508D01*
X15674825Y-13268508D02*
X15665301Y-13278031D01*
X15665301Y-13278031D02*
X15646253Y-13306603D01*
X15646253Y-13306603D02*
X15636729Y-13344698D01*
X15636729Y-13344698D02*
X15636729Y-13420888D01*
X15636729Y-13420888D02*
X15646253Y-13439936D01*
X15646253Y-13439936D02*
X15655777Y-13449460D01*
X15655777Y-13449460D02*
X15674825Y-13458984D01*
X15674825Y-13458984D02*
X15712920Y-13458984D01*
X15712920Y-13458984D02*
X15731968Y-13449460D01*
X15731968Y-13449460D02*
X15741491Y-13439936D01*
X15741491Y-13439936D02*
X15751015Y-13420888D01*
X15751015Y-13420888D02*
X15751015Y-13373269D01*
X15751015Y-13373269D02*
X15741491Y-13354222D01*
X15741491Y-13354222D02*
X15731968Y-13344698D01*
X15731968Y-13344698D02*
X15712920Y-13335174D01*
X15712920Y-13335174D02*
X15674825Y-13335174D01*
X15674825Y-13335174D02*
X15655777Y-13344698D01*
X15655777Y-13344698D02*
X15646253Y-13354222D01*
X15646253Y-13354222D02*
X15636729Y-13373269D01*
X15989110Y-13458984D02*
X15989110Y-13258984D01*
X16074825Y-13458984D02*
X16074825Y-13354222D01*
X16074825Y-13354222D02*
X16065301Y-13335174D01*
X16065301Y-13335174D02*
X16046253Y-13325650D01*
X16046253Y-13325650D02*
X16017682Y-13325650D01*
X16017682Y-13325650D02*
X15998634Y-13335174D01*
X15998634Y-13335174D02*
X15989110Y-13344698D01*
X16198634Y-13458984D02*
X16179587Y-13449460D01*
X16179587Y-13449460D02*
X16170063Y-13439936D01*
X16170063Y-13439936D02*
X16160539Y-13420888D01*
X16160539Y-13420888D02*
X16160539Y-13363746D01*
X16160539Y-13363746D02*
X16170063Y-13344698D01*
X16170063Y-13344698D02*
X16179587Y-13335174D01*
X16179587Y-13335174D02*
X16198634Y-13325650D01*
X16198634Y-13325650D02*
X16227206Y-13325650D01*
X16227206Y-13325650D02*
X16246253Y-13335174D01*
X16246253Y-13335174D02*
X16255777Y-13344698D01*
X16255777Y-13344698D02*
X16265301Y-13363746D01*
X16265301Y-13363746D02*
X16265301Y-13420888D01*
X16265301Y-13420888D02*
X16255777Y-13439936D01*
X16255777Y-13439936D02*
X16246253Y-13449460D01*
X16246253Y-13449460D02*
X16227206Y-13458984D01*
X16227206Y-13458984D02*
X16198634Y-13458984D01*
X16379587Y-13458984D02*
X16360539Y-13449460D01*
X16360539Y-13449460D02*
X16351015Y-13430412D01*
X16351015Y-13430412D02*
X16351015Y-13258984D01*
X16531968Y-13449460D02*
X16512920Y-13458984D01*
X16512920Y-13458984D02*
X16474825Y-13458984D01*
X16474825Y-13458984D02*
X16455777Y-13449460D01*
X16455777Y-13449460D02*
X16446253Y-13430412D01*
X16446253Y-13430412D02*
X16446253Y-13354222D01*
X16446253Y-13354222D02*
X16455777Y-13335174D01*
X16455777Y-13335174D02*
X16474825Y-13325650D01*
X16474825Y-13325650D02*
X16512920Y-13325650D01*
X16512920Y-13325650D02*
X16531968Y-13335174D01*
X16531968Y-13335174D02*
X16541491Y-13354222D01*
X16541491Y-13354222D02*
X16541491Y-13373269D01*
X16541491Y-13373269D02*
X16446253Y-13392317D01*
X16617682Y-13449460D02*
X16636730Y-13458984D01*
X16636730Y-13458984D02*
X16674825Y-13458984D01*
X16674825Y-13458984D02*
X16693872Y-13449460D01*
X16693872Y-13449460D02*
X16703396Y-13430412D01*
X16703396Y-13430412D02*
X16703396Y-13420888D01*
X16703396Y-13420888D02*
X16693872Y-13401841D01*
X16693872Y-13401841D02*
X16674825Y-13392317D01*
X16674825Y-13392317D02*
X16646253Y-13392317D01*
X16646253Y-13392317D02*
X16627206Y-13382793D01*
X16627206Y-13382793D02*
X16617682Y-13363746D01*
X16617682Y-13363746D02*
X16617682Y-13354222D01*
X16617682Y-13354222D02*
X16627206Y-13335174D01*
X16627206Y-13335174D02*
X16646253Y-13325650D01*
X16646253Y-13325650D02*
X16674825Y-13325650D01*
X16674825Y-13325650D02*
X16693872Y-13335174D01*
X16770063Y-13535174D02*
X16779587Y-13525650D01*
X16779587Y-13525650D02*
X16798634Y-13497079D01*
X16798634Y-13497079D02*
X16808158Y-13478031D01*
X16808158Y-13478031D02*
X16817682Y-13449460D01*
X16817682Y-13449460D02*
X16827206Y-13401841D01*
X16827206Y-13401841D02*
X16827206Y-13363746D01*
X16827206Y-13363746D02*
X16817682Y-13316127D01*
X16817682Y-13316127D02*
X16808158Y-13287555D01*
X16808158Y-13287555D02*
X16798634Y-13268508D01*
X16798634Y-13268508D02*
X16779587Y-13239936D01*
X16779587Y-13239936D02*
X16770063Y-13230412D01*
D12*
X11875000Y-13571500D02*
X11995000Y-13691500D01*
X11995000Y-13571500D02*
X11875000Y-13691500D01*
X11995000Y-13631500D02*
G75*
G02*
X11875000Y-13631500I-60000J0D01*
G01*
X11875000Y-13631500D02*
G75*
G02*
X11995000Y-13631500I60000J0D01*
G01*
D10*
X12360539Y-13722984D02*
X12246253Y-13722984D01*
X12303396Y-13722984D02*
X12303396Y-13522984D01*
X12303396Y-13522984D02*
X12284348Y-13551555D01*
X12284348Y-13551555D02*
X12265301Y-13570603D01*
X12265301Y-13570603D02*
X12246253Y-13580127D01*
X12446253Y-13703936D02*
X12455777Y-13713460D01*
X12455777Y-13713460D02*
X12446253Y-13722984D01*
X12446253Y-13722984D02*
X12436729Y-13713460D01*
X12436729Y-13713460D02*
X12446253Y-13703936D01*
X12446253Y-13703936D02*
X12446253Y-13722984D01*
X12531967Y-13542031D02*
X12541491Y-13532508D01*
X12541491Y-13532508D02*
X12560539Y-13522984D01*
X12560539Y-13522984D02*
X12608158Y-13522984D01*
X12608158Y-13522984D02*
X12627205Y-13532508D01*
X12627205Y-13532508D02*
X12636729Y-13542031D01*
X12636729Y-13542031D02*
X12646253Y-13561079D01*
X12646253Y-13561079D02*
X12646253Y-13580127D01*
X12646253Y-13580127D02*
X12636729Y-13608698D01*
X12636729Y-13608698D02*
X12522443Y-13722984D01*
X12522443Y-13722984D02*
X12646253Y-13722984D01*
X12770062Y-13522984D02*
X12789110Y-13522984D01*
X12789110Y-13522984D02*
X12808158Y-13532508D01*
X12808158Y-13532508D02*
X12817682Y-13542031D01*
X12817682Y-13542031D02*
X12827205Y-13561079D01*
X12827205Y-13561079D02*
X12836729Y-13599174D01*
X12836729Y-13599174D02*
X12836729Y-13646793D01*
X12836729Y-13646793D02*
X12827205Y-13684888D01*
X12827205Y-13684888D02*
X12817682Y-13703936D01*
X12817682Y-13703936D02*
X12808158Y-13713460D01*
X12808158Y-13713460D02*
X12789110Y-13722984D01*
X12789110Y-13722984D02*
X12770062Y-13722984D01*
X12770062Y-13722984D02*
X12751015Y-13713460D01*
X12751015Y-13713460D02*
X12741491Y-13703936D01*
X12741491Y-13703936D02*
X12731967Y-13684888D01*
X12731967Y-13684888D02*
X12722443Y-13646793D01*
X12722443Y-13646793D02*
X12722443Y-13599174D01*
X12722443Y-13599174D02*
X12731967Y-13561079D01*
X12731967Y-13561079D02*
X12741491Y-13542031D01*
X12741491Y-13542031D02*
X12751015Y-13532508D01*
X12751015Y-13532508D02*
X12770062Y-13522984D01*
X12960539Y-13522984D02*
X12979586Y-13522984D01*
X12979586Y-13522984D02*
X12998634Y-13532508D01*
X12998634Y-13532508D02*
X13008158Y-13542031D01*
X13008158Y-13542031D02*
X13017682Y-13561079D01*
X13017682Y-13561079D02*
X13027205Y-13599174D01*
X13027205Y-13599174D02*
X13027205Y-13646793D01*
X13027205Y-13646793D02*
X13017682Y-13684888D01*
X13017682Y-13684888D02*
X13008158Y-13703936D01*
X13008158Y-13703936D02*
X12998634Y-13713460D01*
X12998634Y-13713460D02*
X12979586Y-13722984D01*
X12979586Y-13722984D02*
X12960539Y-13722984D01*
X12960539Y-13722984D02*
X12941491Y-13713460D01*
X12941491Y-13713460D02*
X12931967Y-13703936D01*
X12931967Y-13703936D02*
X12922443Y-13684888D01*
X12922443Y-13684888D02*
X12912920Y-13646793D01*
X12912920Y-13646793D02*
X12912920Y-13599174D01*
X12912920Y-13599174D02*
X12922443Y-13561079D01*
X12922443Y-13561079D02*
X12931967Y-13542031D01*
X12931967Y-13542031D02*
X12941491Y-13532508D01*
X12941491Y-13532508D02*
X12960539Y-13522984D01*
X13112920Y-13722984D02*
X13112920Y-13589650D01*
X13112920Y-13608698D02*
X13122443Y-13599174D01*
X13122443Y-13599174D02*
X13141491Y-13589650D01*
X13141491Y-13589650D02*
X13170063Y-13589650D01*
X13170063Y-13589650D02*
X13189110Y-13599174D01*
X13189110Y-13599174D02*
X13198634Y-13618222D01*
X13198634Y-13618222D02*
X13198634Y-13722984D01*
X13198634Y-13618222D02*
X13208158Y-13599174D01*
X13208158Y-13599174D02*
X13227205Y-13589650D01*
X13227205Y-13589650D02*
X13255777Y-13589650D01*
X13255777Y-13589650D02*
X13274824Y-13599174D01*
X13274824Y-13599174D02*
X13284348Y-13618222D01*
X13284348Y-13618222D02*
X13284348Y-13722984D01*
X13379586Y-13722984D02*
X13379586Y-13589650D01*
X13379586Y-13608698D02*
X13389110Y-13599174D01*
X13389110Y-13599174D02*
X13408158Y-13589650D01*
X13408158Y-13589650D02*
X13436729Y-13589650D01*
X13436729Y-13589650D02*
X13455777Y-13599174D01*
X13455777Y-13599174D02*
X13465301Y-13618222D01*
X13465301Y-13618222D02*
X13465301Y-13722984D01*
X13465301Y-13618222D02*
X13474824Y-13599174D01*
X13474824Y-13599174D02*
X13493872Y-13589650D01*
X13493872Y-13589650D02*
X13522443Y-13589650D01*
X13522443Y-13589650D02*
X13541491Y-13599174D01*
X13541491Y-13599174D02*
X13551015Y-13618222D01*
X13551015Y-13618222D02*
X13551015Y-13722984D01*
X13941491Y-13513460D02*
X13770063Y-13770603D01*
X14198634Y-13522984D02*
X14217682Y-13522984D01*
X14217682Y-13522984D02*
X14236729Y-13532508D01*
X14236729Y-13532508D02*
X14246253Y-13542031D01*
X14246253Y-13542031D02*
X14255777Y-13561079D01*
X14255777Y-13561079D02*
X14265301Y-13599174D01*
X14265301Y-13599174D02*
X14265301Y-13646793D01*
X14265301Y-13646793D02*
X14255777Y-13684888D01*
X14255777Y-13684888D02*
X14246253Y-13703936D01*
X14246253Y-13703936D02*
X14236729Y-13713460D01*
X14236729Y-13713460D02*
X14217682Y-13722984D01*
X14217682Y-13722984D02*
X14198634Y-13722984D01*
X14198634Y-13722984D02*
X14179586Y-13713460D01*
X14179586Y-13713460D02*
X14170063Y-13703936D01*
X14170063Y-13703936D02*
X14160539Y-13684888D01*
X14160539Y-13684888D02*
X14151015Y-13646793D01*
X14151015Y-13646793D02*
X14151015Y-13599174D01*
X14151015Y-13599174D02*
X14160539Y-13561079D01*
X14160539Y-13561079D02*
X14170063Y-13542031D01*
X14170063Y-13542031D02*
X14179586Y-13532508D01*
X14179586Y-13532508D02*
X14198634Y-13522984D01*
X14351015Y-13703936D02*
X14360539Y-13713460D01*
X14360539Y-13713460D02*
X14351015Y-13722984D01*
X14351015Y-13722984D02*
X14341491Y-13713460D01*
X14341491Y-13713460D02*
X14351015Y-13703936D01*
X14351015Y-13703936D02*
X14351015Y-13722984D01*
X14484348Y-13522984D02*
X14503396Y-13522984D01*
X14503396Y-13522984D02*
X14522444Y-13532508D01*
X14522444Y-13532508D02*
X14531967Y-13542031D01*
X14531967Y-13542031D02*
X14541491Y-13561079D01*
X14541491Y-13561079D02*
X14551015Y-13599174D01*
X14551015Y-13599174D02*
X14551015Y-13646793D01*
X14551015Y-13646793D02*
X14541491Y-13684888D01*
X14541491Y-13684888D02*
X14531967Y-13703936D01*
X14531967Y-13703936D02*
X14522444Y-13713460D01*
X14522444Y-13713460D02*
X14503396Y-13722984D01*
X14503396Y-13722984D02*
X14484348Y-13722984D01*
X14484348Y-13722984D02*
X14465301Y-13713460D01*
X14465301Y-13713460D02*
X14455777Y-13703936D01*
X14455777Y-13703936D02*
X14446253Y-13684888D01*
X14446253Y-13684888D02*
X14436729Y-13646793D01*
X14436729Y-13646793D02*
X14436729Y-13599174D01*
X14436729Y-13599174D02*
X14446253Y-13561079D01*
X14446253Y-13561079D02*
X14455777Y-13542031D01*
X14455777Y-13542031D02*
X14465301Y-13532508D01*
X14465301Y-13532508D02*
X14484348Y-13522984D01*
X14722444Y-13589650D02*
X14722444Y-13722984D01*
X14674825Y-13513460D02*
X14627206Y-13656317D01*
X14627206Y-13656317D02*
X14751015Y-13656317D01*
X14808158Y-13522984D02*
X14941491Y-13522984D01*
X14941491Y-13522984D02*
X14855777Y-13722984D01*
X15008158Y-13542031D02*
X15017682Y-13532508D01*
X15017682Y-13532508D02*
X15036729Y-13522984D01*
X15036729Y-13522984D02*
X15084348Y-13522984D01*
X15084348Y-13522984D02*
X15103396Y-13532508D01*
X15103396Y-13532508D02*
X15112920Y-13542031D01*
X15112920Y-13542031D02*
X15122444Y-13561079D01*
X15122444Y-13561079D02*
X15122444Y-13580127D01*
X15122444Y-13580127D02*
X15112920Y-13608698D01*
X15112920Y-13608698D02*
X14998634Y-13722984D01*
X14998634Y-13722984D02*
X15122444Y-13722984D01*
X15198634Y-13522984D02*
X15198634Y-13561079D01*
X15274825Y-13522984D02*
X15274825Y-13561079D01*
X15570063Y-13799174D02*
X15560539Y-13789650D01*
X15560539Y-13789650D02*
X15541491Y-13761079D01*
X15541491Y-13761079D02*
X15531968Y-13742031D01*
X15531968Y-13742031D02*
X15522444Y-13713460D01*
X15522444Y-13713460D02*
X15512920Y-13665841D01*
X15512920Y-13665841D02*
X15512920Y-13627746D01*
X15512920Y-13627746D02*
X15522444Y-13580127D01*
X15522444Y-13580127D02*
X15531968Y-13551555D01*
X15531968Y-13551555D02*
X15541491Y-13532508D01*
X15541491Y-13532508D02*
X15560539Y-13503936D01*
X15560539Y-13503936D02*
X15570063Y-13494412D01*
X15731968Y-13522984D02*
X15693872Y-13522984D01*
X15693872Y-13522984D02*
X15674825Y-13532508D01*
X15674825Y-13532508D02*
X15665301Y-13542031D01*
X15665301Y-13542031D02*
X15646253Y-13570603D01*
X15646253Y-13570603D02*
X15636729Y-13608698D01*
X15636729Y-13608698D02*
X15636729Y-13684888D01*
X15636729Y-13684888D02*
X15646253Y-13703936D01*
X15646253Y-13703936D02*
X15655777Y-13713460D01*
X15655777Y-13713460D02*
X15674825Y-13722984D01*
X15674825Y-13722984D02*
X15712920Y-13722984D01*
X15712920Y-13722984D02*
X15731968Y-13713460D01*
X15731968Y-13713460D02*
X15741491Y-13703936D01*
X15741491Y-13703936D02*
X15751015Y-13684888D01*
X15751015Y-13684888D02*
X15751015Y-13637269D01*
X15751015Y-13637269D02*
X15741491Y-13618222D01*
X15741491Y-13618222D02*
X15731968Y-13608698D01*
X15731968Y-13608698D02*
X15712920Y-13599174D01*
X15712920Y-13599174D02*
X15674825Y-13599174D01*
X15674825Y-13599174D02*
X15655777Y-13608698D01*
X15655777Y-13608698D02*
X15646253Y-13618222D01*
X15646253Y-13618222D02*
X15636729Y-13637269D01*
X15989110Y-13722984D02*
X15989110Y-13522984D01*
X16074825Y-13722984D02*
X16074825Y-13618222D01*
X16074825Y-13618222D02*
X16065301Y-13599174D01*
X16065301Y-13599174D02*
X16046253Y-13589650D01*
X16046253Y-13589650D02*
X16017682Y-13589650D01*
X16017682Y-13589650D02*
X15998634Y-13599174D01*
X15998634Y-13599174D02*
X15989110Y-13608698D01*
X16198634Y-13722984D02*
X16179587Y-13713460D01*
X16179587Y-13713460D02*
X16170063Y-13703936D01*
X16170063Y-13703936D02*
X16160539Y-13684888D01*
X16160539Y-13684888D02*
X16160539Y-13627746D01*
X16160539Y-13627746D02*
X16170063Y-13608698D01*
X16170063Y-13608698D02*
X16179587Y-13599174D01*
X16179587Y-13599174D02*
X16198634Y-13589650D01*
X16198634Y-13589650D02*
X16227206Y-13589650D01*
X16227206Y-13589650D02*
X16246253Y-13599174D01*
X16246253Y-13599174D02*
X16255777Y-13608698D01*
X16255777Y-13608698D02*
X16265301Y-13627746D01*
X16265301Y-13627746D02*
X16265301Y-13684888D01*
X16265301Y-13684888D02*
X16255777Y-13703936D01*
X16255777Y-13703936D02*
X16246253Y-13713460D01*
X16246253Y-13713460D02*
X16227206Y-13722984D01*
X16227206Y-13722984D02*
X16198634Y-13722984D01*
X16379587Y-13722984D02*
X16360539Y-13713460D01*
X16360539Y-13713460D02*
X16351015Y-13694412D01*
X16351015Y-13694412D02*
X16351015Y-13522984D01*
X16531968Y-13713460D02*
X16512920Y-13722984D01*
X16512920Y-13722984D02*
X16474825Y-13722984D01*
X16474825Y-13722984D02*
X16455777Y-13713460D01*
X16455777Y-13713460D02*
X16446253Y-13694412D01*
X16446253Y-13694412D02*
X16446253Y-13618222D01*
X16446253Y-13618222D02*
X16455777Y-13599174D01*
X16455777Y-13599174D02*
X16474825Y-13589650D01*
X16474825Y-13589650D02*
X16512920Y-13589650D01*
X16512920Y-13589650D02*
X16531968Y-13599174D01*
X16531968Y-13599174D02*
X16541491Y-13618222D01*
X16541491Y-13618222D02*
X16541491Y-13637269D01*
X16541491Y-13637269D02*
X16446253Y-13656317D01*
X16617682Y-13713460D02*
X16636730Y-13722984D01*
X16636730Y-13722984D02*
X16674825Y-13722984D01*
X16674825Y-13722984D02*
X16693872Y-13713460D01*
X16693872Y-13713460D02*
X16703396Y-13694412D01*
X16703396Y-13694412D02*
X16703396Y-13684888D01*
X16703396Y-13684888D02*
X16693872Y-13665841D01*
X16693872Y-13665841D02*
X16674825Y-13656317D01*
X16674825Y-13656317D02*
X16646253Y-13656317D01*
X16646253Y-13656317D02*
X16627206Y-13646793D01*
X16627206Y-13646793D02*
X16617682Y-13627746D01*
X16617682Y-13627746D02*
X16617682Y-13618222D01*
X16617682Y-13618222D02*
X16627206Y-13599174D01*
X16627206Y-13599174D02*
X16646253Y-13589650D01*
X16646253Y-13589650D02*
X16674825Y-13589650D01*
X16674825Y-13589650D02*
X16693872Y-13599174D01*
X16770063Y-13799174D02*
X16779587Y-13789650D01*
X16779587Y-13789650D02*
X16798634Y-13761079D01*
X16798634Y-13761079D02*
X16808158Y-13742031D01*
X16808158Y-13742031D02*
X16817682Y-13713460D01*
X16817682Y-13713460D02*
X16827206Y-13665841D01*
X16827206Y-13665841D02*
X16827206Y-13627746D01*
X16827206Y-13627746D02*
X16817682Y-13580127D01*
X16817682Y-13580127D02*
X16808158Y-13551555D01*
X16808158Y-13551555D02*
X16798634Y-13532508D01*
X16798634Y-13532508D02*
X16779587Y-13503936D01*
X16779587Y-13503936D02*
X16770063Y-13494412D01*
D13*
X11865000Y-13830500D02*
X11995000Y-13960500D01*
X11995000Y-13830500D02*
X11865000Y-13960500D01*
X11930000Y-13830500D02*
X11930000Y-13960500D01*
X11865000Y-13895500D02*
X11995000Y-13895500D01*
D10*
X12360539Y-13986984D02*
X12246253Y-13986984D01*
X12303396Y-13986984D02*
X12303396Y-13786984D01*
X12303396Y-13786984D02*
X12284348Y-13815555D01*
X12284348Y-13815555D02*
X12265301Y-13834603D01*
X12265301Y-13834603D02*
X12246253Y-13844127D01*
X12446253Y-13967936D02*
X12455777Y-13977460D01*
X12455777Y-13977460D02*
X12446253Y-13986984D01*
X12446253Y-13986984D02*
X12436729Y-13977460D01*
X12436729Y-13977460D02*
X12446253Y-13967936D01*
X12446253Y-13967936D02*
X12446253Y-13986984D01*
X12522443Y-13786984D02*
X12646253Y-13786984D01*
X12646253Y-13786984D02*
X12579586Y-13863174D01*
X12579586Y-13863174D02*
X12608158Y-13863174D01*
X12608158Y-13863174D02*
X12627205Y-13872698D01*
X12627205Y-13872698D02*
X12636729Y-13882222D01*
X12636729Y-13882222D02*
X12646253Y-13901269D01*
X12646253Y-13901269D02*
X12646253Y-13948888D01*
X12646253Y-13948888D02*
X12636729Y-13967936D01*
X12636729Y-13967936D02*
X12627205Y-13977460D01*
X12627205Y-13977460D02*
X12608158Y-13986984D01*
X12608158Y-13986984D02*
X12551015Y-13986984D01*
X12551015Y-13986984D02*
X12531967Y-13977460D01*
X12531967Y-13977460D02*
X12522443Y-13967936D01*
X12770062Y-13786984D02*
X12789110Y-13786984D01*
X12789110Y-13786984D02*
X12808158Y-13796508D01*
X12808158Y-13796508D02*
X12817682Y-13806031D01*
X12817682Y-13806031D02*
X12827205Y-13825079D01*
X12827205Y-13825079D02*
X12836729Y-13863174D01*
X12836729Y-13863174D02*
X12836729Y-13910793D01*
X12836729Y-13910793D02*
X12827205Y-13948888D01*
X12827205Y-13948888D02*
X12817682Y-13967936D01*
X12817682Y-13967936D02*
X12808158Y-13977460D01*
X12808158Y-13977460D02*
X12789110Y-13986984D01*
X12789110Y-13986984D02*
X12770062Y-13986984D01*
X12770062Y-13986984D02*
X12751015Y-13977460D01*
X12751015Y-13977460D02*
X12741491Y-13967936D01*
X12741491Y-13967936D02*
X12731967Y-13948888D01*
X12731967Y-13948888D02*
X12722443Y-13910793D01*
X12722443Y-13910793D02*
X12722443Y-13863174D01*
X12722443Y-13863174D02*
X12731967Y-13825079D01*
X12731967Y-13825079D02*
X12741491Y-13806031D01*
X12741491Y-13806031D02*
X12751015Y-13796508D01*
X12751015Y-13796508D02*
X12770062Y-13786984D01*
X12960539Y-13786984D02*
X12979586Y-13786984D01*
X12979586Y-13786984D02*
X12998634Y-13796508D01*
X12998634Y-13796508D02*
X13008158Y-13806031D01*
X13008158Y-13806031D02*
X13017682Y-13825079D01*
X13017682Y-13825079D02*
X13027205Y-13863174D01*
X13027205Y-13863174D02*
X13027205Y-13910793D01*
X13027205Y-13910793D02*
X13017682Y-13948888D01*
X13017682Y-13948888D02*
X13008158Y-13967936D01*
X13008158Y-13967936D02*
X12998634Y-13977460D01*
X12998634Y-13977460D02*
X12979586Y-13986984D01*
X12979586Y-13986984D02*
X12960539Y-13986984D01*
X12960539Y-13986984D02*
X12941491Y-13977460D01*
X12941491Y-13977460D02*
X12931967Y-13967936D01*
X12931967Y-13967936D02*
X12922443Y-13948888D01*
X12922443Y-13948888D02*
X12912920Y-13910793D01*
X12912920Y-13910793D02*
X12912920Y-13863174D01*
X12912920Y-13863174D02*
X12922443Y-13825079D01*
X12922443Y-13825079D02*
X12931967Y-13806031D01*
X12931967Y-13806031D02*
X12941491Y-13796508D01*
X12941491Y-13796508D02*
X12960539Y-13786984D01*
X13112920Y-13986984D02*
X13112920Y-13853650D01*
X13112920Y-13872698D02*
X13122443Y-13863174D01*
X13122443Y-13863174D02*
X13141491Y-13853650D01*
X13141491Y-13853650D02*
X13170063Y-13853650D01*
X13170063Y-13853650D02*
X13189110Y-13863174D01*
X13189110Y-13863174D02*
X13198634Y-13882222D01*
X13198634Y-13882222D02*
X13198634Y-13986984D01*
X13198634Y-13882222D02*
X13208158Y-13863174D01*
X13208158Y-13863174D02*
X13227205Y-13853650D01*
X13227205Y-13853650D02*
X13255777Y-13853650D01*
X13255777Y-13853650D02*
X13274824Y-13863174D01*
X13274824Y-13863174D02*
X13284348Y-13882222D01*
X13284348Y-13882222D02*
X13284348Y-13986984D01*
X13379586Y-13986984D02*
X13379586Y-13853650D01*
X13379586Y-13872698D02*
X13389110Y-13863174D01*
X13389110Y-13863174D02*
X13408158Y-13853650D01*
X13408158Y-13853650D02*
X13436729Y-13853650D01*
X13436729Y-13853650D02*
X13455777Y-13863174D01*
X13455777Y-13863174D02*
X13465301Y-13882222D01*
X13465301Y-13882222D02*
X13465301Y-13986984D01*
X13465301Y-13882222D02*
X13474824Y-13863174D01*
X13474824Y-13863174D02*
X13493872Y-13853650D01*
X13493872Y-13853650D02*
X13522443Y-13853650D01*
X13522443Y-13853650D02*
X13541491Y-13863174D01*
X13541491Y-13863174D02*
X13551015Y-13882222D01*
X13551015Y-13882222D02*
X13551015Y-13986984D01*
X13941491Y-13777460D02*
X13770063Y-14034603D01*
X14198634Y-13786984D02*
X14217682Y-13786984D01*
X14217682Y-13786984D02*
X14236729Y-13796508D01*
X14236729Y-13796508D02*
X14246253Y-13806031D01*
X14246253Y-13806031D02*
X14255777Y-13825079D01*
X14255777Y-13825079D02*
X14265301Y-13863174D01*
X14265301Y-13863174D02*
X14265301Y-13910793D01*
X14265301Y-13910793D02*
X14255777Y-13948888D01*
X14255777Y-13948888D02*
X14246253Y-13967936D01*
X14246253Y-13967936D02*
X14236729Y-13977460D01*
X14236729Y-13977460D02*
X14217682Y-13986984D01*
X14217682Y-13986984D02*
X14198634Y-13986984D01*
X14198634Y-13986984D02*
X14179586Y-13977460D01*
X14179586Y-13977460D02*
X14170063Y-13967936D01*
X14170063Y-13967936D02*
X14160539Y-13948888D01*
X14160539Y-13948888D02*
X14151015Y-13910793D01*
X14151015Y-13910793D02*
X14151015Y-13863174D01*
X14151015Y-13863174D02*
X14160539Y-13825079D01*
X14160539Y-13825079D02*
X14170063Y-13806031D01*
X14170063Y-13806031D02*
X14179586Y-13796508D01*
X14179586Y-13796508D02*
X14198634Y-13786984D01*
X14351015Y-13967936D02*
X14360539Y-13977460D01*
X14360539Y-13977460D02*
X14351015Y-13986984D01*
X14351015Y-13986984D02*
X14341491Y-13977460D01*
X14341491Y-13977460D02*
X14351015Y-13967936D01*
X14351015Y-13967936D02*
X14351015Y-13986984D01*
X14484348Y-13786984D02*
X14503396Y-13786984D01*
X14503396Y-13786984D02*
X14522444Y-13796508D01*
X14522444Y-13796508D02*
X14531967Y-13806031D01*
X14531967Y-13806031D02*
X14541491Y-13825079D01*
X14541491Y-13825079D02*
X14551015Y-13863174D01*
X14551015Y-13863174D02*
X14551015Y-13910793D01*
X14551015Y-13910793D02*
X14541491Y-13948888D01*
X14541491Y-13948888D02*
X14531967Y-13967936D01*
X14531967Y-13967936D02*
X14522444Y-13977460D01*
X14522444Y-13977460D02*
X14503396Y-13986984D01*
X14503396Y-13986984D02*
X14484348Y-13986984D01*
X14484348Y-13986984D02*
X14465301Y-13977460D01*
X14465301Y-13977460D02*
X14455777Y-13967936D01*
X14455777Y-13967936D02*
X14446253Y-13948888D01*
X14446253Y-13948888D02*
X14436729Y-13910793D01*
X14436729Y-13910793D02*
X14436729Y-13863174D01*
X14436729Y-13863174D02*
X14446253Y-13825079D01*
X14446253Y-13825079D02*
X14455777Y-13806031D01*
X14455777Y-13806031D02*
X14465301Y-13796508D01*
X14465301Y-13796508D02*
X14484348Y-13786984D01*
X14731967Y-13786984D02*
X14636729Y-13786984D01*
X14636729Y-13786984D02*
X14627206Y-13882222D01*
X14627206Y-13882222D02*
X14636729Y-13872698D01*
X14636729Y-13872698D02*
X14655777Y-13863174D01*
X14655777Y-13863174D02*
X14703396Y-13863174D01*
X14703396Y-13863174D02*
X14722444Y-13872698D01*
X14722444Y-13872698D02*
X14731967Y-13882222D01*
X14731967Y-13882222D02*
X14741491Y-13901269D01*
X14741491Y-13901269D02*
X14741491Y-13948888D01*
X14741491Y-13948888D02*
X14731967Y-13967936D01*
X14731967Y-13967936D02*
X14722444Y-13977460D01*
X14722444Y-13977460D02*
X14703396Y-13986984D01*
X14703396Y-13986984D02*
X14655777Y-13986984D01*
X14655777Y-13986984D02*
X14636729Y-13977460D01*
X14636729Y-13977460D02*
X14627206Y-13967936D01*
X14931967Y-13986984D02*
X14817682Y-13986984D01*
X14874825Y-13986984D02*
X14874825Y-13786984D01*
X14874825Y-13786984D02*
X14855777Y-13815555D01*
X14855777Y-13815555D02*
X14836729Y-13834603D01*
X14836729Y-13834603D02*
X14817682Y-13844127D01*
X15008158Y-13806031D02*
X15017682Y-13796508D01*
X15017682Y-13796508D02*
X15036729Y-13786984D01*
X15036729Y-13786984D02*
X15084348Y-13786984D01*
X15084348Y-13786984D02*
X15103396Y-13796508D01*
X15103396Y-13796508D02*
X15112920Y-13806031D01*
X15112920Y-13806031D02*
X15122444Y-13825079D01*
X15122444Y-13825079D02*
X15122444Y-13844127D01*
X15122444Y-13844127D02*
X15112920Y-13872698D01*
X15112920Y-13872698D02*
X14998634Y-13986984D01*
X14998634Y-13986984D02*
X15122444Y-13986984D01*
X15198634Y-13786984D02*
X15198634Y-13825079D01*
X15274825Y-13786984D02*
X15274825Y-13825079D01*
X15570063Y-14063174D02*
X15560539Y-14053650D01*
X15560539Y-14053650D02*
X15541491Y-14025079D01*
X15541491Y-14025079D02*
X15531968Y-14006031D01*
X15531968Y-14006031D02*
X15522444Y-13977460D01*
X15522444Y-13977460D02*
X15512920Y-13929841D01*
X15512920Y-13929841D02*
X15512920Y-13891746D01*
X15512920Y-13891746D02*
X15522444Y-13844127D01*
X15522444Y-13844127D02*
X15531968Y-13815555D01*
X15531968Y-13815555D02*
X15541491Y-13796508D01*
X15541491Y-13796508D02*
X15560539Y-13767936D01*
X15560539Y-13767936D02*
X15570063Y-13758412D01*
X15731968Y-13853650D02*
X15731968Y-13986984D01*
X15684348Y-13777460D02*
X15636729Y-13920317D01*
X15636729Y-13920317D02*
X15760539Y-13920317D01*
X15989110Y-13986984D02*
X15989110Y-13786984D01*
X16074825Y-13986984D02*
X16074825Y-13882222D01*
X16074825Y-13882222D02*
X16065301Y-13863174D01*
X16065301Y-13863174D02*
X16046253Y-13853650D01*
X16046253Y-13853650D02*
X16017682Y-13853650D01*
X16017682Y-13853650D02*
X15998634Y-13863174D01*
X15998634Y-13863174D02*
X15989110Y-13872698D01*
X16198634Y-13986984D02*
X16179587Y-13977460D01*
X16179587Y-13977460D02*
X16170063Y-13967936D01*
X16170063Y-13967936D02*
X16160539Y-13948888D01*
X16160539Y-13948888D02*
X16160539Y-13891746D01*
X16160539Y-13891746D02*
X16170063Y-13872698D01*
X16170063Y-13872698D02*
X16179587Y-13863174D01*
X16179587Y-13863174D02*
X16198634Y-13853650D01*
X16198634Y-13853650D02*
X16227206Y-13853650D01*
X16227206Y-13853650D02*
X16246253Y-13863174D01*
X16246253Y-13863174D02*
X16255777Y-13872698D01*
X16255777Y-13872698D02*
X16265301Y-13891746D01*
X16265301Y-13891746D02*
X16265301Y-13948888D01*
X16265301Y-13948888D02*
X16255777Y-13967936D01*
X16255777Y-13967936D02*
X16246253Y-13977460D01*
X16246253Y-13977460D02*
X16227206Y-13986984D01*
X16227206Y-13986984D02*
X16198634Y-13986984D01*
X16379587Y-13986984D02*
X16360539Y-13977460D01*
X16360539Y-13977460D02*
X16351015Y-13958412D01*
X16351015Y-13958412D02*
X16351015Y-13786984D01*
X16531968Y-13977460D02*
X16512920Y-13986984D01*
X16512920Y-13986984D02*
X16474825Y-13986984D01*
X16474825Y-13986984D02*
X16455777Y-13977460D01*
X16455777Y-13977460D02*
X16446253Y-13958412D01*
X16446253Y-13958412D02*
X16446253Y-13882222D01*
X16446253Y-13882222D02*
X16455777Y-13863174D01*
X16455777Y-13863174D02*
X16474825Y-13853650D01*
X16474825Y-13853650D02*
X16512920Y-13853650D01*
X16512920Y-13853650D02*
X16531968Y-13863174D01*
X16531968Y-13863174D02*
X16541491Y-13882222D01*
X16541491Y-13882222D02*
X16541491Y-13901269D01*
X16541491Y-13901269D02*
X16446253Y-13920317D01*
X16617682Y-13977460D02*
X16636730Y-13986984D01*
X16636730Y-13986984D02*
X16674825Y-13986984D01*
X16674825Y-13986984D02*
X16693872Y-13977460D01*
X16693872Y-13977460D02*
X16703396Y-13958412D01*
X16703396Y-13958412D02*
X16703396Y-13948888D01*
X16703396Y-13948888D02*
X16693872Y-13929841D01*
X16693872Y-13929841D02*
X16674825Y-13920317D01*
X16674825Y-13920317D02*
X16646253Y-13920317D01*
X16646253Y-13920317D02*
X16627206Y-13910793D01*
X16627206Y-13910793D02*
X16617682Y-13891746D01*
X16617682Y-13891746D02*
X16617682Y-13882222D01*
X16617682Y-13882222D02*
X16627206Y-13863174D01*
X16627206Y-13863174D02*
X16646253Y-13853650D01*
X16646253Y-13853650D02*
X16674825Y-13853650D01*
X16674825Y-13853650D02*
X16693872Y-13863174D01*
X16770063Y-14063174D02*
X16779587Y-14053650D01*
X16779587Y-14053650D02*
X16798634Y-14025079D01*
X16798634Y-14025079D02*
X16808158Y-14006031D01*
X16808158Y-14006031D02*
X16817682Y-13977460D01*
X16817682Y-13977460D02*
X16827206Y-13929841D01*
X16827206Y-13929841D02*
X16827206Y-13891746D01*
X16827206Y-13891746D02*
X16817682Y-13844127D01*
X16817682Y-13844127D02*
X16808158Y-13815555D01*
X16808158Y-13815555D02*
X16798634Y-13796508D01*
X16798634Y-13796508D02*
X16779587Y-13767936D01*
X16779587Y-13767936D02*
X16770063Y-13758412D01*
M02*
