M48
; DRILL file {KiCad 8.0.4} date 2024-08-20T08:37:05-0400
; FORMAT={-:-/ absolute / inch / decimal}
; #@! TF.CreationDate,2024-08-20T08:37:05-04:00
; #@! TF.GenerationSoftware,Kicad,Pcbnew,8.0.4
; #@! TF.FileFunction,Plated,1,2,PTH
FMAT,2
INCH
; #@! TA.AperFunction,Plated,PTH,ViaDrill
T1C0.0118
; #@! TA.AperFunction,Plated,PTH,ComponentDrill
T2C0.0118
; #@! TA.AperFunction,Plated,PTH,ComponentDrill
T3C0.0256
; #@! TA.AperFunction,Plated,PTH,ComponentDrill
T4C0.0315
; #@! TA.AperFunction,Plated,PTH,ComponentDrill
T5C0.0394
; #@! TA.AperFunction,Plated,PTH,ComponentDrill
T6C0.0472
; #@! TA.AperFunction,Plated,PTH,ComponentDrill
T7C0.0512
%
G90
G05
T1
X5.6079Y-4.0183
X5.6339Y-3.8348
X5.6858Y-3.8333
X5.8587Y-4.1557
X5.9149Y-4.1667
X6.3862Y-4.0778
X6.4307Y-3.9577
X6.4926Y-3.8947
X6.4946Y-3.9537
X6.4961Y-3.9852
X6.5046Y-3.9238
X6.5526Y-3.8948
X6.5584Y-3.9258
X6.5591Y-3.9888
X6.5603Y-3.9573
X6.6732Y-4.0289
X6.6874Y-4.1199
X6.6933Y-3.9266
X6.7041Y-4.2963
X6.7531Y-3.7584
X6.7559Y-3.5848
X6.7984Y-3.5383
X6.8257Y-3.7584
X6.8565Y-3.7706
X6.8802Y-3.7395
X6.8894Y-3.8612
X6.8953Y-3.9593
X6.8962Y-3.8305
X6.9117Y-3.7401
X6.928Y-3.6181
X6.9428Y-3.7357
X6.9598Y-3.8612
X7.0047Y-4.2636
X7.0447Y-4.2643
X7.0984Y-4.501
X7.176Y-4.275
X7.1776Y-4.2219
X7.1996Y-4.3012
X7.1996Y-4.3381
X7.2125Y-3.964
X7.2496Y-3.9404
T2
X6.9921Y-4.351
X6.9921Y-4.3805
X6.9921Y-4.41
X7.0217Y-4.351
X7.0217Y-4.3805
X7.0217Y-4.41
X7.0512Y-4.351
X7.0512Y-4.3805
X7.0512Y-4.41
T3
X6.8146Y-3.4439
X6.8646Y-3.4439
X6.9146Y-3.4439
X6.9646Y-3.4439
X7.0146Y-3.4439
X7.0646Y-3.4439
T4
X5.8067Y-3.7963
X5.8067Y-4.0963
X5.9122Y-3.7978
X5.9122Y-4.0978
X6.0201Y-3.797
X6.0201Y-4.097
X6.1248Y-3.7947
X6.1248Y-4.0947
X6.252Y-3.7974
X6.252Y-4.0974
T5
X6.3642Y-3.5175
X6.3642Y-3.6175
X6.5098Y-3.5175
X6.5098Y-3.6175
X6.6547Y-3.5175
X6.6547Y-3.6175
T6
X5.1228Y-3.699
X5.1228Y-3.9037
X5.4102Y-3.6636
X5.4102Y-3.9037
X5.4102Y-4.1439
X5.6701Y-3.5415
T7
X5.9382Y-3.5707
X6.135Y-3.5707
X7.3098Y-3.4539
X7.3098Y-3.6508
M30
